<?xml version="1.0" encoding="UTF-8" standalone="no"?>
<!-- Generator: Adobe Illustrator 19.0.0, SVG Export Plug-In . SVG Version: 6.00 Build 0)  -->

<svg
   xmlns:dc="http://purl.org/dc/elements/1.1/"
   xmlns:cc="http://creativecommons.org/ns#"
   xmlns:rdf="http://www.w3.org/1999/02/22-rdf-syntax-ns#"
   xmlns:svg="http://www.w3.org/2000/svg"
   xmlns="http://www.w3.org/2000/svg"
   xmlns:sodipodi="http://sodipodi.sourceforge.net/DTD/sodipodi-0.dtd"
   xmlns:inkscape="http://www.inkscape.org/namespaces/inkscape"
   version="1.1"
   id="Layer_1"
   x="0px"
   y="0px"
   viewBox="0 0 2095.3579 714.93445"
   xml:space="preserve"
   sodipodi:docname="automatizace-2.svg"
   width="2095.3579"
   height="714.93445"
   inkscape:version="0.92.4 (5da689c313, 2019-01-14)"><metadata
   id="metadata69"><rdf:RDF><cc:Work
       rdf:about=""><dc:format>image/svg+xml</dc:format><dc:type
         rdf:resource="http://purl.org/dc/dcmitype/StillImage" /><dc:title></dc:title></cc:Work></rdf:RDF></metadata><defs
   id="defs67" /><sodipodi:namedview
   pagecolor="#ffffff"
   bordercolor="#666666"
   borderopacity="1"
   objecttolerance="10"
   gridtolerance="10"
   guidetolerance="10"
   inkscape:pageopacity="0"
   inkscape:pageshadow="2"
   inkscape:window-width="1920"
   inkscape:window-height="1027"
   id="namedview65"
   showgrid="false"
   fit-margin-top="0"
   fit-margin-left="0"
   fit-margin-right="0"
   fit-margin-bottom="0"
   inkscape:zoom="0.4609375"
   inkscape:cx="1023.1512"
   inkscape:cy="197.91732"
   inkscape:window-x="-8"
   inkscape:window-y="-8"
   inkscape:window-maximized="1"
   inkscape:current-layer="Layer_1" />
<g
   id="g6"
   transform="matrix(-1,0,0,1,802.90528,210.25143)">
	<rect
   x="352.35999"
   y="51.922001"
   style="fill:#8b8b8b"
   width="82.473999"
   height="33.395"
   id="rect2" />
	<rect
   x="143.53101"
   y="51.922001"
   style="fill:#8b8b8b"
   width="82.473999"
   height="33.395"
   id="rect4" />
</g>
<path
   style="fill:#d7d7d7"
   d="m 323.47928,340.15543 c 0.037,0 0.073,0 0.112,0 33.796,-0.063 61.242,-27.611 61.178,-61.409 -0.065,-33.759 -27.549,-61.178 -61.292,-61.178 -0.039,0 -0.078,0 -0.117,0 -11.394,0.021 -22.617,3.309 -32.456,9.508 l 17.8,28.255 c 4.585,-2.889 9.538,-4.358 14.72,-4.367 0.017,0 0.036,0 0.053,0 15.359,0 27.868,12.48 27.898,27.847 0.028,15.383 -12.463,27.921 -27.847,27.95 -0.018,0 -0.035,0 -0.052,0 -5.164,0 -10.103,-1.45 -14.684,-4.312 l -17.694,28.322 c 9.831,6.14 21.025,9.384 32.381,9.384 z"
   id="path8"
   inkscape:connector-curvature="0" />
<path
   style="fill:#b0b0b0"
   d="m 308.79228,302.44843 c 4.581,2.862 9.521,4.312 14.684,4.312 0.018,0 0.035,0 0.052,0 15.383,-0.029 27.875,-12.568 27.847,-27.95 l 33.395,-0.062 c 0.063,33.797 -27.383,61.344 -61.178,61.409 -0.038,0 -0.075,0 -0.112,0 -11.356,0 -22.552,-3.245 -32.381,-9.385 z"
   id="path10"
   inkscape:connector-curvature="0" />
<g
   id="g16"
   transform="matrix(-1,0,0,1,802.90528,210.25143)">
	<rect
   x="101.487"
   y="303.61499"
   style="fill:#8b8b8b"
   width="33.395"
   height="82.473999"
   id="rect12" />
	<rect
   x="101.487"
   y="94.786003"
   style="fill:#8b8b8b"
   width="33.395"
   height="82.473999"
   id="rect14" />
</g>
<path
   style="fill:#f0c838"
   d="m 636.10728,530.56243 h 97.232 v -159.756 h -97.232 z"
   id="path18"
   inkscape:connector-curvature="0" />
<path
   style="fill:#e79c25"
   d="m 636.10728,530.56243 h 48.616 v -159.756 h -48.616 z"
   id="path20"
   inkscape:connector-curvature="0" />
<path
   style="fill:#f0c838"
   d="m 433.84528,327.48643 h 159.757 v -97.231 h -159.757 z"
   id="path22"
   inkscape:connector-curvature="0" />
<path
   style="fill:#e79c25"
   d="m 433.84528,327.48643 h 79.878 v -97.231 h -79.878 z"
   id="path24"
   inkscape:connector-curvature="0" />
<path
   style="fill:#f0c838"
   d="m 566.54128,714.93443 h 236.364 v -16.697 c 0,-65.166 -53.017,-118.182 -118.182,-118.182 -65.165,0 -118.182,53.017 -118.182,118.182 z"
   id="path26"
   inkscape:connector-curvature="0" />
<path
   style="fill:#e79c25"
   d="m 566.54128,714.93443 h 118.182 c 0,0 0,-86.022 0,-134.88 -65.166,0 -118.182,53.017 -118.182,118.182 z"
   id="path28"
   inkscape:connector-curvature="0" />
<path
   style="fill:#92e5ea"
   d="m 684.72328,321.08143 c 23.275,0 42.211,-18.936 42.211,-42.211 0,-23.275 -18.936,-42.211 -42.211,-42.211 -23.275,0 -42.211,18.936 -42.211,42.211 0,23.275 18.936,42.211 42.211,42.211 z"
   id="path30"
   inkscape:connector-curvature="0" />
<path
   style="fill:#79bbbc"
   d="m 684.72328,321.08143 v -84.422 c -23.275,0 -42.211,18.936 -42.211,42.211 0,23.275 18.936,42.211 42.211,42.211 z"
   id="path32"
   inkscape:connector-curvature="0" />
<g
   id="g34"
   transform="translate(290.90428,210.25143)">
</g>
<g
   id="g36"
   transform="translate(290.90428,210.25143)">
</g>
<g
   id="g38"
   transform="translate(290.90428,210.25143)">
</g>
<g
   id="g40"
   transform="translate(290.90428,210.25143)">
</g>
<g
   id="g42"
   transform="translate(290.90428,210.25143)">
</g>
<g
   id="g44"
   transform="translate(290.90428,210.25143)">
</g>
<g
   id="g46"
   transform="translate(290.90428,210.25143)">
</g>
<g
   id="g48"
   transform="translate(290.90428,210.25143)">
</g>
<g
   id="g50"
   transform="translate(290.90428,210.25143)">
</g>
<g
   id="g52"
   transform="translate(290.90428,210.25143)">
</g>
<g
   id="g54"
   transform="translate(290.90428,210.25143)">
</g>
<g
   id="g56"
   transform="translate(290.90428,210.25143)">
</g>
<g
   id="g58"
   transform="translate(290.90428,210.25143)">
</g>
<g
   id="g60"
   transform="translate(290.90428,210.25143)">
</g>
<g
   id="g62"
   transform="translate(290.90428,210.25143)">
</g>
<text
   xml:space="preserve"
   style="font-style:normal;font-variant:normal;font-weight:bold;font-stretch:normal;font-size:273.19155884px;line-height:1.25;font-family:sans-serif;-inkscape-font-specification:'sans-serif Bold';letter-spacing:0px;word-spacing:0px;fill:#ff5555;fill-opacity:1;stroke:none;stroke-width:6.82978868"
   x="-1.3339431"
   y="207.56155"
   id="text73"><tspan
     sodipodi:role="line"
     id="tspan71"
     x="-1.3339431"
     y="207.56155"
     style="fill:#ff5555;stroke-width:6.82978868">Automatizace</tspan></text>


</svg>