<?xml version="1.0" encoding="UTF-8" standalone="no"?>
<!-- Generator: Adobe Illustrator 19.0.0, SVG Export Plug-In . SVG Version: 6.00 Build 0)  -->

<svg
   xmlns:dc="http://purl.org/dc/elements/1.1/"
   xmlns:cc="http://creativecommons.org/ns#"
   xmlns:rdf="http://www.w3.org/1999/02/22-rdf-syntax-ns#"
   xmlns:svg="http://www.w3.org/2000/svg"
   xmlns="http://www.w3.org/2000/svg"
   xmlns:sodipodi="http://sodipodi.sourceforge.net/DTD/sodipodi-0.dtd"
   xmlns:inkscape="http://www.inkscape.org/namespaces/inkscape"
   version="1.1"
   id="Layer_1"
   x="0px"
   y="0px"
   viewBox="0 0 1717.5441 573.46716"
   xml:space="preserve"
   sodipodi:docname="automotive-2.svg"
   width="1717.5441"
   height="573.46716"
   inkscape:version="0.92.4 (5da689c313, 2019-01-14)"><metadata
   id="metadata67"><rdf:RDF><cc:Work
       rdf:about=""><dc:format>image/svg+xml</dc:format><dc:type
         rdf:resource="http://purl.org/dc/dcmitype/StillImage" /><dc:title></dc:title></cc:Work></rdf:RDF></metadata><defs
   id="defs65" /><sodipodi:namedview
   pagecolor="#ffffff"
   bordercolor="#666666"
   borderopacity="1"
   objecttolerance="10"
   gridtolerance="10"
   guidetolerance="10"
   inkscape:pageopacity="0"
   inkscape:pageshadow="2"
   inkscape:window-width="1920"
   inkscape:window-height="1027"
   id="namedview63"
   showgrid="false"
   fit-margin-top="0"
   fit-margin-left="0"
   fit-margin-right="0"
   fit-margin-bottom="0"
   inkscape:zoom="0.4609375"
   inkscape:cx="531.33008"
   inkscape:cy="178.60199"
   inkscape:window-x="-8"
   inkscape:window-y="-8"
   inkscape:window-maximized="1"
   inkscape:current-layer="Layer_1" />
<g
   id="g8"
   transform="matrix(-1,0,0,1,787.33008,138.86515)">
	<path
   style="fill:#ffffff"
   d="m 137.456,322.941 c 16.526,0 29.957,13.443 29.957,29.957 0,16.515 -13.432,29.957 -29.957,29.957 -16.515,0 -29.957,-13.443 -29.957,-29.957 -10e-4,-16.515 13.442,-29.957 29.957,-29.957 z"
   id="path2"
   inkscape:connector-curvature="0" />
	<path
   style="fill:#ffffff"
   d="m 374.544,322.941 c 16.515,0 29.957,13.443 29.957,29.957 0,16.515 -13.443,29.957 -29.957,29.957 -16.526,0 -29.957,-13.443 -29.957,-29.957 0,-16.515 13.432,-29.957 29.957,-29.957 z"
   id="path4"
   inkscape:connector-curvature="0" />
	<path
   style="fill:#ffffff"
   d="m 208.373,118.25 v 83.064 H 53.052 l 65.46,-69.545 c 6.177,-6.569 22.256,-13.519 31.276,-13.519 z"
   id="path6"
   inkscape:connector-curvature="0" />
</g>
<path
   style="fill:#c5e2e2"
   d="m 451.66508,267.92115 -33.596,72.257 h 160.888 v -83.063 h -110.265 c -5.36,0 -14.75,5.958 -17.027,10.806 z"
   id="path10"
   inkscape:connector-curvature="0" />
<path
   style="fill:none"
   d="m 330.22308,372.85915 c 0,-5.164 -0.839,-10.12 -2.386,-14.772 0,-0.011 38.204,-12.746 38.204,-12.746 8.53,-2.832 18.628,-11.82 22.463,-19.946 l 33.596,-71.397 c 7.647,-16.264 28.618,-29.565 46.592,-29.565 h 168.851 c 17.974,0 42.757,10.708 55.078,23.803 l 75.34,80.046 c 6.155,6.547 11.199,19.249 11.199,28.236 v 102.563 c 0,17.974 -14.706,32.681 -32.681,32.681 h -23.073 c 0,-40.611 -32.921,-73.532 -73.532,-73.532 -40.611,0 -73.532,32.921 -73.532,73.532 h -90.025 c 0,-40.611 -32.921,-73.532 -73.532,-73.532 -40.611,0 -73.532,32.921 -73.532,73.532 0,0 -11.634,0 -27.288,0 -15.654,0 -28.465,-14.706 -28.465,-32.681 v -39.5 c 25.807,0.001 46.723,-20.915 46.723,-46.722 z m 404.055,-32.68 -65.46,-69.545 c -6.177,-6.569 -22.256,-13.519 -31.276,-13.519 h -168.851 c -5.36,0 -14.75,5.959 -17.027,10.806 l -33.596,72.257 h 316.21 z"
   id="path12"
   inkscape:connector-curvature="0" />
<g
   id="g18"
   transform="matrix(-1,0,0,1,787.33008,138.86515)">
	<path
   style="fill:#aece71"
   d="m 137.456,279.366 c 40.611,0 73.532,32.921 73.532,73.532 0,40.611 -32.921,73.532 -73.532,73.532 -40.611,0 -73.532,-32.921 -73.532,-73.532 0,-40.611 32.92,-73.532 73.532,-73.532 z m 29.957,73.532 c 0,-16.515 -13.432,-29.957 -29.957,-29.957 -16.515,0 -29.957,13.443 -29.957,29.957 0,16.515 13.443,29.957 29.957,29.957 16.525,10e-4 29.957,-13.442 29.957,-29.957 z"
   id="path14"
   inkscape:connector-curvature="0" />
	<path
   style="fill:#aece71"
   d="m 374.544,279.366 c 40.611,0 73.532,32.921 73.532,73.532 0,40.611 -32.921,73.532 -73.532,73.532 -40.611,0 -73.532,-32.921 -73.532,-73.532 0,-40.611 32.921,-73.532 73.532,-73.532 z m 29.958,73.532 c 0,-16.515 -13.443,-29.957 -29.957,-29.957 -16.526,0 -29.957,13.443 -29.957,29.957 0,16.515 13.432,29.957 29.957,29.957 16.514,10e-4 29.957,-13.442 29.957,-29.957 z"
   id="path16"
   inkscape:connector-curvature="0" />
</g>
<path
   style="fill:#eec278"
   d="m 327.82608,358.08815 c -24.38,8.127 -44.326,35.796 -44.326,61.494 25.807,0 46.723,-20.916 46.723,-46.723 0,-5.163 -0.839,-10.12 -2.397,-14.771 z"
   id="path20"
   inkscape:connector-curvature="0" />
<g
   id="g30"
   transform="matrix(-1,0,0,1,787.33008,138.86515)">
	<path
   style="fill:#700019"
   d="m 137.46,391.027 c 21.024,0 38.128,-17.104 38.128,-38.128 0,-21.024 -17.104,-38.128 -38.128,-38.128 -21.024,0 -38.128,17.104 -38.128,38.128 0,21.024 17.104,38.128 38.128,38.128 z m 0,-59.915 c 12.013,0 21.787,9.774 21.787,21.787 0,12.013 -9.774,21.787 -21.787,21.787 -12.013,0 -21.787,-9.774 -21.787,-21.787 0,-12.013 9.772,-21.787 21.787,-21.787 z"
   id="path22"
   inkscape:connector-curvature="0" />
	<path
   style="fill:#700019"
   d="m 374.54,314.772 c -21.024,0 -38.128,17.104 -38.128,38.128 0,21.024 17.104,38.128 38.128,38.128 21.024,0 38.128,-17.104 38.128,-38.128 0,-21.024 -17.104,-38.128 -38.128,-38.128 z m 0,59.914 c -12.013,0 -21.787,-9.774 -21.787,-21.787 0,-12.013 9.774,-21.787 21.787,-21.787 12.013,0 21.787,9.774 21.787,21.787 0,12.013 -9.772,21.787 -21.787,21.787 z"
   id="path24"
   inkscape:connector-curvature="0" />
	<path
   style="fill:#700019"
   d="m 149.787,126.419 h 25.904 c 4.513,0 8.17,-3.658 8.17,-8.17 0,-4.512 -3.657,-8.17 -8.17,-8.17 h -25.904 c -11.354,0 -29.447,7.817 -37.231,16.087 l -65.458,69.55 c -2.234,2.374 -2.842,5.848 -1.55,8.84 1.293,2.992 4.241,4.929 7.5,4.929 h 316.21 c 2.791,0 5.387,-1.424 6.888,-3.777 1.5,-2.352 1.697,-5.308 0.521,-7.838 l -33.611,-72.295 c -3.611,-7.676 -15.935,-15.496 -24.418,-15.496 H 208.372 c -4.513,0 -8.17,3.658 -8.17,8.17 l -0.001,74.896 H 71.959 l 52.496,-55.78 c 4.622,-4.911 18.591,-10.946 25.332,-10.946 z m 66.755,0 h 102.073 c 2.4,0.112 8.543,4.01 9.64,6.08 l 28.196,60.646 h -139.91 z"
   id="path26"
   inkscape:connector-curvature="0" />
	<path
   style="fill:#700019"
   d="m 512,280.719 c 0,-29.011 -22.392,-60.077 -49.913,-69.251 -0.019,-0.007 -38.213,-12.738 -38.213,-12.738 -6.377,-2.125 -14.789,-9.599 -17.651,-15.68 L 372.627,111.659 C 363.586,92.447 339.872,77.397 318.638,77.397 H 149.787 c -20.305,0 -47.112,11.582 -61.028,26.369 L 13.421,183.814 C 5.895,191.811 0,206.674 0,217.655 v 102.563 c 0,22.526 18.325,40.851 40.851,40.851 h 15.316 c 4.112,41.228 38.999,73.532 81.293,73.532 42.294,0 77.18,-32.304 81.293,-73.532 h 49.576 c 4.513,0 8.17,-3.658 8.17,-8.17 0,-4.512 -3.657,-8.17 -8.17,-8.17 h -49.576 c -4.112,-41.228 -38.999,-73.532 -81.293,-73.532 -42.294,0 -77.18,32.304 -81.293,73.532 H 40.851 c -13.515,0 -24.511,-10.995 -24.511,-24.511 V 217.655 c 0,-6.856 4.28,-17.648 8.979,-22.64 l 75.339,-80.05 c 10.829,-11.507 33.328,-21.227 49.129,-21.227 h 168.851 c 14.905,0 32.857,11.393 39.203,24.879 l 33.596,71.391 c 4.816,10.235 16.539,20.649 27.268,24.225 l 31.045,10.348 c -0.536,3.095 -0.815,6.241 -0.815,9.414 0,27.493 20.317,50.326 46.725,54.284 v 31.94 c 0,13.516 -9.104,24.511 -20.296,24.511 h -19.531 c -4.112,-41.228 -38.999,-73.532 -81.293,-73.532 -45.051,0 -81.702,36.652 -81.702,81.702 0,45.05 36.652,81.702 81.702,81.702 42.293,0 77.18,-32.304 81.293,-73.532 h 19.531 c 20.201,0 36.636,-18.325 36.636,-40.851 z m -374.54,6.819 c 36.04,0 65.362,29.321 65.362,65.362 0,36.041 -29.321,65.362 -65.362,65.362 -36.041,0 -65.362,-29.321 -65.362,-65.362 0,-36.041 29.322,-65.362 65.362,-65.362 z m 237.08,130.723 c -36.04,0 -65.362,-29.321 -65.362,-65.362 0,-36.041 29.321,-65.362 65.362,-65.362 36.041,0 65.362,29.321 65.362,65.362 0,36.041 -29.322,65.362 -65.362,65.362 z m 90.735,-184.266 c 0,-1.056 0.044,-2.107 0.127,-3.152 14.336,8.309 25.913,24.369 29.265,40.596 -16.848,-4.122 -29.392,-19.342 -29.392,-37.444 z"
   id="path28"
   inkscape:connector-curvature="0" />
</g>
<g
   id="g32"
   transform="translate(275.33008,138.86515)">
</g>
<g
   id="g34"
   transform="translate(275.33008,138.86515)">
</g>
<g
   id="g36"
   transform="translate(275.33008,138.86515)">
</g>
<g
   id="g38"
   transform="translate(275.33008,138.86515)">
</g>
<g
   id="g40"
   transform="translate(275.33008,138.86515)">
</g>
<g
   id="g42"
   transform="translate(275.33008,138.86515)">
</g>
<g
   id="g44"
   transform="translate(275.33008,138.86515)">
</g>
<g
   id="g46"
   transform="translate(275.33008,138.86515)">
</g>
<g
   id="g48"
   transform="translate(275.33008,138.86515)">
</g>
<g
   id="g50"
   transform="translate(275.33008,138.86515)">
</g>
<g
   id="g52"
   transform="translate(275.33008,138.86515)">
</g>
<g
   id="g54"
   transform="translate(275.33008,138.86515)">
</g>
<g
   id="g56"
   transform="translate(275.33008,138.86515)">
</g>
<g
   id="g58"
   transform="translate(275.33008,138.86515)">
</g>
<g
   id="g60"
   transform="translate(275.33008,138.86515)">
</g>
<text
   xml:space="preserve"
   style="font-style:normal;font-variant:normal;font-weight:bold;font-stretch:normal;font-size:264.95407104px;line-height:1.25;font-family:sans-serif;-inkscape-font-specification:'sans-serif Bold';letter-spacing:0px;word-spacing:0px;fill:#ff5555;fill-opacity:1;stroke:none;stroke-width:6.62385273"
   x="-1.2937211"
   y="201.30299"
   id="text71"><tspan
     sodipodi:role="line"
     id="tspan69"
     x="-1.2937211"
     y="201.30299"
     style="fill:#ff5555;stroke-width:6.62385273">Automotive</tspan></text>


</svg>