<?xml version="1.0" encoding="UTF-8" standalone="no"?>
<svg
   xmlns:dc="http://purl.org/dc/elements/1.1/"
   xmlns:cc="http://creativecommons.org/ns#"
   xmlns:rdf="http://www.w3.org/1999/02/22-rdf-syntax-ns#"
   xmlns:svg="http://www.w3.org/2000/svg"
   xmlns="http://www.w3.org/2000/svg"
   xmlns:sodipodi="http://sodipodi.sourceforge.net/DTD/sodipodi-0.dtd"
   xmlns:inkscape="http://www.inkscape.org/namespaces/inkscape"
   width="149.30315"
   height="66.027916"
   viewBox="0 0 149.30315 66.027916"
   id="Layer_1"
   version="1.1"
   xml:space="preserve"
   sodipodi:docname="energetika-2.svg"
   inkscape:version="0.92.4 (5da689c313, 2019-01-14)"><metadata
   id="metadata9"><rdf:RDF><cc:Work
       rdf:about=""><dc:format>image/svg+xml</dc:format><dc:type
         rdf:resource="http://purl.org/dc/dcmitype/StillImage" /><dc:title></dc:title></cc:Work></rdf:RDF></metadata><defs
   id="defs7" /><sodipodi:namedview
   pagecolor="#ffffff"
   bordercolor="#666666"
   borderopacity="1"
   objecttolerance="10"
   gridtolerance="10"
   guidetolerance="10"
   inkscape:pageopacity="0"
   inkscape:pageshadow="2"
   inkscape:window-width="1920"
   inkscape:window-height="1027"
   id="namedview5"
   showgrid="false"
   fit-margin-top="0"
   fit-margin-left="0"
   fit-margin-right="0"
   fit-margin-bottom="0"
   inkscape:zoom="4.2142857"
   inkscape:cx="70.362024"
   inkscape:cy="31.603391"
   inkscape:window-x="-8"
   inkscape:window-y="-8"
   inkscape:window-maximized="1"
   inkscape:current-layer="Layer_1" /><path
   d="m 97.023041,46.727916 c 0,-0.4 -0.3,-0.8 -0.7,-0.9 -0.2,-0.1 -5,-1.5 -8,0.8 -0.3,0.3 -0.6,0.6 -0.9,0.9 v -2.2 c 1.5,-1.2 6.4,-5.4 6.4,-10.7 0,-6.1 -6.5,-10.8 -6.8,-11 -0.3,-0.2 -0.8,-0.2 -1.2,0 -0.3,0.2 -6.8,4.9 -6.8,11 0,5.3 4.9,9.5 6.4,10.7 v 2.9 c -0.3,-0.4 -0.7,-0.8 -1.1,-1.1 -3.1,-2.2 -7.8,-0.6 -8,-0.6 -0.4,0.1 -0.7,0.5 -0.7,0.9 0,0.2 0,5.2 3.1,7.4 1.3,0.9 2.8,1.2 4.2,1.2 1,0 1.8,-0.1 2.5,-0.3 v 2.2 c 0,3.3 -2.7,6 -6,6 h -18.1 c -3.3,0 -6,-2.7 -6,-6 v -14.2 c 3.6,-0.5 6.4,-3.6 6.4,-7.3 v -6.4 c 0,-0.6 -0.4,-1 -1,-1 h -2.2 v -3.7 c 0,-0.6 -0.4,-1 -1,-1 -0.6,0 -1,0.4 -1,1 v 3.8 h -4.5 v -3.8 c 0,-0.6 -0.4,-1 -1,-1 -0.6,0 -1,0.4 -1,1 v 3.8 h -2 c -0.6,0 -1,0.4 -1,1 v 6.4 c 0,3.7 2.8,6.8 6.4,7.3 v 14.2 c 0,4.4 3.6,8 8,8 h 18.1 c 4.4,0 8,-3.6 8,-8 v -2.6 c 0.6,0.1 1.4,0.2 2.2,0.2 1.5,0 3.1,-0.3 4.5,-1.3 2.9,-2.4 2.8,-7.4 2.8,-7.6 z m -48,-10.2 v -5.4 h 10.7 v 5.4 c 0,3 -2.4,5.4 -5.4,5.4 -3,0 -5.3,-2.5 -5.3,-5.4 z m 32,-2 c 0,-4.1 3.9,-7.7 5.4,-8.9 1.5,1.2 5.4,4.8 5.4,8.9 0,3.4 -2.6,6.4 -4.4,8.1 v -8.1 c 0,-0.6 -0.4,-1 -1,-1 -0.6,0 -1,0.4 -1,1 v 8.1 c -1.8,-1.7 -4.4,-4.7 -4.4,-8.1 z m -1.2,18.7 c -1.7,-1.2 -2.1,-3.8 -2.3,-5 1.2,-0.3 3.8,-0.7 5.5,0.5 1.7,1.2 2.1,3.8 2.3,5 -1.4,0.4 -3.9,0.6 -5.5,-0.5 z m 13.1,-0.6 c -1.6,1.2 -4.2,0.9 -5.5,0.7 0.1,-1.3 0.5,-3.8 2.1,-5.1 1.6,-1.2 4.2,-0.9 5.5,-0.7 -0.1,1.3 -0.5,3.9 -2.1,5.1 z"
   id="path2"
   inkscape:connector-curvature="0"
   style="fill:#008000" /><text
   xml:space="preserve"
   style="font-style:normal;font-variant:normal;font-weight:bold;font-stretch:normal;font-size:25.06951141px;line-height:1.25;font-family:sans-serif;-inkscape-font-specification:'sans-serif Bold';letter-spacing:0px;word-spacing:0px;fill:#ff5555;fill-opacity:1;stroke:none;stroke-width:0.62673777"
   x="-2.3013029"
   y="19.046953"
   id="text13"><tspan
     sodipodi:role="line"
     id="tspan11"
     x="-2.3013029"
     y="19.046953"
     style="fill:#ff5555;stroke-width:0.62673777">Energetika</tspan></text>


</svg>