<?xml version="1.0" encoding="UTF-8" standalone="no"?>
<!-- Generator: Adobe Illustrator 19.0.0, SVG Export Plug-In . SVG Version: 6.00 Build 0)  -->

<svg
   xmlns:dc="http://purl.org/dc/elements/1.1/"
   xmlns:cc="http://creativecommons.org/ns#"
   xmlns:rdf="http://www.w3.org/1999/02/22-rdf-syntax-ns#"
   xmlns:svg="http://www.w3.org/2000/svg"
   xmlns="http://www.w3.org/2000/svg"
   xmlns:sodipodi="http://sodipodi.sourceforge.net/DTD/sodipodi-0.dtd"
   xmlns:inkscape="http://www.inkscape.org/namespaces/inkscape"
   version="1.1"
   id="Capa_1"
   x="0px"
   y="0px"
   viewBox="0 0 1593.537 1142.5169"
   xml:space="preserve"
   sodipodi:docname="lekarska-technika-2.svg"
   width="1593.537"
   height="1142.5168"
   inkscape:version="0.92.4 (5da689c313, 2019-01-14)"><metadata
   id="metadata54"><rdf:RDF><cc:Work
       rdf:about=""><dc:format>image/svg+xml</dc:format><dc:type
         rdf:resource="http://purl.org/dc/dcmitype/StillImage" /><dc:title></dc:title></cc:Work></rdf:RDF></metadata><defs
   id="defs52" /><sodipodi:namedview
   pagecolor="#ffffff"
   bordercolor="#666666"
   borderopacity="1"
   objecttolerance="10"
   gridtolerance="10"
   guidetolerance="10"
   inkscape:pageopacity="0"
   inkscape:pageshadow="2"
   inkscape:window-width="1920"
   inkscape:window-height="1027"
   id="namedview50"
   showgrid="false"
   fit-margin-top="0"
   fit-margin-left="0"
   fit-margin-right="0"
   fit-margin-bottom="0"
   inkscape:zoom="0.30779665"
   inkscape:cx="731.90097"
   inkscape:cy="470.43036"
   inkscape:window-x="-8"
   inkscape:window-y="-8"
   inkscape:window-maximized="1"
   inkscape:current-layer="Capa_1" />

<g
   id="g19"
   transform="translate(581.66813,149.13876)">
</g>
<g
   id="g21"
   transform="translate(581.66813,149.13876)">
</g>
<g
   id="g23"
   transform="translate(581.66813,149.13876)">
</g>
<g
   id="g25"
   transform="translate(581.66813,149.13876)">
</g>
<g
   id="g27"
   transform="translate(581.66813,149.13876)">
</g>
<g
   id="g29"
   transform="translate(581.66813,149.13876)">
</g>
<g
   id="g31"
   transform="translate(581.66813,149.13876)">
</g>
<g
   id="g33"
   transform="translate(581.66813,149.13876)">
</g>
<g
   id="g35"
   transform="translate(581.66813,149.13876)">
</g>
<g
   id="g37"
   transform="translate(581.66813,149.13876)">
</g>
<g
   id="g39"
   transform="translate(581.66813,149.13876)">
</g>
<g
   id="g41"
   transform="translate(581.66813,149.13876)">
</g>
<g
   id="g43"
   transform="translate(581.66813,149.13876)">
</g>
<g
   id="g45"
   transform="translate(581.66813,149.13876)">
</g>
<g
   id="g47"
   transform="translate(581.66813,149.13876)">
</g>
<text
   xml:space="preserve"
   style="font-style:normal;font-weight:normal;font-size:323.54156494px;line-height:1.25;font-family:sans-serif;letter-spacing:0px;word-spacing:0px;fill:#000000;fill-opacity:1;stroke:none;stroke-width:8.08853817"
   x="796.21558"
   y="258.77005"
   id="text58"><tspan
     sodipodi:role="line"
     id="tspan56"
     x="796.21552"
     y="258.77005"
     style="font-style:normal;font-variant:normal;font-weight:bold;font-stretch:normal;font-family:sans-serif;-inkscape-font-specification:'sans-serif Bold';text-align:center;text-anchor:middle;fill:#000000;stroke-width:8.08853817">Lékařská</tspan><tspan
     sodipodi:role="line"
     x="796.21558"
     y="663.19702"
     style="font-style:normal;font-variant:normal;font-weight:bold;font-stretch:normal;font-family:sans-serif;-inkscape-font-specification:'sans-serif Bold';text-align:center;text-anchor:middle;fill:#000000;stroke-width:8.08853817"
     id="tspan60">Technika</tspan></text>


<g
   id="g110"
   transform="translate(518.97758,654.37587)"><path
     id="path34"
     d="M 475.89,476.105 H 36.11 c -13.295,0 -24.073,-10.779 -24.073,-24.073 v -304.02 c 0,-13.295 10.779,-24.074 24.073,-24.074 h 439.78 c 13.295,0 24.074,10.779 24.074,24.074 v 304.021 c -10e-4,13.293 -10.779,24.072 -24.074,24.072 z"
     style="fill:#ffffff"
     inkscape:connector-curvature="0" /><path
     id="path36"
     d="m 159.253,51.944 v 71.993 h 37.498 V 73.394 h 118.496 v 50.543 h 37.499 V 51.944 c 0,-8.864 -7.185,-16.049 -16.049,-16.049 H 175.302 c -8.864,0 -16.049,7.185 -16.049,16.049 z"
     style="fill:#ffda79"
     inkscape:connector-curvature="0" /><circle
     id="circle38"
     r="115.248"
     cy="300.01999"
     cx="255.998"
     style="fill:#ff7876" /><g
     id="g44">
	<path
   id="path40"
   d="M 157.616,239.986 H 12.037 v 120.071 h 145.577 c -22.486,-36.774 -22.502,-83.273 0.002,-120.071 z"
   style="fill:#80d0e1"
   inkscape:connector-curvature="0" />
	<path
   id="path42"
   d="m 354.386,239.986 c 10.693,17.485 16.861,38.039 16.861,60.036 0,21.997 -6.169,42.549 -16.861,60.036 H 499.963 V 239.987 H 354.386 Z"
   style="fill:#80d0e1"
   inkscape:connector-curvature="0" />
</g><path
     id="path46"
     d="M 475.89,111.902 H 364.783 V 51.944 c 0,-15.486 -12.6,-28.086 -28.086,-28.086 H 175.302 c -15.486,0 -28.086,12.6 -28.086,28.086 V 111.9 H 36.11 C 16.2,111.9 0,128.098 0,148.01 c 0,14.144 0,287.17 0,304.021 0,19.912 16.2,36.11 36.11,36.11 h 439.78 c 19.91,0 36.11,-16.198 36.11,-36.11 0,-14.144 0,-287.17 0,-304.021 0,-19.91 -16.198,-36.108 -36.11,-36.108 z M 171.289,51.944 c 0,-2.212 1.799,-4.012 4.012,-4.012 h 161.395 c 2.213,0 4.012,1.801 4.012,4.012 V 111.9 H 327.283 V 73.394 c 0,-6.647 -5.388,-12.037 -12.037,-12.037 H 196.751 c -6.649,0 -12.037,5.389 -12.037,12.037 V 111.9 h -13.425 z m 37.5,59.958 V 85.43 h 94.423 V 111.9 H 208.789 Z M 36.11,135.975 c 15.295,0 421.267,0 439.779,0 6.638,0 12.037,5.399 12.037,12.037 v 79.938 h -127.09 c -50.784,-73.641 -158.969,-73.524 -209.672,0 H 24.073 v -79.938 c 0,-6.638 5.399,-12.037 12.037,-12.037 z M 487.926,348.021 H 373.905 c 12.425,-30.522 12.44,-65.446 0,-95.997 h 114.022 v 95.997 z m -231.925,55.212 c -56.919,0 -103.211,-46.309 -103.211,-103.211 0,-56.913 46.305,-103.211 103.211,-103.211 56.926,0 103.211,46.313 103.211,103.211 -0.002,56.911 -46.303,103.211 -103.211,103.211 z M 138.095,348.021 H 24.073 v -95.997 h 114.022 c -11.985,29.437 -12.873,64.376 0,95.997 z M 475.89,464.068 H 36.11 c -6.638,0 -12.037,-5.399 -12.037,-12.037 v -79.938 h 127.09 c 50.784,73.641 158.969,73.524 209.672,0 h 127.09 v 79.938 c 10e-4,6.638 -5.397,12.037 -12.035,12.037 z"
     style="fill:#58595b"
     inkscape:connector-curvature="0" /><path
     id="path48"
     d="m 282.031,365.725 v -32.128 c 0,-4.166 3.378,-7.545 7.545,-7.545 h 32.128 c 4.166,0 7.545,-3.378 7.545,-7.545 v -36.972 c 0,-4.166 -3.378,-7.545 -7.545,-7.545 h -32.128 c -4.166,0 -7.545,-3.378 -7.545,-7.545 v -32.128 c 0,-4.166 -3.378,-7.545 -7.545,-7.545 h -36.972 c -4.166,0 -7.545,3.378 -7.545,7.545 v 32.128 c 0,4.166 -3.378,7.545 -7.545,7.545 h -32.128 c -4.166,0 -7.545,3.378 -7.545,7.545 v 36.972 c 0,4.166 3.378,7.545 7.545,7.545 h 32.128 c 4.166,0 7.545,3.378 7.545,7.545 v 32.128 c 0,4.166 3.378,7.545 7.545,7.545 h 36.972 c 4.166,-10e-4 7.545,-3.377 7.545,-7.545 z"
     style="fill:#ffffff"
     inkscape:connector-curvature="0" /><g
     id="g50">
</g><g
     id="g52">
</g><g
     id="g54">
</g><g
     id="g56">
</g><g
     id="g58">
</g><g
     id="g60">
</g><g
     id="g62">
</g><g
     id="g64">
</g><g
     id="g66">
</g><g
     id="g68">
</g><g
     id="g70">
</g><g
     id="g72">
</g><g
     id="g74">
</g><g
     id="g76">
</g><g
     id="g78">
</g></g></svg>