<?xml version="1.0" encoding="UTF-8" standalone="no"?>
<!-- Generator: Adobe Illustrator 19.0.0, SVG Export Plug-In . SVG Version: 6.00 Build 0)  -->

<svg
   xmlns:dc="http://purl.org/dc/elements/1.1/"
   xmlns:cc="http://creativecommons.org/ns#"
   xmlns:rdf="http://www.w3.org/1999/02/22-rdf-syntax-ns#"
   xmlns:svg="http://www.w3.org/2000/svg"
   xmlns="http://www.w3.org/2000/svg"
   xmlns:sodipodi="http://sodipodi.sourceforge.net/DTD/sodipodi-0.dtd"
   xmlns:inkscape="http://www.inkscape.org/namespaces/inkscape"
   version="1.1"
   id="Capa_1"
   x="0px"
   y="0px"
   viewBox="0 0 869.51575 692.61885"
   xml:space="preserve"
   sodipodi:docname="lekarska-technika.svg"
   width="869.51575"
   height="692.61884"
   inkscape:version="0.92.4 (5da689c313, 2019-01-14)"><metadata
   id="metadata54"><rdf:RDF><cc:Work
       rdf:about=""><dc:format>image/svg+xml</dc:format><dc:type
         rdf:resource="http://purl.org/dc/dcmitype/StillImage" /><dc:title></dc:title></cc:Work></rdf:RDF></metadata><defs
   id="defs52" /><sodipodi:namedview
   pagecolor="#ffffff"
   bordercolor="#666666"
   borderopacity="1"
   objecttolerance="10"
   gridtolerance="10"
   guidetolerance="10"
   inkscape:pageopacity="0"
   inkscape:pageshadow="2"
   inkscape:window-width="1920"
   inkscape:window-height="1027"
   id="namedview50"
   showgrid="false"
   fit-margin-top="0"
   fit-margin-left="0"
   fit-margin-right="0"
   fit-margin-bottom="0"
   inkscape:zoom="0.6155933"
   inkscape:cx="409.47657"
   inkscape:cy="530.56485"
   inkscape:window-x="-8"
   inkscape:window-y="-8"
   inkscape:window-maximized="1"
   inkscape:current-layer="Capa_1" />
<g
   id="g17"
   transform="translate(217.79157,-29.631)">
	<g
   id="Guides_For_Artboard_37_">
	</g>
	<g
   id="Artwork_36_">
	</g>
	<g
   id="Layer_2_36_">
		<g
   id="g14">
			<rect
   x="136.683"
   y="63.143002"
   style="fill:none"
   width="111.465"
   height="37.297001"
   id="rect4" />
			<path
   style="fill:#1b2327"
   d="M 136.683,63.143 H 248.148 V 100.44 H 281.66 V 46.387 c 0,-9.253 -7.502,-16.756 -16.756,-16.756 H 119.927 c -9.254,0 -16.756,7.503 -16.756,16.756 v 54.053 h 33.513 V 63.143 Z"
   id="path6"
   inkscape:connector-curvature="0" />
			<path
   style="fill:#f7f1e6"
   d="M 337.728,100.44 H 281.66 248.148 136.683 103.17 45.642 C 20.434,100.44 0,120.873 0,146.081 v 162.016 c 0,25.208 20.434,45.642 45.642,45.642 h 292.086 c 25.208,0 45.642,-20.434 45.642,-45.642 V 146.082 c 0,-25.208 -20.434,-45.642 -45.642,-45.642 z M 193.354,305.561 c -40.219,0 -72.826,-32.605 -72.826,-72.825 0,-40.22 32.606,-72.825 72.826,-72.825 40.221,0 72.825,32.605 72.825,72.825 0,40.22 -32.604,72.825 -72.825,72.825 z"
   id="path8"
   inkscape:connector-curvature="0" />
			<path
   style="fill:#e74424"
   d="m 193.354,159.911 c -40.219,0 -72.826,32.605 -72.826,72.825 0,40.22 32.606,72.825 72.826,72.825 40.221,0 72.825,-32.605 72.825,-72.825 0,-40.22 -32.604,-72.825 -72.825,-72.825 z m 42.295,76.43 c 0,5.956 -4.827,10.784 -10.784,10.784 h -17.121 v 17.121 c 0,5.957 -4.828,10.785 -10.785,10.785 h -7.212 c -5.956,0 -10.785,-4.828 -10.785,-10.785 V 247.125 H 161.84 c -5.954,0 -10.784,-4.828 -10.784,-10.784 v -7.211 c 0,-5.956 4.831,-10.785 10.784,-10.785 h 17.122 v -17.121 c 0,-5.957 4.829,-10.784 10.785,-10.784 h 7.212 c 5.957,0 10.785,4.828 10.785,10.784 v 17.121 h 17.121 c 5.957,0 10.784,4.829 10.784,10.785 z"
   id="path10"
   inkscape:connector-curvature="0" />
			<path
   style="fill:#f7f1e6"
   d="m 224.865,218.345 h -17.121 v -17.121 c 0,-5.957 -4.828,-10.784 -10.785,-10.784 h -7.212 c -5.956,0 -10.785,4.828 -10.785,10.784 v 17.121 H 161.84 c -5.954,0 -10.784,4.829 -10.784,10.785 v 7.211 c 0,5.956 4.831,10.784 10.784,10.784 h 17.122 v 17.121 c 0,5.957 4.829,10.785 10.785,10.785 h 7.212 c 5.957,0 10.785,-4.828 10.785,-10.785 v -17.121 h 17.121 c 5.957,0 10.784,-4.828 10.784,-10.784 v -7.211 c 0,-5.956 -4.827,-10.785 -10.784,-10.785 z"
   id="path12"
   inkscape:connector-curvature="0" />
		</g>
	</g>
</g>
<g
   id="g19"
   transform="translate(217.79157,-29.631)">
</g>
<g
   id="g21"
   transform="translate(217.79157,-29.631)">
</g>
<g
   id="g23"
   transform="translate(217.79157,-29.631)">
</g>
<g
   id="g25"
   transform="translate(217.79157,-29.631)">
</g>
<g
   id="g27"
   transform="translate(217.79157,-29.631)">
</g>
<g
   id="g29"
   transform="translate(217.79157,-29.631)">
</g>
<g
   id="g31"
   transform="translate(217.79157,-29.631)">
</g>
<g
   id="g33"
   transform="translate(217.79157,-29.631)">
</g>
<g
   id="g35"
   transform="translate(217.79157,-29.631)">
</g>
<g
   id="g37"
   transform="translate(217.79157,-29.631)">
</g>
<g
   id="g39"
   transform="translate(217.79157,-29.631)">
</g>
<g
   id="g41"
   transform="translate(217.79157,-29.631)">
</g>
<g
   id="g43"
   transform="translate(217.79157,-29.631)">
</g>
<g
   id="g45"
   transform="translate(217.79157,-29.631)">
</g>
<g
   id="g47"
   transform="translate(217.79157,-29.631)">
</g>
<text
   xml:space="preserve"
   style="font-style:normal;font-weight:normal;font-size:176.54092407px;line-height:1.25;font-family:sans-serif;letter-spacing:0px;word-spacing:0px;fill:#000000;fill-opacity:1;stroke:none;stroke-width:4.4135232"
   x="434.45618"
   y="469.44284"
   id="text58"><tspan
     sodipodi:role="line"
     id="tspan56"
     x="434.45621"
     y="469.44284"
     style="font-style:normal;font-variant:normal;font-weight:bold;font-stretch:normal;font-family:sans-serif;-inkscape-font-specification:'sans-serif Bold';text-align:center;text-anchor:middle;stroke-width:4.4135232">Lékařská</tspan><tspan
     sodipodi:role="line"
     x="434.45621"
     y="690.11902"
     style="font-style:normal;font-variant:normal;font-weight:bold;font-stretch:normal;font-family:sans-serif;-inkscape-font-specification:'sans-serif Bold';text-align:center;text-anchor:middle;stroke-width:4.4135232"
     id="tspan60">Technika</tspan></text>

</svg>