<?xml version="1.0" encoding="UTF-8" standalone="no"?>
<!-- Generator: Adobe Illustrator 19.0.0, SVG Export Plug-In . SVG Version: 6.00 Build 0)  -->

<svg
   xmlns:dc="http://purl.org/dc/elements/1.1/"
   xmlns:cc="http://creativecommons.org/ns#"
   xmlns:rdf="http://www.w3.org/1999/02/22-rdf-syntax-ns#"
   xmlns:svg="http://www.w3.org/2000/svg"
   xmlns="http://www.w3.org/2000/svg"
   xmlns:sodipodi="http://sodipodi.sourceforge.net/DTD/sodipodi-0.dtd"
   xmlns:inkscape="http://www.inkscape.org/namespaces/inkscape"
   version="1.1"
   id="Layer_1"
   x="0px"
   y="0px"
   viewBox="0 0 1666.5646 670.96423"
   xml:space="preserve"
   sodipodi:docname="merici-technika.svg"
   width="1666.5646"
   height="670.96423"
   inkscape:version="0.92.4 (5da689c313, 2019-01-14)"><metadata
   id="metadata65"><rdf:RDF><cc:Work
       rdf:about=""><dc:format>image/svg+xml</dc:format><dc:type
         rdf:resource="http://purl.org/dc/dcmitype/StillImage" /><dc:title></dc:title></cc:Work></rdf:RDF></metadata><defs
   id="defs63" /><sodipodi:namedview
   pagecolor="#ffffff"
   bordercolor="#666666"
   borderopacity="1"
   objecttolerance="10"
   gridtolerance="10"
   guidetolerance="10"
   inkscape:pageopacity="0"
   inkscape:pageshadow="2"
   inkscape:window-width="1920"
   inkscape:window-height="1027"
   id="namedview61"
   showgrid="false"
   fit-margin-top="0"
   fit-margin-left="0"
   fit-margin-right="0"
   fit-margin-bottom="0"
   inkscape:zoom="0.32593204"
   inkscape:cx="1532.8273"
   inkscape:cy="388.64951"
   inkscape:window-x="-8"
   inkscape:window-y="-8"
   inkscape:window-maximized="1"
   inkscape:current-layer="Layer_1" />
<path
   style="fill:#f26924"
   d="m 784.83153,277.113 c -14.568,0 -26.392,11.824 -26.392,26.392 0,14.568 11.824,26.392 26.392,26.392 14.568,0 26.392,-11.824 26.392,-26.392 0,-14.568 -11.824,-26.392 -26.392,-26.392 z m 0,-195.299 c 84.559,0 153.072,68.513 153.072,153.072 0,84.559 -68.513,153.073 -153.072,153.073 -84.559,0 -153.072,-68.513 -153.072,-153.072 0,-84.559 68.513,-153.073 153.072,-153.073 z"
   id="path2"
   inkscape:connector-curvature="0" />
<path
   style="fill:#7e8488"
   d="m 827.05853,430.925 v 73.158 h -84.454 v -73.158 c -90.471,-19.425 -158.35,-99.761 -158.35,-196.038 0,-99.972 73.264,-182.631 168.907,-197.833 V 7.918 h 63.34 v 29.136 c 95.644,15.202 168.907,97.861 168.907,197.833 0,96.277 -67.879,176.613 -158.35,196.038 z m 110.845,-196.038 c 0,-84.559 -68.513,-153.072 -153.072,-153.072 -84.559,0 -153.072,68.513 -153.072,153.072 0,84.559 68.513,153.072 153.072,153.072 84.559,0 153.072,-68.513 153.072,-153.072 z"
   id="path4"
   inkscape:connector-curvature="0" />
<path
   style="fill:#5a5f62"
   d="m 631.75953,234.887 c 0,-84.559 68.513,-153.072 153.072,-153.072 V 7.918 h -31.67 v 29.136 c -95.644,15.202 -168.907,97.861 -168.907,197.833 0,96.277 67.88,176.614 158.351,196.038 v 73.158 h 42.226 V 387.959 c -84.559,0 -153.072,-68.513 -153.072,-153.072 z"
   id="path6"
   inkscape:connector-curvature="0" />
<path
   style="fill:#f04e25"
   d="m 758.43953,303.505 c 0,-14.568 11.824,-26.392 26.392,-26.392 V 81.814 c -84.559,0 -153.072,68.513 -153.072,153.072 0,84.559 68.513,153.073 153.072,153.073 v -58.062 c -14.568,0 -26.392,-11.824 -26.392,-26.392 z"
   id="path8"
   inkscape:connector-curvature="0" />
<g
   id="g18"
   transform="translate(528.83153)">
	<path
   style="fill:#ffffff"
   d="m 256,277.113 c -14.568,0 -26.392,11.824 -26.392,26.392 0,14.568 11.824,26.392 26.392,26.392 14.568,0 26.392,-11.824 26.392,-26.392 0,-14.568 -11.824,-26.392 -26.392,-26.392 z"
   id="path10"
   inkscape:connector-curvature="0" />
	<rect
   x="234.88699"
   y="432.82501"
   style="fill:#ffffff"
   width="42.227001"
   height="15.835"
   id="rect12" />
	<rect
   x="234.88699"
   y="464.495"
   style="fill:#ffffff"
   width="42.227001"
   height="15.835"
   id="rect14" />
	<path
   style="fill:#ffffff"
   d="m 256,110.845 c -68.397,0 -124.041,55.644 -124.041,124.041 v 7.918 h 44.866 V 226.969 H 148.08 c 1.639,-22.571 10.238,-43.242 23.648,-59.879 l 25.889,25.889 11.196,-11.196 -26.273,-26.273 c 17.495,-16.201 40.332,-26.711 65.541,-28.542 v 34.022 h 15.835 v -34.022 c 25.208,1.832 48.047,12.341 65.541,28.542 l -26.273,26.274 11.196,11.196 25.889,-25.889 c 13.41,16.636 22.009,37.307 23.648,59.879 h -28.743 v 15.835 h 44.866 v -7.918 C 380.041,166.49 324.397,110.845 256,110.845 Z"
   id="path16"
   inkscape:connector-curvature="0" />
</g>
<path
   d="m 784.83153,73.897 c -88.77,0 -160.99,72.219 -160.99,160.99 0,88.771 72.22,160.989 160.99,160.989 88.77,0 160.99,-72.219 160.99,-160.99 0,-88.771 -72.22,-160.989 -160.99,-160.989 z m 0,306.144 c -80.039,0 -145.155,-65.116 -145.155,-145.155 0,-80.039 65.116,-145.154 145.155,-145.154 80.039,0 145.155,65.116 145.155,145.155 0,80.039 -65.116,145.154 -145.155,145.154 z"
   id="path20"
   inkscape:connector-curvature="0" />
<path
   d="m 942.81453,99.007 c -30.714,-35.574 -72.545,-59.76 -118.396,-68.599 V 0 h -79.175 v 30.409 c -45.851,8.839 -87.682,33.026 -118.396,68.599 -32.573,37.728 -50.512,85.983 -50.512,135.88 0,47.97 16.706,94.796 47.04,131.853 28.533,34.858 67.865,59.714 111.311,70.48 V 512 h 100.289 v -74.78 c 43.446,-10.765 82.778,-35.621 111.311,-70.48 30.334,-37.057 47.04,-83.884 47.04,-131.853 0,-49.897 -17.939,-98.152 -50.512,-135.88 z m -8.781,257.703 c -27.632,33.757 -66.214,57.365 -108.637,66.473 l -6.256,1.344 v 71.638 h -68.619 v -71.638 l -6.256,-1.343 c -42.423,-9.108 -81.005,-32.716 -108.637,-66.473 -28.023,-34.237 -43.457,-77.501 -43.457,-121.824 0,-46.098 16.572,-90.679 46.663,-125.531 29.757,-34.467 70.802,-57.366 115.569,-64.482 l 6.675,-1.061 V 15.835 h 47.505 v 27.977 l 6.675,1.061 c 44.769,7.115 85.812,30.016 115.571,64.482 30.09,34.852 46.662,79.433 46.662,125.531 0,44.324 -15.434,87.588 -43.458,121.824 z"
   id="path22"
   inkscape:connector-curvature="0" />
<path
   d="m 792.74953,270.128 v -93.303 h -15.835 v 93.303 c -15.112,3.585 -26.392,17.184 -26.392,33.377 0,18.918 15.392,34.309 34.309,34.309 18.917,0 34.309,-15.392 34.309,-34.309 0,-16.193 -11.28,-29.792 -26.391,-33.377 z m -7.918,51.851 c -10.186,0 -18.474,-8.288 -18.474,-18.474 0,-10.186 8.288,-18.474 18.474,-18.474 10.186,0 18.474,8.288 18.474,18.474 0,10.186 -8.288,18.474 -18.474,18.474 z"
   id="path24"
   inkscape:connector-curvature="0" />
<rect
   x="684.54254"
   y="263.918"
   width="21.113001"
   height="15.835"
   id="rect26" />
<rect
   x="864.00653"
   y="263.918"
   width="21.113001"
   height="15.835"
   id="rect28" />
<g
   id="g30"
   transform="translate(528.83153)">
</g>
<g
   id="g32"
   transform="translate(528.83153)">
</g>
<g
   id="g34"
   transform="translate(528.83153)">
</g>
<g
   id="g36"
   transform="translate(528.83153)">
</g>
<g
   id="g38"
   transform="translate(528.83153)">
</g>
<g
   id="g40"
   transform="translate(528.83153)">
</g>
<g
   id="g42"
   transform="translate(528.83153)">
</g>
<g
   id="g44"
   transform="translate(528.83153)">
</g>
<g
   id="g46"
   transform="translate(528.83153)">
</g>
<g
   id="g48"
   transform="translate(528.83153)">
</g>
<g
   id="g50"
   transform="translate(528.83153)">
</g>
<g
   id="g52"
   transform="translate(528.83153)">
</g>
<g
   id="g54"
   transform="translate(528.83153)">
</g>
<g
   id="g56"
   transform="translate(528.83153)">
</g>
<g
   id="g58"
   transform="translate(528.83153)">
</g>
<text
   xml:space="preserve"
   style="font-style:normal;font-weight:normal;font-size:196.3710022px;line-height:1.25;font-family:sans-serif;letter-spacing:0px;word-spacing:0px;fill:#000000;fill-opacity:1;stroke:none;stroke-width:4.90927553"
   x="-18.026245"
   y="668.18359"
   id="text3773"><tspan
     sodipodi:role="line"
     id="tspan3771"
     x="-18.026245"
     y="668.18359"
     style="font-style:normal;font-variant:normal;font-weight:bold;font-stretch:normal;font-family:sans-serif;-inkscape-font-specification:'sans-serif Bold';stroke-width:4.90927553">Měřící technika</tspan></text>

</svg>