<?xml version="1.0" encoding="UTF-8" standalone="no"?>
<!-- Generator: Adobe Illustrator 19.0.0, SVG Export Plug-In . SVG Version: 6.00 Build 0)  -->

<svg
   xmlns:dc="http://purl.org/dc/elements/1.1/"
   xmlns:cc="http://creativecommons.org/ns#"
   xmlns:rdf="http://www.w3.org/1999/02/22-rdf-syntax-ns#"
   xmlns:svg="http://www.w3.org/2000/svg"
   xmlns="http://www.w3.org/2000/svg"
   xmlns:sodipodi="http://sodipodi.sourceforge.net/DTD/sodipodi-0.dtd"
   xmlns:inkscape="http://www.inkscape.org/namespaces/inkscape"
   version="1.1"
   id="Layer_1"
   x="0px"
   y="0px"
   viewBox="0 0 1500.1506 661.43177"
   xml:space="preserve"
   sodipodi:docname="merici-technika-2.svg"
   width="1500.1506"
   height="661.43176"
   inkscape:version="0.92.4 (5da689c313, 2019-01-14)"><metadata
   id="metadata65"><rdf:RDF><cc:Work
       rdf:about=""><dc:format>image/svg+xml</dc:format><dc:type
         rdf:resource="http://purl.org/dc/dcmitype/StillImage" /><dc:title></dc:title></cc:Work></rdf:RDF></metadata><defs
   id="defs63" /><sodipodi:namedview
   pagecolor="#ffffff"
   bordercolor="#666666"
   borderopacity="1"
   objecttolerance="10"
   gridtolerance="10"
   guidetolerance="10"
   inkscape:pageopacity="0"
   inkscape:pageshadow="2"
   inkscape:window-width="1920"
   inkscape:window-height="1027"
   id="namedview61"
   showgrid="false"
   fit-margin-top="0"
   fit-margin-left="0"
   fit-margin-right="0"
   fit-margin-bottom="0"
   inkscape:zoom="0.46093751"
   inkscape:cx="934.4927"
   inkscape:cy="314.87914"
   inkscape:window-x="-8"
   inkscape:window-y="-8"
   inkscape:window-maximized="1"
   inkscape:current-layer="Layer_1" />










<g
   id="g30"
   transform="translate(451.92135,5.00316)">
</g>
<g
   id="g32"
   transform="translate(451.92135,5.00316)">
</g>
<g
   id="g34"
   transform="translate(451.92135,5.00316)">
</g>
<g
   id="g36"
   transform="translate(451.92135,5.00316)">
</g>
<g
   id="g38"
   transform="translate(451.92135,5.00316)">
</g>
<g
   id="g40"
   transform="translate(451.92135,5.00316)">
</g>
<g
   id="g42"
   transform="translate(451.92135,5.00316)">
</g>
<g
   id="g44"
   transform="translate(451.92135,5.00316)">
</g>
<g
   id="g46"
   transform="translate(451.92135,5.00316)">
</g>
<g
   id="g48"
   transform="translate(451.92135,5.00316)">
</g>
<g
   id="g50"
   transform="translate(451.92135,5.00316)">
</g>
<g
   id="g52"
   transform="translate(451.92135,5.00316)">
</g>
<g
   id="g54"
   transform="translate(451.92135,5.00316)">
</g>
<g
   id="g56"
   transform="translate(451.92135,5.00316)">
</g>
<g
   id="g58"
   transform="translate(451.92135,5.00316)">
</g>
<text
   xml:space="preserve"
   style="font-style:normal;font-weight:normal;font-size:176.76246643px;line-height:1.25;font-family:sans-serif;letter-spacing:0px;word-spacing:0px;fill:#000000;fill-opacity:1;stroke:none;stroke-width:4.41906214"
   x="-16.226242"
   y="658.92877"
   id="text3773"><tspan
     sodipodi:role="line"
     id="tspan3771"
     x="-16.226242"
     y="658.92877"
     style="font-style:normal;font-variant:normal;font-weight:bold;font-stretch:normal;font-family:sans-serif;-inkscape-font-specification:'sans-serif Bold';stroke-width:4.41906214">Měřící technika</tspan></text>


<g
   id="g146"
   transform="translate(474.22507)"><polygon
     id="polygon37"
     points="345.465,473.576 328.219,443.238 268.242,443.238 266.684,443.238 245.316,443.238 243.758,443.238 183.781,443.238 166.535,473.576 243.758,473.576 245.316,473.576 266.684,473.576 268.242,473.576 "
     style="fill:#36a1cb" /><path
     id="path39"
     d="m 202.313,482.264 c -0.998,-1.928 -0.965,-4.226 0.093,-6.122 l 15.772,-28.308 c 1.262,-2.268 3.758,-3.559 6.338,-3.282 l -26.259,-2.811 c -2.579,-0.277 -5.075,1.014 -6.337,3.282 l -15.773,28.308 c -1.055,1.896 -1.091,4.194 -0.093,6.122 0.998,1.927 2.897,3.225 5.054,3.456 l 26.258,2.812 c -2.156,-0.232 -4.055,-1.53 -5.053,-3.457 z"
     style="fill:#2393b5"
     inkscape:connector-curvature="0" /><path
     id="path41"
     d="m 390.766,253.912 c 9.308,-19.458 14.522,-41.233 14.522,-64.203 0,-82.318 -66.971,-149.288 -149.288,-149.288 -82.317,0 -149.288,66.971 -149.288,149.288 0,82.317 66.97,149.289 149.288,149.289 49.49,0 93.432,-24.206 120.61,-61.401"
     style="fill:#dfdbcc"
     inkscape:connector-curvature="0" /><path
     id="path43"
     d="M 256,371.335 C 155.851,371.335 74.375,289.859 74.375,189.71 74.375,89.561 155.851,8.084 256,8.084 c 100.147,0 181.625,81.477 181.625,181.625 0,100.15 -81.478,181.626 -181.625,181.626 z M 390.766,253.912 c 9.308,-19.458 14.522,-41.233 14.522,-64.203 0,-82.318 -66.971,-149.288 -149.288,-149.288 -82.317,0 -149.288,66.971 -149.288,149.288 0,82.317 66.97,149.289 149.288,149.289 49.49,0 93.432,-24.206 120.61,-61.401"
     style="fill:#ccc3a8"
     inkscape:connector-curvature="0" /><path
     id="path45"
     d="m 372.452,291.535 c 4.173,-4.455 8.084,-9.154 11.693,-14.092 l 14.156,-23.684 c 9.308,-19.458 14.522,-41.233 14.522,-64.203 0,-72.705 -52.246,-133.426 -121.162,-146.62 -49.979,18.402 -85.72,66.495 -85.72,122.781 0,72.114 58.67,130.784 130.784,130.784 12.384,0 24.368,-1.737 35.727,-4.966 z"
     style="fill:#e5e2dc"
     inkscape:connector-curvature="0" /><path
     id="path47"
     d="m 154.483,83.847 13.142,17.183 c 0,0 -39.011,49.513 -40.628,84.456 H 110.29 c -0.001,0 4.85,-63.601 44.193,-101.639 z"
     style="fill:#36a1cb"
     inkscape:connector-curvature="0" /><path
     id="path49"
     d="m 253.712,39.741 -1.076,21.605 c 0,0 -61.77,12.574 -85.585,38.194 l -12.75,-10.797 c 0,0 44.804,-45.401 99.411,-49.002 z"
     style="fill:#4baf78"
     inkscape:connector-curvature="0" /><path
     id="path51"
     d="m 361.181,81.511 -16.068,14.484 c 0,0 -52.496,-34.896 -87.456,-33.692 L 256.312,45.65 c 0,0 63.785,-0.289 104.869,35.861 z"
     style="fill:#ffb92e"
     inkscape:connector-curvature="0" /><path
     id="path53"
     d="m 403.363,186.263 -21.56,-1.761 c 0,0 -10.606,-62.136 -35.457,-86.753 l 11.196,-12.4 c -10e-4,-0.001 43.954,46.222 45.821,100.914 z"
     style="fill:#ea6428"
     inkscape:connector-curvature="0" /><path
     id="path55"
     d="m 248.914,221.658 c -0.042,-0.018 -0.091,-0.029 -0.135,-0.046 -0.156,-0.059 -0.312,-0.126 -0.468,-0.19 -0.154,-0.061 -0.307,-0.121 -0.459,-0.189 -0.086,-0.038 -0.172,-0.08 -0.259,-0.117 -0.215,-0.099 -0.429,-0.198 -0.64,-0.303 -0.055,-0.026 -0.108,-0.055 -0.162,-0.084 -0.234,-0.12 -0.468,-0.244 -0.695,-0.374 -0.053,-0.028 -0.103,-0.059 -0.154,-0.087 -0.221,-0.128 -0.44,-0.259 -0.652,-0.393 -0.068,-0.043 -0.133,-0.087 -0.198,-0.128 -0.192,-0.125 -0.382,-0.251 -0.564,-0.382 -0.091,-0.066 -0.181,-0.129 -0.272,-0.195 -0.152,-0.112 -0.305,-0.226 -0.457,-0.342 -0.115,-0.092 -0.232,-0.186 -0.347,-0.281 -0.117,-0.094 -0.232,-0.19 -0.345,-0.285 -0.146,-0.125 -0.287,-0.251 -0.427,-0.379 -0.08,-0.074 -0.162,-0.15 -0.245,-0.224 -0.164,-0.157 -0.327,-0.316 -0.486,-0.479 -0.053,-0.054 -0.11,-0.11 -0.164,-0.166 -0.177,-0.183 -0.347,-0.371 -0.517,-0.561 -0.038,-0.045 -0.078,-0.088 -0.115,-0.134 -0.172,-0.197 -0.341,-0.4 -0.508,-0.606 -0.038,-0.047 -0.075,-0.094 -0.112,-0.141 -0.148,-0.186 -0.289,-0.377 -0.427,-0.567 -0.055,-0.077 -0.113,-0.153 -0.166,-0.231 -0.097,-0.135 -0.188,-0.274 -0.278,-0.411 -0.093,-0.14 -0.19,-0.279 -0.278,-0.421 -0.025,-0.04 -0.049,-0.083 -0.073,-0.122 -3.331,-5.414 -3.863,-12.376 -0.791,-18.469 l 0.324,-0.642 c 1.181,-2.14 2.8,-4.087 4.838,-5.7 l 67.244,-53.14 -38.581,76.534 c -1.171,2.32 -2.752,4.294 -4.612,5.883 l -0.564,0.444 c -5.354,4.233 -12.285,5.107 -18.255,2.928 z"
     style="fill:#e35f46"
     inkscape:connector-curvature="0" /><path
     id="path57"
     d="m 256,371.335 c -6.185,0 -12.297,-0.314 -18.324,-0.919 v 72.823 h 36.648 v -72.823 c -6.027,0.605 -12.141,0.919 -18.324,0.919 z"
     style="fill:#7c7a75"
     inkscape:connector-curvature="0" /><path
     id="path59"
     d="m 419.926,503.916 h 70.48 c 7.461,0 13.509,-6.048 13.509,-13.509 v -3.32 c 0,-7.461 -6.048,-13.509 -13.509,-13.509 h -81.2 -306.413 -81.2 c -7.461,0 -13.509,6.048 -13.509,13.509 v 3.32 c 0,7.461 6.048,13.509 13.509,13.509 h 81.2 289.825"
     style="fill:#ccc3a8"
     inkscape:connector-curvature="0" /><path
     id="path61"
     d="m 37.896,490.25 v -3.318 c 0,-7.463 6.048,-13.511 13.51,-13.511 H 50.687 29.129 c -7.462,0 -13.51,6.048 -13.51,13.511 v 3.318 c 0,7.463 6.048,13.511 13.51,13.511 h 21.558 0.719 c -7.461,10e-4 -13.51,-6.047 -13.51,-13.511 z"
     style="fill:#c9b585"
     inkscape:connector-curvature="0" /><g
     id="g73">
	<path
   id="path63"
   d="m 256,347.082 c 49.999,0 97.527,-24.192 127.137,-64.716 2.633,-3.606 1.848,-8.663 -1.758,-11.296 -3.606,-2.634 -8.662,-1.846 -11.296,1.758 -26.577,36.37 -69.225,58.086 -114.082,58.086 -75.491,0 -137.335,-59.549 -141.027,-134.141 h 21.979 c 4.466,0 8.084,-3.62 8.084,-8.084 0,-3.539 -2.277,-6.538 -5.442,-7.634 1.777,-26.632 12.285,-50.642 28.688,-69.284 1.115,0.543 2.325,0.822 3.538,0.822 2.068,0 4.138,-0.789 5.717,-2.368 2.496,-2.496 3.011,-6.218 1.558,-9.228 18.747,-16.364 42.828,-26.757 69.381,-28.419 1.176,3.011 4.098,5.146 7.525,5.146 3.423,0 6.342,-2.13 7.522,-5.135 26.239,1.719 50.327,12.353 69.162,28.891 -1.176,2.917 -0.582,6.379 1.781,8.743 1.579,1.578 3.649,2.368 5.717,2.368 1.041,0 2.083,-0.202 3.061,-0.601 16.608,18.736 27.357,42.76 29.161,69.066 -3.163,1.097 -5.437,4.095 -5.437,7.632 0,4.465 3.618,8.084 8.084,8.084 h 21.973 c -0.913,18.707 -5.454,36.725 -13.549,53.651 -1.926,4.028 -0.223,8.855 3.804,10.781 4.026,1.927 8.854,0.224 10.781,-3.804 10.16,-21.242 15.313,-44.017 15.313,-67.691 0,-86.776 -70.597,-157.373 -157.373,-157.373 -86.776,0 -157.375,70.598 -157.375,157.373 0,86.775 70.597,157.373 157.373,157.373 z M 151.133,95.256 l 5.577,5.577 c -19.766,22.193 -31.427,50.068 -33.289,79.773 h -8.324 c 2.093,-32.709 15.365,-62.423 36.036,-85.35 z m 245.769,85.348 h -8.324 c -1.86,-29.702 -13.512,-57.573 -33.288,-79.773 l 5.576,-5.576 c 20.672,22.926 33.944,52.641 36.036,85.349 z M 343.837,89.419 c -22.29,-19.705 -50.156,-31.221 -79.752,-33 v -7.677 c 32.599,1.85 62.271,14.807 85.288,35.14 z m -95.921,-33 c -29.589,1.78 -57.461,13.298 -79.751,33.002 l -5.538,-5.538 c 23.017,-20.332 52.69,-33.291 85.29,-35.14 v 7.676 z"
   style="fill:#231f20"
   inkscape:connector-curvature="0" />
	<path
   id="path65"
   d="m 316.035,129.606 c -2.942,-2.398 -7.149,-2.431 -10.125,-0.08 l -67.249,53.143 c -2.839,2.247 -5.161,4.984 -6.899,8.133 -0.047,0.087 -0.094,0.175 -0.139,0.263 l -0.327,0.646 c -4.251,8.432 -3.834,18.276 1.118,26.333 0.036,0.059 0.077,0.127 0.102,0.168 0.112,0.179 0.227,0.355 0.345,0.529 l 0.086,0.128 c 0.12,0.183 0.244,0.366 0.372,0.548 0.071,0.102 0.151,0.212 0.251,0.349 0.189,0.259 0.38,0.516 0.579,0.77 0.057,0.073 0.119,0.152 0.198,0.249 0.237,0.294 0.477,0.583 0.723,0.863 l 0.019,0.022 c 0.055,0.065 0.11,0.127 0.165,0.19 0.235,0.26 0.47,0.516 0.703,0.759 l 0.216,0.22 c 0.222,0.226 0.446,0.447 0.675,0.664 0.047,0.045 0.095,0.089 0.143,0.134 l 0.244,0.223 c 0.195,0.178 0.389,0.351 0.591,0.525 0.032,0.028 0.116,0.099 0.151,0.127 0.141,0.117 0.283,0.236 0.429,0.352 l 0.378,0.305 c 0.035,0.028 0.07,0.055 0.106,0.082 0.191,0.146 0.383,0.29 0.637,0.475 l 0.334,0.239 c 0.262,0.185 0.532,0.366 0.806,0.546 0.04,0.026 0.058,0.038 0.098,0.064 0.037,0.024 0.16,0.105 0.197,0.127 0.3,0.19 0.607,0.375 0.99,0.596 l 0.12,0.068 v 0 c 0.315,0.181 0.638,0.354 0.961,0.521 0.114,0.061 0.227,0.12 0.342,0.176 0.275,0.137 0.555,0.267 0.834,0.397 0.044,0.02 0.069,0.031 0.113,0.052 l 0.246,0.111 c 0.234,0.105 0.471,0.201 0.803,0.334 0.181,0.075 0.363,0.149 0.53,0.212 0.105,0.04 0.21,0.078 0.318,0.114 2.963,1.07 6.064,1.614 9.218,1.614 6.047,0 11.993,-2.068 16.729,-5.813 l 0.564,-0.444 c 0.084,-0.066 0.166,-0.134 0.247,-0.203 2.737,-2.336 4.952,-5.159 6.583,-8.394 l 38.581,-76.534 c 1.709,-3.387 0.833,-7.505 -2.106,-9.903 z m -50.91,79.156 c -0.637,1.263 -1.491,2.368 -2.538,3.285 l -0.433,0.342 c -1.934,1.53 -4.256,2.338 -6.714,2.338 -1.272,0 -2.521,-0.218 -3.714,-0.649 -0.046,-0.017 -0.093,-0.034 -0.14,-0.051 l -0.236,-0.097 c -0.019,-0.008 -0.092,-0.037 -0.111,-0.044 l -0.261,-0.112 v 0 c -0.128,-0.059 -0.257,-0.116 -0.383,-0.179 -0.036,-0.019 -0.072,-0.039 -0.11,-0.057 -0.122,-0.063 -0.245,-0.125 -0.363,-0.193 -0.03,-0.018 -0.063,-0.036 -0.093,-0.053 -0.013,-0.008 -0.027,-0.016 -0.042,-0.024 -0.124,-0.072 -0.247,-0.146 -0.346,-0.208 l -0.123,-0.08 c -0.11,-0.071 -0.218,-0.142 -0.26,-0.171 l -0.686,-0.517 c -0.028,-0.024 -0.061,-0.05 -0.089,-0.072 l -0.511,-0.451 c -0.084,-0.081 -0.167,-0.163 -0.249,-0.247 -0.015,-0.015 -0.107,-0.107 -0.121,-0.122 -0.098,-0.101 -0.193,-0.206 -0.288,-0.312 -0.027,-0.032 -0.056,-0.066 -0.084,-0.098 -0.095,-0.108 -0.186,-0.22 -0.305,-0.366 -0.017,-0.022 -0.033,-0.043 -0.051,-0.065 -0.082,-0.103 -0.158,-0.21 -0.184,-0.244 l -0.117,-0.162 c -0.015,-0.02 -0.029,-0.042 -0.048,-0.068 l -0.245,-0.366 c 0,0 -0.022,-0.032 -0.039,-0.059 -0.015,-0.024 -0.03,-0.048 -0.045,-0.073 -1.996,-3.244 -2.168,-7.205 -0.46,-10.589 l 0.247,-0.492 c 0.689,-1.213 1.601,-2.274 2.711,-3.152 l 38.551,-30.465 z"
   style="fill:#231f20"
   inkscape:connector-curvature="0" />
	<path
   id="path67"
   d="m 300.936,260.155 c 0,-4.465 -3.618,-8.084 -8.084,-8.084 h -73.297 c -4.466,0 -8.084,3.62 -8.084,8.084 0,4.465 3.618,8.084 8.084,8.084 h 73.297 c 4.466,0 8.084,-3.618 8.084,-8.084 z"
   style="fill:#231f20"
   inkscape:connector-curvature="0" />
	<path
   id="path69"
   d="m 237.676,280.301 c -4.466,0 -8.084,3.618 -8.084,8.084 0,4.466 3.618,8.084 8.084,8.084 h 36.648 c 4.466,0 8.084,-3.618 8.084,-8.084 0,-4.466 -3.618,-8.084 -8.084,-8.084 z"
   style="fill:#231f20"
   inkscape:connector-curvature="0" />
	<path
   id="path71"
   d="M 490.407,465.492 H 350.169 l -14.921,-26.25 c -1.437,-2.529 -4.121,-4.09 -7.029,-4.09 H 282.408 V 377.571 C 374.557,364.679 445.709,285.354 445.709,189.709 445.709,85.103 360.606,0 256,0 151.394,0 66.291,85.103 66.291,189.709 c 0,95.645 71.152,174.97 163.301,187.862 v 57.581 h -45.811 c -2.907,0 -5.592,1.561 -7.029,4.09 l -14.921,26.25 H 21.593 C 9.687,465.492 0,475.18 0,487.085 v 3.32 C 0,502.312 9.687,512 21.593,512 h 371.025 c 4.466,0 8.084,-3.618 8.084,-8.084 0,-4.466 -3.618,-8.084 -8.084,-8.084 H 21.593 c -2.991,0 -5.425,-2.434 -5.425,-5.425 v -3.32 c 0,-2.991 2.434,-5.425 5.425,-5.425 h 144.941 178.93 144.941 c 2.991,0 5.425,2.434 5.425,5.425 v 3.32 c 0,2.991 -2.434,5.425 -5.425,5.425 h -70.48 c -4.466,0 -8.084,3.618 -8.084,8.084 0,4.466 3.619,8.084 8.085,8.084 h 70.48 c 11.906,0 21.593,-9.687 21.593,-21.593 v -3.32 C 512,475.18 502.313,465.492 490.407,465.492 Z M 82.459,189.709 C 82.459,94.018 160.31,16.168 256,16.168 c 95.69,0 173.541,77.85 173.541,173.541 0,89.942 -68.778,164.115 -156.502,172.704 -11.291,1.104 -22.792,1.104 -34.083,0 C 151.235,353.822 82.459,279.65 82.459,189.709 Z M 245.76,379.143 c 0.039,0.002 0.079,0.002 0.117,0.004 1.494,0.079 2.993,0.137 4.496,0.181 0.184,0.005 0.369,0.016 0.553,0.022 1.686,0.044 3.377,0.069 5.074,0.069 1.697,0 3.388,-0.025 5.074,-0.069 0.184,-0.005 0.369,-0.015 0.553,-0.022 1.503,-0.044 3.002,-0.102 4.496,-0.181 0.039,-0.002 0.079,-0.002 0.117,-0.004 v 56.011 h -20.48 z m -65.33,86.349 8.055,-14.171 h 49.191 36.648 49.192 l 8.055,14.171 z"
   style="fill:#231f20"
   inkscape:connector-curvature="0" />
</g><g
     id="g75">
</g><g
     id="g77">
</g><g
     id="g79">
</g><g
     id="g81">
</g><g
     id="g83">
</g><g
     id="g85">
</g><g
     id="g87">
</g><g
     id="g89">
</g><g
     id="g91">
</g><g
     id="g93">
</g><g
     id="g95">
</g><g
     id="g97">
</g><g
     id="g99">
</g><g
     id="g101">
</g><g
     id="g103">
</g></g></svg>