<?xml version="1.0" encoding="UTF-8" standalone="no"?>
<!-- Generator: Adobe Illustrator 19.0.0, SVG Export Plug-In . SVG Version: 6.00 Build 0)  -->

<svg
   xmlns:dc="http://purl.org/dc/elements/1.1/"
   xmlns:cc="http://creativecommons.org/ns#"
   xmlns:rdf="http://www.w3.org/1999/02/22-rdf-syntax-ns#"
   xmlns:svg="http://www.w3.org/2000/svg"
   xmlns="http://www.w3.org/2000/svg"
   xmlns:sodipodi="http://sodipodi.sourceforge.net/DTD/sodipodi-0.dtd"
   xmlns:inkscape="http://www.inkscape.org/namespaces/inkscape"
   version="1.1"
   id="Layer_1"
   x="0px"
   y="0px"
   viewBox="0 0 1651.7786 580.97822"
   xml:space="preserve"
   sodipodi:docname="nabor-absolventu-2.svg"
   width="1651.7786"
   height="580.97821"
   inkscape:version="0.92.4 (5da689c313, 2019-01-14)"><metadata
   id="metadata95"><rdf:RDF><cc:Work
       rdf:about=""><dc:format>image/svg+xml</dc:format><dc:type
         rdf:resource="http://purl.org/dc/dcmitype/StillImage" /><dc:title></dc:title></cc:Work></rdf:RDF></metadata><defs
   id="defs93" /><sodipodi:namedview
   pagecolor="#ffffff"
   bordercolor="#666666"
   borderopacity="1"
   objecttolerance="10"
   gridtolerance="10"
   guidetolerance="10"
   inkscape:pageopacity="0"
   inkscape:pageshadow="2"
   inkscape:window-width="1920"
   inkscape:window-height="1027"
   id="namedview91"
   showgrid="false"
   fit-margin-top="0"
   fit-margin-left="0"
   fit-margin-right="0"
   fit-margin-bottom="0"
   inkscape:zoom="0.33102478"
   inkscape:cx="406.72668"
   inkscape:cy="381.7489"
   inkscape:window-x="-8"
   inkscape:window-y="-8"
   inkscape:window-maximized="1"
   inkscape:current-layer="Layer_1" />

















<g
   id="g60"
   transform="translate(489.91461,69.711449)">
</g>
<g
   id="g62"
   transform="translate(489.91461,69.711449)">
</g>
<g
   id="g64"
   transform="translate(489.91461,69.711449)">
</g>
<g
   id="g66"
   transform="translate(489.91461,69.711449)">
</g>
<g
   id="g68"
   transform="translate(489.91461,69.711449)">
</g>
<g
   id="g70"
   transform="translate(489.91461,69.711449)">
</g>
<g
   id="g72"
   transform="translate(489.91461,69.711449)">
</g>
<g
   id="g74"
   transform="translate(489.91461,69.711449)">
</g>
<g
   id="g76"
   transform="translate(489.91461,69.711449)">
</g>
<g
   id="g78"
   transform="translate(489.91461,69.711449)">
</g>
<g
   id="g80"
   transform="translate(489.91461,69.711449)">
</g>
<g
   id="g82"
   transform="translate(489.91461,69.711449)">
</g>
<g
   id="g84"
   transform="translate(489.91461,69.711449)">
</g>
<g
   id="g86"
   transform="translate(489.91461,69.711449)">
</g>
<g
   id="g88"
   transform="translate(489.91461,69.711449)">
</g>
<text
   xml:space="preserve"
   style="font-style:normal;font-variant:normal;font-weight:bold;font-stretch:normal;font-size:166.26573181px;line-height:1.25;font-family:sans-serif;-inkscape-font-specification:'sans-serif Bold';text-align:center;letter-spacing:0px;word-spacing:0px;text-anchor:middle;fill:#ff5555;fill-opacity:1;stroke:none;stroke-width:4.15664339"
   x="825.32098"
   y="146.53792"
   id="text99"><tspan
     sodipodi:role="line"
     x="825.32098"
     y="146.53792"
     id="tspan101"
     style="fill:#ff5555;stroke-width:4.15664339">Nábor Absolventů</tspan></text>


<path
   id="path52-0"
   d="M 958.1826,418.8483 V 580.97819 H 610.0071 V 525.54246 H 722.19689 V 475.64579 H 827.70471 V 418.8483 Z M 713.57999,190.07259 c 0,16.12213 13.06863,29.19076 29.19079,29.19076 16.12214,0 29.19077,-13.06863 29.19077,-29.19076 0,-16.12216 -13.06863,-29.19079 -29.19077,-29.19079 -16.12216,0 -29.19079,13.06863 -29.19079,29.19079 z M 846.8717,331.27598 c -2.81382,6.50652 -10.55009,9.14317 -17.05661,6.15393 l -54.16083,-25.49808 c -3.16469,-1.40691 -5.80307,-4.22074 -6.85738,-7.56083 l -9.14493,-25.84894 -12.66045,63.33353 42.71622,0.87889 c 9.14318,0.17543 16.35317,7.91343 16.17773,17.05661 l -2.28579,88.58148 c -0.17543,9.14319 -7.73626,16.35317 -16.70575,16.35317 0,0 -0.17544,0 -0.35261,0 -9.32034,-0.17543 -16.52857,-7.91344 -16.35315,-17.05662 l 1.93494,-72.0529 -53.26805,-1.23148 -12.3096,60.98869 c -0.52802,2.46122 -1.58233,5.09961 -2.98924,7.20997 l -45.54915,65.51859 c -5.80307,8.43973 -17.05661,10.19923 -25.49807,4.39616 -8.26429,-5.80307 -10.19923,-17.05662 -4.22073,-25.32264 l 43.26335,-61.65046 27.72655,-157.11363 -55.16129,50.94056 c -0.96574,0.89104 -2.03742,1.59624 -3.16642,2.126 l 5.16214,5.16215 -15.07652,15.07651 25.12638,25.12637 -20.10145,20.10144 -80.40578,-80.40751 20.10144,-20.10145 25.12638,25.12637 15.07651,-15.0765 8.41194,8.41018 c 0.64092,-1.37218 1.5337,-2.65228 2.69745,-3.7587 l 69.09491,-65.60197 c 9.11886,-7.84742 23.74725,-12.58229 36.40945,-10.47192 l 11.95699,2.2858 c 16.0023,2.81381 28.31015,13.7165 33.41151,27.9593 l 13.01305,35.6973 49.41207,23.21228 c 6.50479,2.81556 9.3186,10.55182 6.50479,17.05835 z m -213.3223,-4.63585 -17.58986,-17.58987 -8.79405,8.79407 17.58985,17.58985 z m -17.58986,50.25273 -5.02492,5.02493 -10.04986,-10.05159 5.02493,-5.02493 -30.15304,-30.15303 -5.02492,5.02492 -10.0516,-10.05158 5.02494,-5.02493 -15.07653,-15.07652 -30.15129,30.15478 80.40751,80.4075 30.15304,-30.15303 z"
   inkscape:connector-curvature="0"
   style="stroke-width:1.73692584" /></svg>