<?xml version="1.0" encoding="UTF-8" standalone="no"?>
<!-- Generator: Adobe Illustrator 19.0.0, SVG Export Plug-In . SVG Version: 6.00 Build 0)  -->

<svg
   xmlns:dc="http://purl.org/dc/elements/1.1/"
   xmlns:cc="http://creativecommons.org/ns#"
   xmlns:rdf="http://www.w3.org/1999/02/22-rdf-syntax-ns#"
   xmlns:svg="http://www.w3.org/2000/svg"
   xmlns="http://www.w3.org/2000/svg"
   xmlns:sodipodi="http://sodipodi.sourceforge.net/DTD/sodipodi-0.dtd"
   xmlns:inkscape="http://www.inkscape.org/namespaces/inkscape"
   version="1.1"
   id="Layer_1"
   x="0px"
   y="0px"
   viewBox="0 0 1697.0926 650.86677"
   xml:space="preserve"
   sodipodi:docname="nabor-absolventu.svg"
   width="1697.0925"
   height="650.86676"
   inkscape:version="0.92.4 (5da689c313, 2019-01-14)"><metadata
   id="metadata95"><rdf:RDF><cc:Work
       rdf:about=""><dc:format>image/svg+xml</dc:format><dc:type
         rdf:resource="http://purl.org/dc/dcmitype/StillImage" /><dc:title></dc:title></cc:Work></rdf:RDF></metadata><defs
   id="defs93" /><sodipodi:namedview
   pagecolor="#ffffff"
   bordercolor="#666666"
   borderopacity="1"
   objecttolerance="10"
   gridtolerance="10"
   guidetolerance="10"
   inkscape:pageopacity="0"
   inkscape:pageshadow="2"
   inkscape:window-width="1920"
   inkscape:window-height="1027"
   id="namedview91"
   showgrid="false"
   fit-margin-top="0"
   fit-margin-left="0"
   fit-margin-right="0"
   fit-margin-bottom="0"
   inkscape:zoom="0.33102478"
   inkscape:cx="452.04058"
   inkscape:cy="158.83827"
   inkscape:window-x="-8"
   inkscape:window-y="-8"
   inkscape:window-maximized="1"
   inkscape:current-layer="Layer_1" />
<path
   style="fill:#2a5263"
   d="m 926.33451,417.477 c 0,8.696 -7.058,15.754 -15.754,15.754 h -44.631 c -8.704,0 -15.754,-7.058 -15.754,-15.754 V 294.069 c 0,-8.696 7.05,-15.754 15.754,-15.754 h 44.631 c 8.696,0 15.754,7.058 15.754,15.754 z"
   id="path2"
   inkscape:connector-curvature="0" />
<path
   style="fill:#1a3944"
   d="m 888.90251,417.477 c 0,8.696 -7.058,15.754 -15.754,15.754 h -44.63 c -8.696,0 -15.754,-7.058 -15.754,-15.754 V 294.069 c 0,-8.696 7.058,-15.754 15.754,-15.754 h 44.631 c 8.696,0 15.754,7.058 15.754,15.754 v 123.408 z"
   id="path4"
   inkscape:connector-curvature="0" />
<g
   id="g10"
   transform="translate(535.22851)">
	<path
   style="fill:#a3bbc1"
   d="m 263.05,280.631 c -10.027,-11.28 -3.663,-33.312 14.218,-49.231 17.881,-15.896 114.018,-85.016 124.062,-73.767 10.012,11.296 -69.892,98.721 -87.773,114.617 -17.865,15.888 -40.479,19.645 -50.507,8.381 z"
   id="path6"
   inkscape:connector-curvature="0" />
	<path
   style="fill:#a3bbc1"
   d="m 241.074,280.631 c 10.027,-11.28 3.663,-33.312 -14.218,-49.231 -17.881,-15.896 -114.018,-85.016 -124.062,-73.767 -10.012,11.296 69.892,98.721 87.773,114.617 17.865,15.888 40.479,19.645 50.507,8.381 z"
   id="path8"
   inkscape:connector-curvature="0" />
</g>
<g
   id="g16"
   transform="translate(535.22851)">
	<path
   style="fill:#d39959"
   d="m 168.582,188.731 c -29.783,-19.779 -60.353,-37.179 -65.788,-31.098 -5.293,5.963 14.517,33.178 37.006,59.872 z"
   id="path12"
   inkscape:connector-curvature="0" />
	<path
   style="fill:#d39959"
   d="m 366.884,214.426 c 21.402,-25.679 39.526,-51.058 34.438,-56.793 -5.23,-5.845 -33.713,10.035 -62.377,28.853 z"
   id="path14"
   inkscape:connector-curvature="0" />
</g>
<g
   id="g22"
   transform="translate(535.22851)">
	<path
   style="fill:#44748e"
   d="m 228.219,361.913 c 0,19.503 -15.817,124.668 -35.336,124.668 -19.495,0 -35.304,-105.173 -35.304,-124.668 0,-19.495 15.817,-35.32 35.304,-35.32 19.519,0 35.336,15.825 35.336,35.32 z"
   id="path18"
   inkscape:connector-curvature="0" />
	<path
   style="fill:#44748e"
   d="m 346.569,361.913 c 0,19.503 -15.817,124.668 -35.336,124.668 -19.495,0 -35.304,-105.173 -35.304,-124.668 0,-19.495 15.817,-35.32 35.304,-35.32 19.52,0 35.336,15.825 35.336,35.32 z"
   id="path20"
   inkscape:connector-curvature="0" />
</g>
<path
   style="fill:#a3bbc1"
   d="m 886.93351,315.242 c 0,126.33 -44.599,84.259 -99.643,84.259 -55.028,0 -99.643,42.071 -99.643,-84.259 0,-72.231 44.631,-130.781 99.643,-130.781 55.028,0.009 99.643,58.558 99.643,130.781 z"
   id="path24"
   inkscape:connector-curvature="0" />
<g
   id="g34"
   transform="translate(535.22851)">
	<path
   style="fill:#718b91"
   d="m 248.817,313.99 c -0.992,-2.93 -3.757,-5.041 -7.018,-5.041 -4.096,0 -7.215,3.316 -7.396,7.404 -0.221,4.758 3.111,13.202 14.352,17.495 l 0.063,0.016 V 313.99 Z"
   id="path26"
   inkscape:connector-curvature="0" />
	<path
   style="fill:#718b91"
   d="m 248.746,313.99 c 1,-2.93 3.757,-5.041 7.018,-5.041 4.088,0 7.207,3.316 7.396,7.404 0.221,4.758 -3.111,13.202 -14.36,17.495 l -0.055,0.016 V 313.99 Z"
   id="path28"
   inkscape:connector-curvature="0" />
	<path
   style="fill:#718b91"
   d="m 248.691,290.682 v -0.047 l 0.079,0.016 0.095,-0.016 v 0.047 c 18.716,7.152 29.924,18.211 35.99,29.003 4.584,-8.153 6.239,-16.14 5.947,-22.134 -0.551,-11.934 -9.681,-21.638 -21.63,-21.638 -9.429,0 -17.432,6.057 -20.401,14.478 -2.946,-8.42 -10.957,-14.478 -20.385,-14.478 -11.957,0 -21.079,9.704 -21.638,21.638 -0.276,5.994 1.378,13.974 5.963,22.134 6.063,-10.784 17.272,-21.851 35.98,-29.003 z"
   id="path30"
   inkscape:connector-curvature="0" />
	<path
   style="fill:#718b91"
   d="m 248.864,348.68 v 0.055 l -0.095,-0.032 -0.079,0.032 v -0.055 c -18.708,-7.152 -29.917,-18.219 -35.982,-28.995 -4.584,8.145 -6.239,16.132 -5.963,22.126 0.559,11.934 9.681,21.63 21.638,21.63 9.429,0 17.432,-6.049 20.385,-14.478 2.97,8.428 10.973,14.478 20.401,14.478 11.957,0 21.079,-9.696 21.63,-21.63 0.291,-5.994 -1.363,-13.974 -5.947,-22.126 -6.063,10.768 -17.272,21.835 -35.988,28.995 z"
   id="path32"
   inkscape:connector-curvature="0" />
</g>
<circle
   style="fill:#d39959"
   cx="789.63049"
   cy="211.36099"
   r="26.584999"
   id="circle36" />
<path
   style="fill:#44748e"
   d="m 899.08751,339.621 c 7.987,7.995 9.893,19.046 4.261,24.694 v 0 c -5.632,5.632 -16.691,3.71 -24.678,-4.277 L 744.38451,225.76 c -8.003,-8.019 -9.909,-19.062 -4.261,-24.694 v 0 c 5.624,-5.648 16.675,-3.742 24.678,4.261 z"
   id="path38"
   inkscape:connector-curvature="0" />
<path
   style="fill:#ff7300"
   d="m 767.85851,487.219 c 0,14.935 -17.802,16.904 -39.739,16.904 -21.937,0 -39.739,-1.961 -39.739,-16.904 0,-14.943 17.802,-35.509 39.739,-35.509 21.937,0 39.739,20.567 39.739,35.509 z"
   id="path40"
   inkscape:connector-curvature="0" />
<path
   style="fill:#ff4800"
   d="m 767.85851,487.219 c 0,14.935 -17.802,16.904 -39.739,16.904 -21.937,0 -39.739,-1.961 -39.739,-16.904"
   id="path42"
   inkscape:connector-curvature="0" />
<path
   style="fill:#ff7300"
   d="m 886.21651,487.219 c 0,14.935 -17.802,16.904 -39.739,16.904 -21.937,0 -39.739,-1.961 -39.739,-16.904 0,-14.943 17.802,-35.509 39.739,-35.509 21.937,0 39.739,20.567 39.739,35.509 z"
   id="path44"
   inkscape:connector-curvature="0" />
<path
   style="fill:#ff4800"
   d="m 886.21651,487.219 c 0,14.935 -17.802,16.904 -39.739,16.904 -21.937,0 -39.739,-1.961 -39.739,-16.904"
   id="path46"
   inkscape:connector-curvature="0" />
<path
   style="fill:#efc286"
   d="m 916.24351,124.258 c 0,63.008 -57.738,94.681 -128.937,94.681 -71.215,0 -128.969,-31.673 -128.969,-94.681 0,-63.023 57.754,-124.258 128.969,-124.258 71.199,0 128.937,61.235 128.937,124.258 z"
   id="path48"
   inkscape:connector-curvature="0" />
<path
   style="fill:#e8b374"
   d="m 916.24351,124.258 c 0,63.008 -57.738,94.681 -128.937,94.681 -71.215,0 -128.969,-31.673 -128.969,-94.681"
   id="path50"
   inkscape:connector-curvature="0" />
<g
   id="g56"
   transform="translate(535.22851)">
	<path
   style="fill:#232728"
   d="m 224.65,161.564 c -0.614,0 -1.245,-0.221 -1.725,-0.717 -5.632,-5.624 -13.107,-8.72 -21.047,-8.72 h -0.016 c -7.94,0 -15.399,3.104 -21,8.712 -0.953,0.953 -2.489,0.977 -3.434,0.008 -0.953,-0.922 -0.985,-2.458 -0.031,-3.419 6.538,-6.546 15.218,-10.161 24.458,-10.161 h 0.016 c 9.263,0 17.951,3.592 24.505,10.145 0.937,0.937 0.937,2.505 0,3.434 -0.465,0.489 -1.08,0.718 -1.726,0.718 z"
   id="path52"
   inkscape:connector-curvature="0" />
	<path
   style="fill:#232728"
   d="m 301.797,161.564 c 0.599,0 1.229,-0.221 1.709,-0.717 5.632,-5.624 13.107,-8.72 21.047,-8.72 h 0.016 c 7.94,0 15.415,3.104 21.016,8.712 0.937,0.953 2.473,0.977 3.434,0.008 0.953,-0.922 0.969,-2.458 0.016,-3.419 -6.506,-6.546 -15.218,-10.161 -24.458,-10.161 h -0.016 c -9.247,0 -17.936,3.592 -24.505,10.145 -0.922,0.937 -0.922,2.505 0,3.434 0.481,0.489 1.095,0.718 1.741,0.718 z"
   id="path54"
   inkscape:connector-curvature="0" />
</g>
<path
   style="fill:#ff8b00"
   d="m 678.15551,60.77 c 22.741,17.148 50.42,-18.763 95.232,-18.763 36.226,0 71.31,11.894 94.523,0 8.814,4.521 28.207,36.305 39.424,39.377 C 888.55651,36.116 841.95651,0 787.30651,0 c -46.041,0 -86.331,25.655 -109.151,60.77 z"
   id="path58"
   inkscape:connector-curvature="0" />
<g
   id="g60"
   transform="translate(535.22851)">
</g>
<g
   id="g62"
   transform="translate(535.22851)">
</g>
<g
   id="g64"
   transform="translate(535.22851)">
</g>
<g
   id="g66"
   transform="translate(535.22851)">
</g>
<g
   id="g68"
   transform="translate(535.22851)">
</g>
<g
   id="g70"
   transform="translate(535.22851)">
</g>
<g
   id="g72"
   transform="translate(535.22851)">
</g>
<g
   id="g74"
   transform="translate(535.22851)">
</g>
<g
   id="g76"
   transform="translate(535.22851)">
</g>
<g
   id="g78"
   transform="translate(535.22851)">
</g>
<g
   id="g80"
   transform="translate(535.22851)">
</g>
<g
   id="g82"
   transform="translate(535.22851)">
</g>
<g
   id="g84"
   transform="translate(535.22851)">
</g>
<g
   id="g86"
   transform="translate(535.22851)">
</g>
<g
   id="g88"
   transform="translate(535.22851)">
</g>
<text
   xml:space="preserve"
   style="font-style:normal;font-variant:normal;font-weight:bold;font-stretch:normal;font-size:170.82696533px;line-height:1.25;font-family:sans-serif;-inkscape-font-specification:'sans-serif Bold';text-align:center;letter-spacing:0px;word-spacing:0px;text-anchor:middle;fill:#000000;fill-opacity:1;stroke:none;stroke-width:4.27067423"
   x="847.96234"
   y="648.44781"
   id="text99"><tspan
     sodipodi:role="line"
     x="847.96234"
     y="648.44781"
     id="tspan101"
     style="stroke-width:4.27067423">Nábor Absolventů</tspan></text>

</svg>