<?xml version="1.0" encoding="UTF-8" standalone="no"?>
<svg
   xmlns:dc="http://purl.org/dc/elements/1.1/"
   xmlns:cc="http://creativecommons.org/ns#"
   xmlns:rdf="http://www.w3.org/1999/02/22-rdf-syntax-ns#"
   xmlns:svg="http://www.w3.org/2000/svg"
   xmlns="http://www.w3.org/2000/svg"
   xmlns:sodipodi="http://sodipodi.sourceforge.net/DTD/sodipodi-0.dtd"
   xmlns:inkscape="http://www.inkscape.org/namespaces/inkscape"
   width="1509.2195"
   height="882.95099"
   viewBox="0 0 1509.2195 882.95099"
   version="1.1"
   id="svg4"
   sodipodi:docname="navrh-spoju.svg"
   inkscape:version="0.92.4 (5da689c313, 2019-01-14)">
  <metadata
     id="metadata10">
    <rdf:RDF>
      <cc:Work
         rdf:about="">
        <dc:format>image/svg+xml</dc:format>
        <dc:type
           rdf:resource="http://purl.org/dc/dcmitype/StillImage" />
        <dc:title></dc:title>
      </cc:Work>
    </rdf:RDF>
  </metadata>
  <defs
     id="defs8" />
  <sodipodi:namedview
     pagecolor="#ffffff"
     bordercolor="#666666"
     borderopacity="1"
     objecttolerance="10"
     gridtolerance="10"
     guidetolerance="10"
     inkscape:pageopacity="0"
     inkscape:pageshadow="2"
     inkscape:window-width="1920"
     inkscape:window-height="1027"
     id="namedview6"
     showgrid="false"
     fit-margin-top="0"
     fit-margin-left="0"
     fit-margin-right="0"
     fit-margin-bottom="0"
     inkscape:zoom="0.4609375"
     inkscape:cx="739.41909"
     inkscape:cy="299.22734"
     inkscape:window-x="-8"
     inkscape:window-y="-8"
     inkscape:window-maximized="1"
     inkscape:current-layer="svg4" />
  <path
     d="m 897.13909,0 v 98.64 l -46.116,46.117 -34.198,-34.2 -6.607,6.61 -141.52,141.516 113.513,113.51 -52.775,52.773 0.002,50.31 h 18.687 v -42.568 l 47.3,-47.3 21.4,21.4 148.122,-148.124 -60.165,-60.164 67.447,-67.45 V 0 h -18.687 v 123.33 l -61.975,61.975 -27.332,-27.333 51.59,-51.59 V 0 Z m -394.36,10.908 v 18.687 h 186.607 l 44.254,44.254 c -2.56,4.393 -4.032,9.496 -4.032,14.947 0,16.422 13.312,29.736 29.732,29.736 16.42,0 29.732,-13.314 29.732,-29.735 0,-16.42 -13.312,-29.73 -29.732,-29.73 -4.143,0 -8.088,0.85 -11.672,2.382 l -50.54,-50.54 h -194.349 z m 0,55.478 v 18.69 l 131.126,0.003 44.254,44.254 c -2.56,4.392 -4.035,9.496 -4.035,14.947 0,16.42 13.312,29.732 29.732,29.732 16.42,0 29.733,-13.312 29.733,-29.732 0,-16.42 -13.312,-29.733 -29.732,-29.733 -4.144,0 -8.088,0.85 -11.672,2.382 l -50.54,-50.54 h -138.864 z m 83.386,55.482 -83.385,0.002 v 18.69 l 75.646,-0.003 44.254,44.26 c -2.56,4.39 -4.033,9.496 -4.033,14.946 0,16.42 13.312,29.733 29.732,29.733 16.42,0 29.73,-13.313 29.73,-29.734 0,-16.42 -13.31,-29.734 -29.73,-29.734 -4.145,0 -8.09,0.85 -11.675,2.383 l -50.54,-50.543 z m 230.66,15.12 121.694,121.697 -121.694,121.69 -121.696,-121.69 121.696,-121.695 z m -1.254,27.388 -94.574,94.574 95.012,95.015 13.215,-13.214 -81.797,-81.8 81.36,-81.362 -13.216,-13.214 z m -312.79,21.558 v 51.207 l 160.13,160.13 v 78.005 h 18.69 V 364.751 l -178.82,-178.818 z m 346.51,8.397 -13.212,13.214 51.48,51.482 -51.77,51.77 13.218,13.214 64.982,-64.984 -64.695,-64.697 z m -29.93,33.16 c -17.45,0 -31.592,14.147 -31.592,31.594 0,17.445 14.143,31.59 31.59,31.59 17.45,0 31.593,-14.145 31.593,-31.59 0,-17.45 -14.143,-31.595 -31.592,-31.595 z m -316.582,48.464 v 51.207 l 94.886,94.88 v 53.233 h 18.688 v -85.75 l -113.572,-113.57 z m 427.378,73.154 c -16.42,0 -29.732,13.312 -29.732,29.732 0,16.42 13.312,29.735 29.732,29.735 3.994,0 7.802,-0.794 11.28,-2.222 l 36.62,36.615 v -26.427 l -22.402,-22.4 c 2.688,-4.47 4.237,-9.704 4.237,-15.3 0,-16.42 -13.314,-29.732 -29.735,-29.732 z m -427.378,17.686 v 51.21 l 31.294,31.29 -0.002,25.982 h 18.688 l 0.006,-58.496 z m 371.902,37.796 c -16.42,0 -29.733,13.312 -29.733,29.733 0,16.42 13.31,29.73 29.732,29.73 3.513,0 6.882,-0.612 10.01,-1.73 l 12.955,12.95 h 26.43 l -24.58,-24.578 c 3.104,-4.697 4.917,-10.322 4.917,-16.373 0,-16.422 -13.312,-29.734 -29.732,-29.734 z"
     id="path2"
     inkscape:connector-curvature="0"
     style="fill:#000000" />
  <text
     xml:space="preserve"
     style="font-style:normal;font-weight:normal;font-size:175.87808228px;line-height:1.25;font-family:sans-serif;text-align:center;letter-spacing:0px;word-spacing:0px;text-anchor:middle;fill:#000000;fill-opacity:1;stroke:none;stroke-width:4.39695311"
     x="753.49329"
     y="625.14532"
     id="text3717"><tspan
       sodipodi:role="line"
       id="tspan3715"
       x="753.49329"
       y="625.14532"
       style="font-style:normal;font-variant:normal;font-weight:bold;font-stretch:normal;font-family:sans-serif;-inkscape-font-specification:'sans-serif Bold';text-align:center;text-anchor:middle;stroke-width:4.39695311">Návrh Plošných</tspan><tspan
       sodipodi:role="line"
       x="753.49329"
       y="844.99292"
       id="tspan3719"
       style="font-style:normal;font-variant:normal;font-weight:bold;font-stretch:normal;font-family:sans-serif;-inkscape-font-specification:'sans-serif Bold';text-align:center;text-anchor:middle;stroke-width:4.39695311">Spojů</tspan></text>
</svg>
