<?xml version="1.0" encoding="UTF-8" standalone="no"?>
<svg
   xmlns:dc="http://purl.org/dc/elements/1.1/"
   xmlns:cc="http://creativecommons.org/ns#"
   xmlns:rdf="http://www.w3.org/1999/02/22-rdf-syntax-ns#"
   xmlns:svg="http://www.w3.org/2000/svg"
   xmlns="http://www.w3.org/2000/svg"
   xmlns:sodipodi="http://sodipodi.sourceforge.net/DTD/sodipodi-0.dtd"
   xmlns:inkscape="http://www.inkscape.org/namespaces/inkscape"
   width="1295.9855"
   height="823.88452"
   viewBox="0 0 1295.9855 823.88452"
   version="1.1"
   id="svg4"
   sodipodi:docname="navrh-spoju-2.svg"
   inkscape:version="0.92.4 (5da689c313, 2019-01-14)">
  <metadata
     id="metadata10">
    <rdf:RDF>
      <cc:Work
         rdf:about="">
        <dc:format>image/svg+xml</dc:format>
        <dc:type
           rdf:resource="http://purl.org/dc/dcmitype/StillImage" />
        <dc:title></dc:title>
      </cc:Work>
    </rdf:RDF>
  </metadata>
  <defs
     id="defs8" />
  <sodipodi:namedview
     pagecolor="#ffffff"
     bordercolor="#666666"
     borderopacity="1"
     objecttolerance="10"
     gridtolerance="10"
     guidetolerance="10"
     inkscape:pageopacity="0"
     inkscape:pageshadow="2"
     inkscape:window-width="1920"
     inkscape:window-height="1027"
     id="namedview6"
     showgrid="false"
     fit-margin-top="0"
     fit-margin-left="0"
     fit-margin-right="0"
     fit-margin-bottom="0"
     inkscape:zoom="0.4609375"
     inkscape:cx="633.114"
     inkscape:cy="325.45167"
     inkscape:window-x="-8"
     inkscape:window-y="-8"
     inkscape:window-maximized="1"
     inkscape:current-layer="svg4" />
  <path
     d="m 790.834,348.60754 v 98.64 l -46.116,46.117 -34.198,-34.2 -6.607,6.61 -141.52,141.516 113.513,113.51 -52.775,52.773 0.002,50.31 h 18.687 v -42.568 l 47.3,-47.3 21.4,21.4 148.122,-148.124 -60.165,-60.164 67.447,-67.45 v -131.07 h -18.687 v 123.33 l -61.975,61.975 -27.332,-27.333 51.59,-51.59 v -106.382 z m -394.36,10.908 v 18.687 h 186.607 l 44.254,44.254 c -2.56,4.393 -4.032,9.496 -4.032,14.947 0,16.422 13.312,29.736 29.732,29.736 16.42,0 29.732,-13.314 29.732,-29.735 0,-16.42 -13.312,-29.73 -29.732,-29.73 -4.143,0 -8.088,0.85 -11.672,2.382 l -50.54,-50.54 H 396.474 Z m 0,55.478 v 18.69 l 131.126,0.003 44.254,44.254 c -2.56,4.392 -4.035,9.496 -4.035,14.947 0,16.42 13.312,29.732 29.732,29.732 16.42,0 29.733,-13.312 29.733,-29.732 0,-16.42 -13.312,-29.733 -29.732,-29.733 -4.144,0 -8.088,0.85 -11.672,2.382 l -50.54,-50.54 H 396.476 Z m 83.386,55.482 -83.385,0.002 v 18.69 l 75.646,-0.003 44.254,44.26 c -2.56,4.39 -4.033,9.496 -4.033,14.946 0,16.42 13.312,29.733 29.732,29.733 16.42,0 29.73,-13.313 29.73,-29.734 0,-16.42 -13.31,-29.734 -29.73,-29.734 -4.145,0 -8.09,0.85 -11.675,2.383 l -50.54,-50.543 z m 230.66,15.12 121.694,121.697 -121.694,121.69 -121.696,-121.69 121.696,-121.695 z m -1.254,27.388 -94.574,94.574 95.012,95.015 13.215,-13.214 -81.797,-81.8 81.36,-81.362 -13.216,-13.214 z m -312.79,21.558 v 51.207 l 160.13,160.13 v 78.005 h 18.69 v -110.525 l -178.82,-178.818 z m 346.51,8.397 -13.212,13.214 51.48,51.482 -51.77,51.77 13.218,13.214 64.982,-64.984 -64.695,-64.697 z m -29.93,33.16 c -17.45,0 -31.592,14.147 -31.592,31.594 0,17.445 14.143,31.59 31.59,31.59 17.45,0 31.593,-14.145 31.593,-31.59 0,-17.45 -14.143,-31.595 -31.592,-31.595 z m -316.582,48.464 v 51.207 l 94.886,94.88 v 53.233 h 18.688 v -85.75 l -113.572,-113.57 z m 427.378,73.154 c -16.42,0 -29.732,13.312 -29.732,29.732 0,16.42 13.312,29.735 29.732,29.735 3.994,0 7.802,-0.794 11.28,-2.222 l 36.62,36.615 v -26.427 l -22.402,-22.4 c 2.688,-4.47 4.237,-9.704 4.237,-15.3 0,-16.42 -13.314,-29.732 -29.735,-29.732 z m -427.378,17.686 v 51.21 l 31.294,31.29 -0.002,25.982 h 18.688 l 0.006,-58.496 z m 371.902,37.796 c -16.42,0 -29.733,13.312 -29.733,29.733 0,16.42 13.31,29.73 29.732,29.73 3.513,0 6.882,-0.612 10.01,-1.73 l 12.955,12.95 h 26.43 l -24.58,-24.578 c 3.104,-4.697 4.917,-10.322 4.917,-16.373 0,-16.422 -13.312,-29.734 -29.732,-29.734 z"
     id="path2"
     inkscape:connector-curvature="0"
     style="fill:#000000" />
  <text
     xml:space="preserve"
     style="font-style:normal;font-weight:normal;font-size:151.02870178px;line-height:1.25;font-family:sans-serif;text-align:center;letter-spacing:0px;word-spacing:0px;text-anchor:middle;fill:#000000;fill-opacity:1;stroke:none;stroke-width:3.77571845"
     x="647.03412"
     y="120.79346"
     id="text3717"><tspan
       sodipodi:role="line"
       id="tspan3715"
       x="647.03412"
       y="120.79346"
       style="font-style:normal;font-variant:normal;font-weight:bold;font-stretch:normal;font-family:sans-serif;-inkscape-font-specification:'sans-serif Bold';text-align:center;text-anchor:middle;fill:#000000;stroke-width:3.77571845">Návrh Plošných</tspan><tspan
       sodipodi:role="line"
       x="647.03412"
       y="309.57935"
       id="tspan3719"
       style="font-style:normal;font-variant:normal;font-weight:bold;font-stretch:normal;font-family:sans-serif;-inkscape-font-specification:'sans-serif Bold';text-align:center;text-anchor:middle;fill:#000000;stroke-width:3.77571845">Spojů</tspan></text>
  <path
     style="fill:none;stroke-width:2.16949153"
     d="m 650.46993,666.56848 -59.63143,-59.66101 59.63169,-59.66128 59.63169,-59.66128 60.21792,60.18912 60.21793,60.18912 -59.10385,59.13317 c -32.50712,32.52325 -59.6053,59.13318 -60.21819,59.13318 -0.61288,0 -27.94847,-26.84746 -60.74576,-59.66102 z m 68.39532,29.22934 6.29184,-6.56727 -41.11849,-41.16125 -41.11848,-41.16126 39.57152,-39.61493 c 21.76433,-21.78821 39.57151,-40.52814 39.57151,-41.64429 0,-1.11614 -2.64947,-4.79481 -5.88772,-8.17481 l -5.88772,-6.14546 -48.34956,48.31375 -48.34957,48.31374 47.16795,47.20453 c 25.94237,25.96249 48.21395,47.20452 49.49241,47.20452 1.27845,0 5.15579,-2.95527 8.61631,-6.56727 z m 56.95736,-120.82656 -33.02102,-33.07265 -7.15768,6.9375 -7.15769,6.9375 25.50031,25.56693 25.50032,25.56693 -25.92404,25.99175 -25.92404,25.99176 7.44541,7.68171 7.44541,7.68171 33.15701,-33.10524 33.15702,-33.10525 z m -45.08039,59.59722 c 26.27731,-17.93661 14.85821,-58.21292 -16.6392,-58.68808 -13.16575,-0.19862 -22.58446,5.02969 -28.71674,15.9406 -12.36929,22.0082 2.79667,47.60008 28.22045,47.62073 6.79898,0.005 12.26571,-1.54919 17.13549,-4.87325 z"
     id="path14"
     inkscape:connector-curvature="0" />
  <path
     style="fill:#ffd42a;stroke-width:2.16949153"
     d="m 527.45661,572.28343 c -11.51138,-7.0189 -17.57018,-25.3164 -11.52313,-34.79969 1.61139,-2.52705 -3.1145,-8.46576 -21.14876,-26.57627 l -23.22384,-23.32204 h -37.46073 -37.46073 v -7.59322 -7.59322 h 41.7981 41.7981 l 24.58827,24.65821 24.58826,24.65822 9.18632,-1.03543 c 11.4348,-1.28887 21.51489,3.544 27.34912,13.11246 15.12446,24.80494 -13.68604,53.61544 -38.49098,38.49098 z"
     id="path16"
     inkscape:connector-curvature="0" />
  <path
     style="fill:#ffd42a;stroke-width:2.16949153"
     d="m 853.41371,771.90502 c -16.57461,-16.69094 -17.57535,-17.33027 -25.21492,-16.10865 -5.37064,0.8588 -10.59541,0.0193 -16.08126,-2.58392 -22.71079,-10.77697 -21.43433,-43.04085 2.05779,-52.01257 11.59021,-4.42635 21.15305,-2.04496 30.35416,7.55893 6.71667,7.01069 9.84645,22.74982 5.90316,29.68595 -1.94742,3.42547 -0.4497,5.94017 9.63539,16.17797 11.7255,11.90303 11.92917,12.32566 11.27327,23.39254 l -0.66798,11.2705 z"
     id="path18"
     inkscape:connector-curvature="0" />
  <path
     style="fill:#ffd42a;stroke-width:2.16949153"
     d="m 637.8648,461.49592 c -11.22322,-6.84261 -16.74674,-24.40282 -11.03365,-35.07782 2.13782,-3.99457 -0.013,-6.89234 -20.02904,-26.97602 l -22.42414,-22.50072 h -93.86928 -93.86927 v -8.67797 -8.67796 h 96.03392 96.03391 l 25.59203,25.65887 25.59202,25.65887 11.78539,-0.97734 c 11.38172,-0.94386 12.08311,-0.67966 20.47577,7.71301 7.81538,7.81538 8.69035,9.77876 8.69035,19.50047 0,22.84093 -23.56215,36.19413 -42.97801,24.35661 z"
     id="path20"
     inkscape:connector-curvature="0" />
  <path
     style="fill:#ffd42a;stroke-width:2.16949153"
     d="m 588.89825,520.07549 c -14.33987,-4.34487 -22.8515,-20.18239 -18.67436,-34.74723 2.12329,-7.40348 2.02052,-7.5557 -20.05924,-29.71086 L 527.97119,433.34814 H 462.3053 396.63942 v -8.67797 -8.67796 h 68.91675 68.91674 l 24.91377,25.05337 c 23.75998,23.89313 25.24655,24.99259 32.09973,23.74076 22.58585,-4.12564 41.45848,19.43252 31.54624,39.3783 -6.75293,13.58855 -20.55928,20.02401 -34.1344,15.91085 z"
     id="path22"
     inkscape:connector-curvature="0" />
  <path
     style="fill:#ffd42a;stroke-width:2.16949153"
     d="m 557.1818,784.2524 v -39.60421 l -80.27119,-80.2492 -80.27119,-80.2492 v -23.86548 -23.86548 l 88.94916,88.92931 88.94915,88.92931 v 54.78959 54.78958 h -8.67797 -8.67796 z"
     id="path24"
     inkscape:connector-curvature="0" />
  <path
     style="fill:#ffd42a;stroke-width:2.16949153"
     d="m 492.09705,797.26185 v -26.59476 l -47.72881,-47.69183 -47.72882,-47.69183 v -24.95199 -24.952 l 56.40678,56.37548 56.40678,56.37549 v 42.8631 42.86311 h -8.67796 -8.67797 z"
     id="path26"
     inkscape:connector-curvature="0" />
  <path
     style="fill:#ffd42a;stroke-width:2.16949153"
     d="m 429.1818,810.243 v -13.61362 l -16.27119,-16.16259 -16.27119,-16.1626 v -23.88331 -23.88331 l 24.52947,24.45988 24.52948,24.45988 -0.37255,15.64032 c -0.2049,8.60218 -0.50418,21.74202 -0.66506,29.19965 l -0.29252,13.55932 h -7.59322 -7.59322 z"
     id="path28"
     inkscape:connector-curvature="0" />
  <path
     style="fill:#ffd42a;stroke-width:2.16949153"
     d="m 786.06315,817.34814 c -5.18352,-5.41042 -7.94298,-6.50847 -16.35625,-6.50847 -26.38641,0 -39.62991,-29.37498 -21.44297,-47.56193 11.08004,-11.08004 26.2876,-11.51786 38.65329,-1.11282 8.66617,7.2921 11.74162,18.27261 8.06745,28.80386 l -2.76967,7.93869 12.0426,12.47457 12.04261,12.47458 h -12.00077 c -10.5022,0 -12.77942,-0.81274 -18.23629,-6.50848 z"
     id="path30"
     inkscape:connector-curvature="0" />
  <path
     style="fill:none;stroke-width:2.16949153"
     d="m 624.43603,798.33118 v -25.52543 l 26.04333,-25.9755 26.04333,-25.97547 -56.41466,-56.44479 -56.41465,-56.44481 73.74163,-73.71771 73.74163,-73.71771 16.87556,16.77658 16.87556,16.77658 23.27956,-23.35197 23.27956,-23.35197 v -49.32051 -49.3205 h 8.67797 8.67796 v 52.64408 52.64409 l -26.02365,25.95586 -26.02366,25.95586 14.59109,14.70376 14.59108,14.70376 30.958,-30.90276 30.95799,-30.90276 v -62.40095 -62.40094 h 8.67797 8.67796 v 64.5177 64.51771 l -34.14224,34.19234 -34.14224,34.19234 30.32511,30.38327 30.32511,30.38325 -73.70227,73.7262 -73.70229,73.7262 -10.93986,-10.80396 -10.93985,-10.80398 -23.26955,23.34193 -23.26954,23.34193 v 22.20186 22.20186 h -8.67797 -8.67797 z m 148.06778,-252.70227 -61.27864,-61.27864 -61.83537,61.80682 -61.83537,61.80681 61.27877,61.30707 61.27876,61.30708 61.83524,-61.83526 61.83524,-61.83524 z"
     id="path32"
     inkscape:connector-curvature="0" />
  <path
     style="fill:none;stroke-width:2.16949153"
     d="m 651.54963,665.47869 -58.55118,-58.58132 58.56625,-58.52053 58.56625,-58.52053 59.2241,58.94765 59.22411,58.94764 -58.1243,58.1542 c -31.96836,31.98482 -58.62598,58.15421 -59.23917,58.15421 -0.61318,0 -27.46291,-26.3616 -59.66606,-58.58132 z m 66.94249,31.56626 c 3.15729,-2.92607 5.74052,-6.57745 5.74052,-8.11417 0,-1.53672 -17.73433,-20.54782 -39.40963,-42.2469 l -39.40964,-39.45287 37.78252,-39.40163 c 20.78039,-21.67089 38.1032,-40.27861 38.49514,-41.35048 0.99501,-2.72113 -8.31693,-15.38695 -10.72289,-14.58496 -3.63755,1.21251 -97.37956,93.53745 -97.37956,95.90749 0,3.02967 93.60782,94.46335 96.76795,94.52041 1.31729,0.0238 4.9783,-2.35081 8.13559,-5.27689 z m 58.32443,-54.85612 c 17.61444,-17.58508 32.00997,-32.96135 31.99005,-34.16949 -0.0195,-1.20814 -14.58219,-16.77488 -32.36061,-34.59275 l -32.3244,-32.39613 -7.77498,5.93027 c -4.27624,3.26164 -7.77498,6.64125 -7.77498,7.51023 0,1.61807 4.24805,6.29336 32.42088,35.68153 l 16.1744,16.87215 -16.19154,16.75497 c -8.90535,9.21524 -19.99123,20.85683 -24.6353,25.87021 l -8.44377,9.11523 5.8718,7.69833 c 3.22949,4.23408 7.03064,7.69832 8.44699,7.69832 1.41636,0 16.98701,-14.38779 34.60146,-31.97287 z m -45.85389,-7.66359 c 33.87773,-22.63179 3.51556,-74.225 -32.60339,-55.40162 -12.80072,6.6711 -18.06212,16.47395 -16.93187,31.54683 0.91155,12.15623 4.51732,17.84372 15.6866,24.74292 9.23798,5.70625 24.58005,5.3037 33.84866,-0.88813 z"
     id="path34"
     inkscape:connector-curvature="0" />
  <path
     style="fill:none;stroke-width:2.16949153"
     d=""
     id="path36"
     inkscape:connector-curvature="0" />
  <path
     style="fill:#ffd42a;stroke-width:2.16949153"
     d="m 624.43603,798.33118 v -25.52543 l 26.04333,-25.9755 26.04333,-25.97547 -56.41466,-56.44479 -56.41465,-56.44481 73.74163,-73.71771 73.74163,-73.71771 16.87556,16.77658 16.87556,16.77658 23.27956,-23.35197 23.27956,-23.35197 v -49.32051 -49.3205 h 8.67797 8.67796 v 52.64408 52.64409 l -26.02365,25.95586 -26.02366,25.95586 14.59109,14.70376 14.59108,14.70376 30.958,-30.90276 30.95799,-30.90276 v -62.40095 -62.40094 h 8.67797 8.67796 v 64.5177 64.51771 l -34.14224,34.19234 -34.14224,34.19234 30.32511,30.38327 30.32511,30.38325 -73.70227,73.7262 -73.70229,73.7262 -10.93986,-10.80396 -10.93985,-10.80398 -23.26955,23.34193 -23.26954,23.34193 v 22.20186 22.20186 h -8.67797 -8.67797 z m 148.06778,-252.70227 -61.27864,-61.27864 -61.83537,61.80682 -61.83537,61.80681 61.27877,61.30707 61.27876,61.30708 61.83524,-61.83526 61.83524,-61.83524 z"
     id="path38"
     inkscape:connector-curvature="0" />
  <path
     style="fill:#ffd42a;stroke-width:2.16949153"
     d="m 696.67695,633.02919 c -19.66217,-11.98872 -17.5529,-41.80963 3.73453,-52.79895 18.71346,-9.66053 43.34659,6.13459 43.34659,27.79446 0,8.08766 -7.82375,21.30706 -15.18329,25.65444 -8.27372,4.88741 -23.31904,4.58085 -31.89783,-0.64995 z"
     id="path40"
     inkscape:connector-curvature="0" />
  <path
     style="fill:#ffd42a;stroke-width:2.16949153"
     d="m 661.84063,654.0752 -46.08299,-46.12041 46.62909,-46.59125 46.62908,-46.59125 5.95303,5.95303 5.95303,5.95303 -40.64288,40.64289 -40.64288,40.64288 40.57615,40.61835 40.57615,40.61835 -5.16453,5.49739 c -2.84049,3.02357 -5.73507,5.49739 -6.4324,5.49739 -0.69733,0 -22.00521,-20.75418 -47.35085,-46.1204 z"
     id="path42"
     inkscape:connector-curvature="0" />
  <path
     style="fill:#ffd42a;stroke-width:2.16949153"
     d="m 735.50964,664.85622 -4.66578,-4.96651 25.98382,-25.91612 25.98382,-25.91613 -26.08883,-26.15162 -26.08882,-26.15161 6.09163,-5.83616 6.09164,-5.83616 31.929,31.98232 31.929,31.98231 -30.9433,30.88809 c -17.01881,16.98845 -31.98124,30.88809 -33.24984,30.88809 -1.2686,0 -4.40615,-2.23493 -6.97234,-4.9665 z"
     id="path44"
     inkscape:connector-curvature="0" />
</svg>
