<?xml version="1.0" encoding="UTF-8" standalone="no"?>
<!-- Generator: Adobe Illustrator 19.0.0, SVG Export Plug-In . SVG Version: 6.00 Build 0)  -->

<svg
   xmlns:dc="http://purl.org/dc/elements/1.1/"
   xmlns:cc="http://creativecommons.org/ns#"
   xmlns:rdf="http://www.w3.org/1999/02/22-rdf-syntax-ns#"
   xmlns:svg="http://www.w3.org/2000/svg"
   xmlns="http://www.w3.org/2000/svg"
   xmlns:sodipodi="http://sodipodi.sourceforge.net/DTD/sodipodi-0.dtd"
   xmlns:inkscape="http://www.inkscape.org/namespaces/inkscape"
   version="1.1"
   id="Capa_1"
   x="0px"
   y="0px"
   viewBox="0 0 1386.6943 958.15868"
   xml:space="preserve"
   sodipodi:docname="nemcina-anglictina-2.svg"
   width="1386.6943"
   height="958.15869"
   inkscape:version="0.92.4 (5da689c313, 2019-01-14)"><metadata
   id="metadata61"><rdf:RDF><cc:Work
       rdf:about=""><dc:format>image/svg+xml</dc:format><dc:type
         rdf:resource="http://purl.org/dc/dcmitype/StillImage" /><dc:title></dc:title></cc:Work></rdf:RDF></metadata><defs
   id="defs59" /><sodipodi:namedview
   pagecolor="#ffffff"
   bordercolor="#666666"
   borderopacity="1"
   objecttolerance="10"
   gridtolerance="10"
   guidetolerance="10"
   inkscape:pageopacity="0"
   inkscape:pageshadow="2"
   inkscape:window-width="1920"
   inkscape:window-height="1027"
   id="namedview57"
   showgrid="false"
   fit-margin-top="0"
   fit-margin-left="0"
   fit-margin-right="0"
   fit-margin-bottom="0"
   inkscape:zoom="0.35505787"
   inkscape:cx="978.83867"
   inkscape:cy="482.2129"
   inkscape:window-x="-8"
   inkscape:window-y="-8"
   inkscape:window-maximized="1"
   inkscape:current-layer="Capa_1" />
<g
   id="g24"
   transform="translate(411.0938,488.15871)">
	<path
   style="fill:#98d9d5"
   d="M 82.132,273.404 V 253.797 C 71.462,250.571 63.669,240.651 63.669,228.943 v -75.497 c -11.8,24.726 -18.417,52.381 -18.417,81.555 0,24.649 4.721,48.216 13.302,69.847 3.294,-13.387 11.961,-24.673 23.578,-31.444 z"
   id="path2"
   inkscape:connector-curvature="0" />
	<path
   style="fill:#98d9d5"
   d="m 387.902,301.885 v 46.112 c 10.405,-14.019 18.921,-29.517 25.183,-46.112 z"
   id="path4"
   inkscape:connector-curvature="0" />
	<path
   style="fill:#98d9d5"
   d="m 300.089,413.602 c -12.93,-10.907 -20.545,-26.814 -20.545,-44.149 V 322.688 H 260.46 c -17.354,0 -31.474,-14.119 -31.474,-31.474 0,-17.355 14.119,-31.474 31.474,-31.474 H 387.475 V 245.8 c -13.469,-2.229 -25.355,-10.376 -32.28,-22.246 -12.2,0 -45.489,0 -58.485,0 -5.602,12.59 -18.169,20.968 -32.333,20.968 -19.515,0 -35.391,-15.876 -35.391,-35.391 v -21.399 c 0,-4.142 3.358,-7.5 7.5,-7.5 h 48.283 v -13.941 c 0,-13.311 10.28,-25.478 23.403,-27.701 0.414,-0.07 0.833,-0.105 1.252,-0.105 h 23.926 v -13.086 h -12.5 c -4.142,0 -7.5,-3.358 -7.5,-7.5 0,-4.142 3.358,-7.5 7.5,-7.5 h 32.411 l -0.288,-24.43 C 336.252,72.733 317.263,62.247 296.69,55.198 c -7.768,26.884 -32.787,46.23 -61.438,46.23 -28.651,0 -53.67,-19.346 -61.438,-46.23 -16.386,5.615 -31.764,13.413 -45.795,23.041 h 26.982 c 16.793,0 30.455,13.662 30.455,30.455 0,10.856 -5.852,20.828 -14.995,26.237 v 89.54 c 0,4.142 -3.358,7.5 -7.5,7.5 -4.142,0 -7.5,-3.358 -7.5,-7.5 v -2.357 c -18.326,0.325 -31.647,0.401 -39.866,0.227 v 6.602 c 0,11.709 -7.793,21.629 -18.463,24.854 v 13.838 c 3.304,-0.686 6.725,-1.049 10.229,-1.049 27.045,0 49.17,21.472 50.227,48.263 h 11.909 c 20.129,0 36.506,16.376 36.506,36.505 0,15.072 -9.384,28.486 -23.027,33.928 v 32.402 c 16.615,4.761 34.153,7.316 52.277,7.316 22.758,0 44.594,-4.027 64.836,-11.398 z m -39.73,-264.383 c 0,-4.142 3.358,-7.5 7.5,-7.5 4.142,0 7.5,3.358 7.5,7.5 v 7.813 c 0,4.142 -3.358,7.5 -7.5,7.5 -4.142,0 -7.5,-3.358 -7.5,-7.5 z"
   id="path6"
   inkscape:connector-curvature="0" />
	<path
   style="fill:#008000"
   d="m 372.902,365.835 v -71.45 c 0,-4.142 3.358,-7.5 7.5,-7.5 h 37.649 c 4.689,-16.498 7.201,-33.904 7.201,-51.885 0,-53.089 -21.896,-101.153 -57.121,-135.662 l 0.218,18.473 c 0.023,2.004 -0.756,3.935 -2.165,5.36 -1.409,1.425 -3.33,2.228 -5.334,2.228 h -12.5 v 20.586 c 0,4.142 -3.358,7.5 -7.5,7.5 h -30.709 c -5.585,1.251 -10.373,7.094 -10.373,12.806 v 21.441 c 0,4.142 -3.358,7.5 -7.5,7.5 h -48.283 v 13.899 c 0,11.244 9.147,20.391 20.391,20.391 9.329,0 17.454,-6.301 19.759,-15.324 l 0.056,0.014 c 0.596,-2.221 2.417,-5.658 7.978,-5.658 l 67.596,-0.001 c 2.96,0 5.643,1.741 6.849,4.444 4.992,11.188 16.124,18.418 28.36,18.418 4.142,0 7.5,3.358 7.5,7.5 v 28.324 c 0,4.142 -3.358,7.5 -7.5,7.5 H 260.459 c -9.083,0 -16.474,7.39 -16.474,16.474 0,9.084 7.39,16.474 16.474,16.474 h 26.584 c 4.142,0 7.5,3.358 7.5,7.5 v 54.265 c 0,15.527 8.294,29.529 21.857,37.321 21.3,-10.102 40.437,-24.044 56.502,-40.938 z"
   id="path8"
   inkscape:connector-curvature="0" />
	<path
   style="fill:#ffffff"
   d="m 188.187,50.903 c 5.892,20.649 25.08,35.525 47.065,35.525 21.985,0 41.173,-14.877 47.065,-35.525 C 267.261,47.052 251.492,45 235.252,45 c -16.24,0 -32.009,2.052 -47.065,5.903 z"
   id="path10"
   inkscape:connector-curvature="0" />
	<path
   style="fill:#008000"
   d="M 167.975,412.684 V 379.74 c 0,-3.549 2.488,-6.613 5.961,-7.34 9.889,-2.072 17.066,-10.923 17.066,-21.045 0,-11.858 -9.647,-21.505 -21.506,-21.505 h -19.37 c -4.142,0 -7.5,-3.358 -7.5,-7.5 v -5.497 c 0,-19.446 -15.82,-35.266 -35.266,-35.266 -19.446,0 -35.267,15.82 -35.267,35.266 v 15.405 c 21.854,36.522 55.614,65.128 95.882,80.426 z"
   id="path12"
   inkscape:connector-curvature="0" />
	<path
   style="fill:#008000"
   d="m 89.632,239.906 c 6.045,0 10.963,-4.918 10.963,-10.963 v -14.471 c 0,-2.319 1.072,-4.507 2.905,-5.928 1.748,-1.354 4,-1.866 6.151,-1.409 3.417,0.434 24.702,0.332 45.81,-0.026 V 130.23 c 0,-3.139 1.955,-5.946 4.899,-7.035 6.039,-2.233 10.096,-8.06 10.096,-14.5 0,-8.521 -6.933,-15.455 -15.455,-15.455 h -46.107 c -11.388,10.161 -21.546,21.668 -30.225,34.272 v 101.43 c 0,6.046 4.918,10.964 10.963,10.964 z"
   id="path14"
   inkscape:connector-curvature="0" />
	<path
   style="fill:none"
   d="M 454.763,220.488 C 447.26,105.261 350.84,15 235.252,15 c -121.309,0 -220,98.692 -220,220 0,44.491 13.222,87.356 38.236,123.961 1.323,1.936 1.664,4.379 0.923,6.603 l -25.139,75.415 75.416,-25.138 c 2.224,-0.741 4.667,-0.4 6.603,0.923 36.604,25.014 79.469,38.236 123.961,38.236 115.587,0 212.008,-90.261 219.511,-205.487 0.267,-4.093 3.774,-7.199 7.853,-6.999 0.081,-2.496 0.137,-4.999 0.137,-7.514 0,-2.516 -0.056,-5.018 -0.137,-7.514 -4.078,0.212 -7.586,-2.904 -7.853,-6.998 z m -68.105,152.574 c -0.454,0.685 -1.019,1.287 -1.667,1.79 -18.224,19.5 -40.194,35.452 -64.761,46.688 -0.561,0.35 -1.167,0.617 -1.797,0.808 C 292.998,433.685 264.85,440 235.252,440 c -21.409,0 -42.059,-3.305 -61.474,-9.421 -0.441,-0.102 -0.868,-0.239 -1.276,-0.415 -48.06,-15.489 -88.423,-48.267 -113.733,-90.979 -0.46,-0.567 -0.837,-1.202 -1.117,-1.888 -17.42,-30.124 -27.4,-65.067 -27.4,-102.297 0,-41.782 12.576,-80.677 34.125,-113.121 0.323,-0.691 0.747,-1.323 1.254,-1.879 9.81,-14.423 21.412,-27.53 34.479,-39.01 0.528,-0.644 1.164,-1.192 1.876,-1.631 21.478,-18.417 46.796,-32.468 74.572,-40.783 0.438,-0.178 0.898,-0.316 1.378,-0.411 C 196.133,32.858 215.364,30 235.252,30 c 19.888,0 39.119,2.858 57.316,8.166 0.48,0.094 0.94,0.232 1.378,0.411 25.933,7.763 49.722,20.529 70.246,37.179 0.697,0.404 1.322,0.914 1.852,1.511 45.307,37.633 74.208,94.37 74.208,157.733 0,21.233 -3.246,41.722 -9.266,60.998 -0.106,0.485 -0.259,0.952 -0.454,1.396 -9.096,28.404 -24.221,54.134 -43.874,75.668 z"
   id="path16"
   inkscape:connector-curvature="0" />
	<path
   style="fill:#082947"
   d="m 440.252,235 c 0,-63.364 -28.901,-120.1 -74.208,-157.733 -0.53,-0.598 -1.156,-1.107 -1.852,-1.511 C 343.669,59.106 319.88,46.34 293.946,38.577 293.508,38.399 293.048,38.261 292.568,38.166 274.371,32.858 255.14,30 235.252,30 c -19.888,0 -39.119,2.858 -57.316,8.166 -0.48,0.094 -0.94,0.232 -1.378,0.411 -27.776,8.315 -53.094,22.366 -74.572,40.783 -0.712,0.439 -1.348,0.987 -1.876,1.631 C 87.044,92.469 75.441,105.577 65.632,120 c -0.508,0.557 -0.932,1.188 -1.254,1.879 -21.55,32.444 -34.126,71.339 -34.126,113.121 0,37.23 9.98,72.173 27.399,102.298 0.28,0.686 0.657,1.321 1.117,1.888 25.311,42.711 65.673,75.49 113.733,90.979 0.407,0.176 0.835,0.313 1.276,0.415 19.415,6.116 40.065,9.421 61.474,9.421 29.598,0 57.745,-6.315 83.181,-17.652 0.63,-0.191 1.236,-0.458 1.797,-0.808 24.566,-11.235 46.537,-27.188 64.761,-46.688 0.648,-0.502 1.213,-1.105 1.667,-1.79 19.654,-21.534 34.778,-47.264 43.874,-75.667 0.195,-0.445 0.348,-0.912 0.454,-1.396 6.021,-19.278 9.267,-39.767 9.267,-61 z m -205,-148.571 c -21.985,0 -41.173,-14.877 -47.065,-35.525 C 203.243,47.052 219.012,45 235.252,45 c 16.24,0 32.009,2.052 47.065,5.903 -5.892,20.649 -25.08,35.526 -47.065,35.526 z M 72.094,316.853 c 0,-19.446 15.82,-35.266 35.267,-35.266 19.446,0 35.266,15.82 35.266,35.266 v 5.497 c 0,4.142 3.358,7.5 7.5,7.5 h 19.37 c 11.858,0 21.506,9.647 21.506,21.505 0,10.122 -7.177,18.973 -17.066,21.045 -3.474,0.728 -5.961,3.791 -5.961,7.34 v 32.944 C 127.708,397.386 93.948,368.779 72.095,332.257 v -15.404 z m 36.8,-223.613 h 46.107 c 8.521,0 15.455,6.933 15.455,15.455 0,6.44 -4.057,12.267 -10.096,14.5 -2.944,1.089 -4.899,3.896 -4.899,7.035 v 76.879 c -21.108,0.358 -42.394,0.46 -45.81,0.026 -2.151,-0.457 -4.403,0.055 -6.151,1.409 -1.833,1.421 -2.905,3.609 -2.905,5.928 v 14.471 c 0,6.045 -4.918,10.963 -10.963,10.963 -6.045,0 -10.963,-4.918 -10.963,-10.963 v -101.43 c 8.679,-12.605 18.837,-24.112 30.225,-34.273 z m -45.225,60.205 v 75.497 c 0,11.709 7.793,21.628 18.463,24.854 v 19.607 C 70.516,280.174 61.848,291.46 58.554,304.846 49.973,283.216 45.252,259.649 45.252,235 c 0,-29.174 6.617,-56.829 18.417,-81.555 z m 119.306,231.837 c 13.644,-5.442 23.027,-18.855 23.027,-33.928 0,-20.129 -16.376,-36.505 -36.506,-36.505 h -11.909 c -1.056,-26.791 -23.181,-48.263 -50.227,-48.263 -3.504,0 -6.925,0.363 -10.229,1.049 v -13.838 c 10.67,-3.226 18.463,-13.145 18.463,-24.854 v -6.602 c 8.219,0.174 21.541,0.098 39.866,-0.227 v 2.357 c 0,4.142 3.358,7.5 7.5,7.5 4.142,0 7.5,-3.358 7.5,-7.5 v -89.54 c 9.143,-5.41 14.995,-15.381 14.995,-26.237 0,-16.793 -13.662,-30.455 -30.455,-30.455 h -26.982 c 14.031,-9.628 29.409,-17.427 45.795,-23.041 7.768,26.884 32.787,46.23 61.438,46.23 28.651,0 53.67,-19.346 61.438,-46.23 20.573,7.049 39.562,17.535 56.283,30.771 l 0.288,24.43 h -32.41 c -4.142,0 -7.5,3.358 -7.5,7.5 0,4.142 3.358,7.5 7.5,7.5 h 12.5 v 13.086 h -23.926 c -0.419,0 -0.838,0.035 -1.252,0.105 -13.124,2.223 -23.403,14.39 -23.403,27.701 v 13.941 h -48.283 c -4.142,0 -7.5,3.358 -7.5,7.5 v 21.399 c 0,19.515 15.876,35.391 35.391,35.391 14.164,0 26.731,-8.378 32.333,-20.968 12.996,0 46.285,0 58.485,0 6.925,11.87 18.811,20.017 32.28,22.246 v 13.94 H 260.459 c -17.354,0 -31.474,14.119 -31.474,31.474 0,17.355 14.119,31.474 31.474,31.474 h 19.084 v 46.765 c 0,17.335 7.615,33.242 20.545,44.149 -20.241,7.371 -42.077,11.398 -64.836,11.398 -18.124,0 -35.662,-2.554 -52.277,-7.316 z m 133.426,21.491 c -13.563,-7.792 -21.857,-21.794 -21.857,-37.321 v -54.265 c 0,-4.142 -3.358,-7.5 -7.5,-7.5 H 260.46 c -9.083,0 -16.474,-7.39 -16.474,-16.474 0,-9.084 7.39,-16.474 16.474,-16.474 h 134.515 c 4.142,0 7.5,-3.358 7.5,-7.5 v -28.324 c 0,-4.142 -3.358,-7.5 -7.5,-7.5 -12.236,0 -23.369,-7.229 -28.36,-18.418 -1.206,-2.703 -3.889,-4.444 -6.849,-4.444 l -67.596,0.001 c -5.561,0 -7.382,3.438 -7.978,5.658 l -0.056,-0.014 c -2.305,9.022 -10.43,15.324 -19.759,15.324 -11.244,0 -20.391,-9.147 -20.391,-20.391 v -13.899 h 48.283 c 4.142,0 7.5,-3.358 7.5,-7.5 v -21.441 c 0,-5.712 4.788,-11.555 10.373,-12.806 h 30.709 c 4.142,0 7.5,-3.358 7.5,-7.5 v -20.586 h 12.5 c 2.004,0 3.925,-0.802 5.334,-2.228 1.409,-1.426 2.188,-3.356 2.165,-5.36 l -0.218,-18.473 c 35.224,34.509 57.121,82.573 57.121,135.662 0,17.981 -2.512,35.387 -7.201,51.885 h -37.649 c -4.142,0 -7.5,3.358 -7.5,7.5 v 71.45 c -16.066,16.894 -35.203,30.836 -56.502,40.938 z m 71.501,-104.888 h 25.183 c -6.262,16.595 -14.779,32.093 -25.183,46.112 z"
   id="path18"
   inkscape:connector-curvature="0" />
	<path
   style="fill:#082947"
   d="m 267.859,164.532 c 4.142,0 7.5,-3.358 7.5,-7.5 v -7.813 c 0,-4.142 -3.358,-7.5 -7.5,-7.5 -4.142,0 -7.5,3.358 -7.5,7.5 v 7.813 c 0,4.142 3.358,7.5 7.5,7.5 z"
   id="path20"
   inkscape:connector-curvature="0" />
	<path
   style="fill:#000000"
   d="m 462.735,242.516 c -0.04,-0.003 -0.079,0 -0.119,-0.002 -4.079,-0.2 -7.586,2.906 -7.853,6.999 C 447.26,364.739 350.84,455 235.252,455 c -44.492,0 -87.357,-13.222 -123.961,-38.235 -1.936,-1.323 -4.379,-1.664 -6.603,-0.923 L 29.272,440.98 54.411,365.565 c 0.741,-2.224 0.4,-4.667 -0.923,-6.603 C 28.474,322.356 15.252,279.491 15.252,235 c 0,-121.309 98.691,-220 220,-220 115.587,0 212.008,90.261 219.511,205.488 0.267,4.094 3.775,7.21 7.853,6.999 0.04,-0.002 0.079,0.001 0.119,-0.002 4.133,-0.269 7.266,-3.838 6.997,-7.971 C 465.86,160.05 439.752,104.747 396.218,63.794 352.487,22.656 295.322,0 235.252,0 172.481,0 113.468,24.444 69.082,68.83 24.696,113.216 0.252,172.229 0.252,235 c 0,46.271 13.391,90.898 38.763,129.316 l -28.717,86.149 c -0.898,2.695 -0.197,5.666 1.812,7.675 2.008,2.009 4.98,2.71 7.675,1.812 l 86.15,-28.716 C 144.352,456.609 188.98,470 235.252,470 c 60.069,0 117.234,-22.656 160.965,-63.793 43.534,-40.953 69.642,-96.254 73.514,-155.719 0.27,-4.134 -2.863,-7.702 -6.996,-7.972 z"
   id="path22"
   inkscape:connector-curvature="0" />
</g>
<g
   id="g26"
   transform="translate(411.0938,488.15871)">
</g>
<g
   id="g28"
   transform="translate(411.0938,488.15871)">
</g>
<g
   id="g30"
   transform="translate(411.0938,488.15871)">
</g>
<g
   id="g32"
   transform="translate(411.0938,488.15871)">
</g>
<g
   id="g34"
   transform="translate(411.0938,488.15871)">
</g>
<g
   id="g36"
   transform="translate(411.0938,488.15871)">
</g>
<g
   id="g38"
   transform="translate(411.0938,488.15871)">
</g>
<g
   id="g40"
   transform="translate(411.0938,488.15871)">
</g>
<g
   id="g42"
   transform="translate(411.0938,488.15871)">
</g>
<g
   id="g44"
   transform="translate(411.0938,488.15871)">
</g>
<g
   id="g46"
   transform="translate(411.0938,488.15871)">
</g>
<g
   id="g48"
   transform="translate(411.0938,488.15871)">
</g>
<g
   id="g50"
   transform="translate(411.0938,488.15871)">
</g>
<g
   id="g52"
   transform="translate(411.0938,488.15871)">
</g>
<g
   id="g54"
   transform="translate(411.0938,488.15871)">
</g>
<text
   xml:space="preserve"
   style="font-style:normal;font-variant:normal;font-weight:bold;font-stretch:normal;font-size:210.22650146px;line-height:1.25;font-family:sans-serif;-inkscape-font-specification:'sans-serif Bold';text-align:center;letter-spacing:0px;word-spacing:0px;text-anchor:middle;fill:#ff5555;fill-opacity:1;stroke:none;stroke-width:5.25566292"
   x="697.19647"
   y="168.14014"
   id="text65"><tspan
     sodipodi:role="line"
     x="697.19647"
     y="168.14014"
     id="tspan67"
     style="fill:#ff5555;stroke-width:5.25566292">Němčina</tspan><tspan
     sodipodi:role="line"
     x="697.19641"
     y="430.92325"
     id="tspan71"
     style="fill:#ff5555;stroke-width:5.25566292">a Angličtina</tspan></text>


</svg>