<?xml version="1.0" encoding="UTF-8" standalone="no"?>
<!-- Generator: Adobe Illustrator 19.0.0, SVG Export Plug-In . SVG Version: 6.00 Build 0)  -->

<svg
   xmlns:dc="http://purl.org/dc/elements/1.1/"
   xmlns:cc="http://creativecommons.org/ns#"
   xmlns:rdf="http://www.w3.org/1999/02/22-rdf-syntax-ns#"
   xmlns:svg="http://www.w3.org/2000/svg"
   xmlns="http://www.w3.org/2000/svg"
   xmlns:sodipodi="http://sodipodi.sourceforge.net/DTD/sodipodi-0.dtd"
   xmlns:inkscape="http://www.inkscape.org/namespaces/inkscape"
   version="1.1"
   id="Layer_1"
   x="0px"
   y="0px"
   viewBox="0 0 1442.8512 657.43807"
   xml:space="preserve"
   sodipodi:docname="programovani.svg"
   width="1442.8513"
   height="657.43811"
   inkscape:version="0.92.4 (5da689c313, 2019-01-14)"><metadata
   id="metadata55"><rdf:RDF><cc:Work
       rdf:about=""><dc:format>image/svg+xml</dc:format><dc:type
         rdf:resource="http://purl.org/dc/dcmitype/StillImage" /><dc:title></dc:title></cc:Work></rdf:RDF></metadata><defs
   id="defs53" /><sodipodi:namedview
   pagecolor="#ffffff"
   bordercolor="#666666"
   borderopacity="1"
   objecttolerance="10"
   gridtolerance="10"
   guidetolerance="10"
   inkscape:pageopacity="0"
   inkscape:pageshadow="2"
   inkscape:window-width="1920"
   inkscape:window-height="1027"
   id="namedview51"
   showgrid="false"
   fit-margin-top="0"
   fit-margin-left="0"
   fit-margin-right="0"
   fit-margin-bottom="0"
   inkscape:zoom="0.46093387"
   inkscape:cx="681.89284"
   inkscape:cy="410.26509"
   inkscape:window-x="1912"
   inkscape:window-y="-8"
   inkscape:window-maximized="1"
   inkscape:current-layer="Layer_1" />
<g
   id="g18"
   transform="translate(425.89082,-8.829)">
	<path
   style="fill:#b0b6bb"
   d="M 351.108,467.864 H 160.9 c -1.977,0 -2.754,-2.71 -1.095,-3.858 l 15.925,-11.237 c 17.196,-12.129 25.318,-34.348 20.303,-55.526 h 119.949 l -0.009,0.018 c -5.005,21.177 3.125,43.405 20.321,55.526 l 15.916,11.22 c 1.652,1.156 0.875,3.857 -1.102,3.857"
   id="path2"
   inkscape:connector-curvature="0" />
	<path
   style="fill:#e8edee"
   d="M 481.121,397.243 H 30.888 C 13.833,397.243 0,383.419 0,366.364 V 39.708 C 0,22.653 13.833,8.829 30.888,8.829 H 481.121 C 498.176,8.829 512,22.653 512,39.708 v 326.656 c 0,17.055 -13.824,30.879 -30.879,30.879"
   id="path4"
   inkscape:connector-curvature="0" />
	<path
   style="fill:#ed7161"
   d="m 512.004,317.795 h -512 V 39.708 C 0.004,22.653 13.828,8.829 30.883,8.829 h 450.242 c 17.055,0 30.879,13.824 30.879,30.879 z"
   id="path6"
   inkscape:connector-curvature="0" />
	<path
   style="fill:#e8edee"
   d="M 353.107,503.174 H 158.9 c -9.754,0 -17.655,-7.901 -17.655,-17.655 0,-9.754 7.901,-17.655 17.655,-17.655 h 194.207 c 9.754,0 17.655,7.901 17.655,17.655 0,9.754 -7.901,17.655 -17.655,17.655"
   id="path8"
   inkscape:connector-curvature="0" />
	<g
   id="g16">
		<path
   style="fill:#ffffff"
   d="m 203.159,247.174 c -2.26,0 -4.52,-0.865 -6.241,-2.586 l -70.144,-70.144 c -1.05,-0.883 -1.907,-2.022 -2.454,-3.337 -1.359,-3.301 -0.671,-7.097 1.854,-9.622 l 70.682,-70.682 c 3.452,-3.443 9.039,-3.443 12.482,0 3.452,3.452 3.452,9.039 0,12.482 l -64.38,64.38 64.441,64.441 c 3.452,3.452 3.452,9.031 0,12.482 -1.72,1.721 -3.98,2.586 -6.24,2.586"
   id="path10"
   inkscape:connector-curvature="0" />
		<path
   style="fill:#ffffff"
   d="m 309.154,247.234 c -2.26,0 -4.52,-0.865 -6.241,-2.586 -3.452,-3.452 -3.452,-9.031 0,-12.482 l 64.371,-64.38 -64.433,-64.441 c -3.452,-3.443 -3.452,-9.031 0,-12.482 3.443,-3.443 9.031,-3.443 12.482,0 l 70.135,70.135 c 1.059,0.892 1.916,2.03 2.463,3.346 1.368,3.302 0.671,7.097 -1.854,9.622 l -70.682,70.682 c -1.721,1.721 -3.981,2.586 -6.241,2.586"
   id="path12"
   inkscape:connector-curvature="0" />
		<path
   style="fill:#ffffff"
   d="m 238.477,247.174 c -0.715,0 -1.43,-0.079 -2.154,-0.265 -4.723,-1.183 -7.601,-5.976 -6.418,-10.708 L 265.215,94.96 c 1.183,-4.723 5.994,-7.601 10.708,-6.418 4.723,1.183 7.601,5.976 6.418,10.708 l -35.31,141.241 c -1.006,4.008 -4.599,6.683 -8.554,6.683"
   id="path14"
   inkscape:connector-curvature="0" />
	</g>
</g>
<g
   id="g20"
   transform="translate(425.89082,-8.829)">
</g>
<g
   id="g22"
   transform="translate(425.89082,-8.829)">
</g>
<g
   id="g24"
   transform="translate(425.89082,-8.829)">
</g>
<g
   id="g26"
   transform="translate(425.89082,-8.829)">
</g>
<g
   id="g28"
   transform="translate(425.89082,-8.829)">
</g>
<g
   id="g30"
   transform="translate(425.89082,-8.829)">
</g>
<g
   id="g32"
   transform="translate(425.89082,-8.829)">
</g>
<g
   id="g34"
   transform="translate(425.89082,-8.829)">
</g>
<g
   id="g36"
   transform="translate(425.89082,-8.829)">
</g>
<g
   id="g38"
   transform="translate(425.89082,-8.829)">
</g>
<g
   id="g40"
   transform="translate(425.89082,-8.829)">
</g>
<g
   id="g42"
   transform="translate(425.89082,-8.829)">
</g>
<g
   id="g44"
   transform="translate(425.89082,-8.829)">
</g>
<g
   id="g46"
   transform="translate(425.89082,-8.829)">
</g>
<g
   id="g48"
   transform="translate(425.89082,-8.829)">
</g>
<text
   xml:space="preserve"
   style="font-style:normal;font-variant:normal;font-weight:bold;font-stretch:normal;font-size:183.38978577px;line-height:1.25;font-family:sans-serif;-inkscape-font-specification:'sans-serif Bold';letter-spacing:0px;word-spacing:0px;fill:#000000;fill-opacity:1;stroke:none;stroke-width:4.58474493"
   x="-16.83461"
   y="617.85889"
   id="text59"><tspan
     sodipodi:role="line"
     id="tspan57"
     x="-16.83461"
     y="617.85889"
     style="stroke-width:4.58474493">Programování</tspan></text>
</svg>