<?xml version="1.0" encoding="UTF-8" standalone="no"?>
<!-- Generator: Adobe Illustrator 19.0.0, SVG Export Plug-In . SVG Version: 6.00 Build 0)  -->

<svg
   xmlns:dc="http://purl.org/dc/elements/1.1/"
   xmlns:cc="http://creativecommons.org/ns#"
   xmlns:rdf="http://www.w3.org/1999/02/22-rdf-syntax-ns#"
   xmlns:svg="http://www.w3.org/2000/svg"
   xmlns="http://www.w3.org/2000/svg"
   xmlns:sodipodi="http://sodipodi.sourceforge.net/DTD/sodipodi-0.dtd"
   xmlns:inkscape="http://www.inkscape.org/namespaces/inkscape"
   version="1.1"
   id="Layer_1"
   x="0px"
   y="0px"
   viewBox="0 0 1593.9933 702.4328"
   xml:space="preserve"
   sodipodi:docname="prototypy-2.svg"
   width="1593.9933"
   height="702.4328"
   inkscape:version="0.92.4 (5da689c313, 2019-01-14)"><metadata
   id="metadata167"><rdf:RDF><cc:Work
       rdf:about=""><dc:format>image/svg+xml</dc:format><dc:type
         rdf:resource="http://purl.org/dc/dcmitype/StillImage" /><dc:title></dc:title></cc:Work></rdf:RDF></metadata><defs
   id="defs165" /><sodipodi:namedview
   pagecolor="#ffffff"
   bordercolor="#666666"
   borderopacity="1"
   objecttolerance="10"
   gridtolerance="10"
   guidetolerance="10"
   inkscape:pageopacity="0"
   inkscape:pageshadow="2"
   inkscape:window-width="1920"
   inkscape:window-height="1027"
   id="namedview163"
   showgrid="false"
   fit-margin-top="0"
   fit-margin-left="0"
   fit-margin-right="0"
   fit-margin-bottom="0"
   inkscape:zoom="0.47580645"
   inkscape:cx="767.65015"
   inkscape:cy="79.864431"
   inkscape:window-x="-8"
   inkscape:window-y="-8"
   inkscape:window-maximized="1"
   inkscape:current-layer="Layer_1" />
<g
   id="g130"
   transform="matrix(-1,0,0,1,1015.6502,206.43281)">
	<g
   id="g128">
		<g
   id="g126">
			<path
   d="m 448,192 v -48 h 32 V 128 H 464 V 56 C 464,25.128 438.872,0 408,0 377.128,0 352,25.128 352,56 v 72 h -16 v 16 h 32 v 48 H 160 v -48 h 16 V 0 H 32 v 144 h 16 v 48 H 0 V 496 H 496 V 192 Z M 368,56 c 0,-22.056 17.944,-40 40,-40 22.056,0 40,17.944 40,40 v 72 H 432 V 56 h -48 v 16 h 32 v 56 H 400 V 88 h -16 v 40 h -16 z m 64,88 v 48 H 384 V 144 Z M 48,16 H 160 V 128 H 48 Z m 96,128 v 48 H 64 V 144 Z M 480,480 H 16 V 208 h 32 v 80 h 16 v -80 h 80 v 80 h 16 v -80 h 208 v 112 h 16 V 208 h 48 v 112 h 16 V 208 h 32 z"
   id="path2"
   inkscape:connector-curvature="0" />
			<rect
   x="176"
   y="240"
   width="16"
   height="16"
   id="rect4" />
			<rect
   x="304"
   y="240"
   width="16"
   height="16"
   id="rect6" />
			<path
   d="m 304,288 h -16 v -16 h -16 v 16 h -16 v -16 h -16 v 16 h -16 v -16 h -16 v 16 h -16 v -16 h -16 v 16 112 16 h 16 v -16 h 16 v 16 h 16 v -16 h 16 v 16 h 16 v -16 h 16 v 16 h 16 v -16 h 16 v 16 h 16 V 400 288 272 h -16 z m 0,96 H 192 v -80 h 112 z"
   id="path8"
   inkscape:connector-curvature="0" />
			<rect
   x="144"
   y="304"
   width="16"
   height="16"
   id="rect10" />
			<rect
   x="112"
   y="240"
   width="16"
   height="16"
   id="rect12" />
			<rect
   x="112"
   y="272"
   width="16"
   height="16"
   id="rect14" />
			<rect
   x="112"
   y="304"
   width="16"
   height="16"
   id="rect16" />
			<rect
   x="80"
   y="240"
   width="16"
   height="16"
   id="rect18" />
			<rect
   x="80"
   y="272"
   width="16"
   height="16"
   id="rect20" />
			<rect
   x="80"
   y="304"
   width="16"
   height="16"
   id="rect22" />
			<rect
   x="48"
   y="304"
   width="16"
   height="16"
   id="rect24" />
			<rect
   x="336"
   y="240"
   width="16"
   height="16"
   id="rect26" />
			<rect
   x="400"
   y="240"
   width="16"
   height="16"
   id="rect28" />
			<rect
   x="336"
   y="272"
   width="16"
   height="16"
   id="rect30" />
			<rect
   x="208"
   y="240"
   width="16"
   height="16"
   id="rect32" />
			<rect
   x="240"
   y="240"
   width="16"
   height="16"
   id="rect34" />
			<rect
   x="272"
   y="240"
   width="16"
   height="16"
   id="rect36" />
			<rect
   x="400"
   y="272"
   width="16"
   height="16"
   id="rect38" />
			<rect
   x="336"
   y="304"
   width="16"
   height="16"
   id="rect40" />
			<rect
   x="400"
   y="304"
   width="16"
   height="16"
   id="rect42" />
			<rect
   x="48"
   y="336"
   width="16"
   height="16"
   id="rect44" />
			<rect
   x="80"
   y="336"
   width="16"
   height="16"
   id="rect46" />
			<rect
   x="112"
   y="336"
   width="16"
   height="16"
   id="rect48" />
			<rect
   x="144"
   y="336"
   width="16"
   height="16"
   id="rect50" />
			<rect
   x="336"
   y="336"
   width="16"
   height="16"
   id="rect52" />
			<rect
   x="368"
   y="336"
   width="16"
   height="16"
   id="rect54" />
			<rect
   x="400"
   y="336"
   width="16"
   height="16"
   id="rect56" />
			<rect
   x="432"
   y="336"
   width="16"
   height="16"
   id="rect58" />
			<rect
   x="48"
   y="368"
   width="16"
   height="16"
   id="rect60" />
			<rect
   x="80"
   y="368"
   width="16"
   height="16"
   id="rect62" />
			<rect
   x="112"
   y="368"
   width="16"
   height="16"
   id="rect64" />
			<rect
   x="144"
   y="368"
   width="16"
   height="16"
   id="rect66" />
			<rect
   x="336"
   y="368"
   width="16"
   height="16"
   id="rect68" />
			<rect
   x="368"
   y="368"
   width="16"
   height="16"
   id="rect70" />
			<rect
   x="400"
   y="368"
   width="16"
   height="16"
   id="rect72" />
			<rect
   x="432"
   y="368"
   width="16"
   height="16"
   id="rect74" />
			<rect
   x="48"
   y="400"
   width="16"
   height="16"
   id="rect76" />
			<rect
   x="80"
   y="400"
   width="16"
   height="16"
   id="rect78" />
			<rect
   x="112"
   y="400"
   width="16"
   height="16"
   id="rect80" />
			<rect
   x="144"
   y="400"
   width="16"
   height="16"
   id="rect82" />
			<rect
   x="336"
   y="400"
   width="16"
   height="16"
   id="rect84" />
			<rect
   x="368"
   y="400"
   width="16"
   height="16"
   id="rect86" />
			<rect
   x="400"
   y="400"
   width="16"
   height="16"
   id="rect88" />
			<rect
   x="432"
   y="400"
   width="16"
   height="16"
   id="rect90" />
			<rect
   x="48"
   y="432"
   width="16"
   height="16"
   id="rect92" />
			<rect
   x="80"
   y="432"
   width="16"
   height="16"
   id="rect94" />
			<rect
   x="112"
   y="432"
   width="16"
   height="16"
   id="rect96" />
			<rect
   x="144"
   y="432"
   width="16"
   height="16"
   id="rect98" />
			<rect
   x="176"
   y="432"
   width="16"
   height="16"
   id="rect100" />
			<rect
   x="208"
   y="432"
   width="16"
   height="16"
   id="rect102" />
			<rect
   x="240"
   y="432"
   width="16"
   height="16"
   id="rect104" />
			<rect
   x="272"
   y="432"
   width="16"
   height="16"
   id="rect106" />
			<rect
   x="304"
   y="432"
   width="16"
   height="16"
   id="rect108" />
			<rect
   x="336"
   y="432"
   width="16"
   height="16"
   id="rect110" />
			<rect
   x="368"
   y="432"
   width="16"
   height="16"
   id="rect112" />
			<rect
   x="400"
   y="432"
   width="16"
   height="16"
   id="rect114" />
			<rect
   x="432"
   y="432"
   width="16"
   height="16"
   id="rect116" />
			<path
   d="m 104,32 c -22.056,0 -40,17.944 -40,40 0,22.056 17.944,40 40,40 22.056,0 40,-17.944 40,-40 0,-22.056 -17.944,-40 -40,-40 z m 0,64 C 93.584,96 84.784,89.288 81.472,80 H 126.52 C 123.216,89.288 114.416,96 104,96 Z M 81.48,64 C 84.784,54.712 93.584,48 104,48 c 10.416,0 19.216,6.712 22.528,16 z"
   id="path118"
   inkscape:connector-curvature="0" />
			<rect
   x="208"
   y="320"
   width="16"
   height="16"
   id="rect120" />
			<rect
   x="240"
   y="320"
   width="48"
   height="16"
   id="rect122" />
			<rect
   x="208"
   y="352"
   width="80"
   height="16"
   id="rect124" />
		<path
   style="fill:#ff0000;stroke-width:2.10169482"
   d="m 565.89916,89.847433 c 0.006,-19.939831 0.98856,-39.771477 2.18247,-44.070326 6.10642,-21.987115 31.1582,-34.403638 51.91504,-25.730876 9.98368,4.171448 14.75801,8.594434 19.67374,18.225949 3.49282,6.843585 3.97974,12.69359 3.97974,47.813559 v 40.015931 h -6.30508 -6.30509 v -19.9661 -19.966103 h -9.45762 -9.45763 v 19.966103 19.9661 h -6.30508 -6.30509 V 99.830484 73.559297 h 15.76271 15.76271 V 64.10167 54.644043 h -25.22033 -25.22034 v 35.728813 35.728814 h -7.35594 -7.35593 z"
   id="path88"
   inkscape:connector-curvature="0"
   transform="matrix(-1,0,0,1,1013.5485,0)" /><path
   style="fill:#008080;stroke-width:2.10169482"
   d="M 853.81965,71.457602 V 16.813534 h 55.69491 55.69492 v 54.644068 54.644068 h -55.69492 -55.69491 z m 75.66101,35.977078 c 16.85112,-8.648203 25.0368,-31.149947 18.01773,-49.529145 -12.85796,-33.668075 -57.6884,-35.612406 -74.23807,-3.219761 -5.91353,11.574553 -6.01716,23.291805 -0.31027,35.080668 10.17586,21.020528 34.926,28.756008 56.53061,17.668238 z"
   id="path90"
   inkscape:connector-curvature="0"
   transform="matrix(-1,0,0,1,1013.5485,0)" /><path
   style="fill:#008080;stroke-width:2.10169482"
   d="m 898.5574,63.5971 c 6.68882,-0.418342 17.09221,-0.414463 23.11865,0.0086 6.02644,0.423084 0.55377,0.765364 -12.16149,0.760622 -12.71525,-0.0047 -17.64597,-0.350901 -10.95716,-0.769243 z"
   id="path92"
   inkscape:connector-curvature="0"
   transform="matrix(-1,0,0,1,1013.5485,0)" /><path
   style="fill:#008080;stroke-width:2.10169482"
   d="m 890.03126,60.551583 c 1.65687,-4.970605 12.29729,-10.951608 19.4833,-10.951608 4.06458,0 9.85054,1.882453 12.98971,4.226185 10.63653,7.941314 8.82938,9.224662 -12.98971,9.224662 -14.7646,0 -20.08873,-0.682957 -19.4833,-2.499239 z"
   id="path96"
   inkscape:connector-curvature="0"
   transform="matrix(-1,0,0,1,1013.5485,0)" /><path
   style="fill:#008080;stroke-width:2.10169482"
   d="m 897.67902,91.403007 c -3.04175,-1.652721 -6.08579,-4.452142 -6.76455,-6.220938 -1.05406,-2.746854 1.65926,-3.215992 18.60009,-3.215992 16.97904,0 19.65574,0.464999 18.59461,3.230274 -3.16365,8.244339 -20.26157,11.731701 -30.43015,6.206656 z"
   id="path98"
   inkscape:connector-curvature="0"
   transform="matrix(-1,0,0,1,1013.5485,0)" /><path
   style="fill:#008080;stroke-width:2.10169482"
   d="m 710.90439,343.62709 v -38.88135 h 54.64407 54.64407 v 38.88135 38.88136 h -54.64407 -54.64407 z m 94.57627,16.81356 v -9.45762 h -39.9322 -39.9322 v 9.45762 9.45763 h 39.9322 39.9322 z m -31.52542,-32.57627 v -8.40678 h -24.16949 -24.16949 v 8.40678 8.40678 h 24.16949 24.16949 z m 31.52542,0 v -8.40678 h -8.40678 -8.40678 v 8.40678 8.40678 h 8.40678 8.40678 z"
   id="path100"
   inkscape:connector-curvature="0"
   transform="matrix(-1,0,0,1,1013.5485,0)" /></g>
	</g>
</g>
<g
   id="g132"
   transform="translate(519.65015,206.43281)">
</g>
<g
   id="g134"
   transform="translate(519.65015,206.43281)">
</g>
<g
   id="g136"
   transform="translate(519.65015,206.43281)">
</g>
<g
   id="g138"
   transform="translate(519.65015,206.43281)">
</g>
<g
   id="g140"
   transform="translate(519.65015,206.43281)">
</g>
<g
   id="g142"
   transform="translate(519.65015,206.43281)">
</g>
<g
   id="g144"
   transform="translate(519.65015,206.43281)">
</g>
<g
   id="g146"
   transform="translate(519.65015,206.43281)">
</g>
<g
   id="g148"
   transform="translate(519.65015,206.43281)">
</g>
<g
   id="g150"
   transform="translate(519.65015,206.43281)">
</g>
<g
   id="g152"
   transform="translate(519.65015,206.43281)">
</g>
<g
   id="g154"
   transform="translate(519.65015,206.43281)">
</g>
<g
   id="g156"
   transform="translate(519.65015,206.43281)">
</g>
<g
   id="g158"
   transform="translate(519.65015,206.43281)">
</g>
<g
   id="g160"
   transform="translate(519.65015,206.43281)">
</g>
<text
   xml:space="preserve"
   style="font-style:normal;font-variant:normal;font-weight:bold;font-stretch:normal;font-size:200.46044922px;line-height:1.25;font-family:sans-serif;-inkscape-font-specification:'sans-serif Bold';letter-spacing:0px;word-spacing:0px;fill:#000000;fill-opacity:1;stroke:none;stroke-width:5.01151228"
   x="-18.401642"
   y="160.32921"
   id="text171"><tspan
     sodipodi:role="line"
     id="tspan169"
     x="-18.401642"
     y="160.32921"
     style="fill:#000000;stroke-width:5.01151228">Prototypování</tspan></text>

</svg>