<?xml version="1.0" encoding="UTF-8" standalone="no"?>
<!-- Generator: Adobe Illustrator 19.0.0, SVG Export Plug-In . SVG Version: 6.00 Build 0)  -->

<svg
   xmlns:dc="http://purl.org/dc/elements/1.1/"
   xmlns:cc="http://creativecommons.org/ns#"
   xmlns:rdf="http://www.w3.org/1999/02/22-rdf-syntax-ns#"
   xmlns:svg="http://www.w3.org/2000/svg"
   xmlns="http://www.w3.org/2000/svg"
   xmlns:sodipodi="http://sodipodi.sourceforge.net/DTD/sodipodi-0.dtd"
   xmlns:inkscape="http://www.inkscape.org/namespaces/inkscape"
   version="1.1"
   id="Layer_1"
   x="0px"
   y="0px"
   viewBox="0 0 1323.77 941.93781"
   xml:space="preserve"
   sodipodi:docname="prumyslova-elektronika.svg"
   width="1323.77"
   height="941.93781"
   inkscape:version="0.92.4 (5da689c313, 2019-01-14)"><metadata
   id="metadata59"><rdf:RDF><cc:Work
       rdf:about=""><dc:format>image/svg+xml</dc:format><dc:type
         rdf:resource="http://purl.org/dc/dcmitype/StillImage" /><dc:title></dc:title></cc:Work></rdf:RDF></metadata><defs
   id="defs57" /><sodipodi:namedview
   pagecolor="#ffffff"
   bordercolor="#666666"
   borderopacity="1"
   objecttolerance="10"
   gridtolerance="10"
   guidetolerance="10"
   inkscape:pageopacity="0"
   inkscape:pageshadow="2"
   inkscape:window-width="1920"
   inkscape:window-height="1027"
   id="namedview55"
   showgrid="false"
   fit-margin-top="0"
   fit-margin-left="0"
   fit-margin-right="0"
   fit-margin-bottom="0"
   inkscape:zoom="0.4609375"
   inkscape:cx="618.71464"
   inkscape:cy="685.93778"
   inkscape:window-x="1912"
   inkscape:window-y="-8"
   inkscape:window-maximized="1"
   inkscape:current-layer="Layer_1" />
<polygon
   style="fill:#f07057"
   points="452.034,44.913 386.952,44.913 385.69,81.868 453.297,81.868 "
   id="polygon2"
   transform="translate(362.71464)" />
<g
   id="g10"
   transform="translate(362.71464)">
	<polygon
   style="fill:#e8e8e8"
   points="450.848,10.199 388.138,10.199 386.952,44.913 452.034,44.913 "
   id="polygon4" />
	<polygon
   style="fill:#e8e8e8"
   points="385.69,81.868 371.341,501.801 467.646,501.801 453.297,81.868 "
   id="polygon6" />
	<rect
   x="44.353001"
   y="336.064"
   style="fill:#e8e8e8"
   width="163.493"
   height="165.737"
   id="rect8" />
</g>
<polygon
   style="fill:#f07057"
   points="44.353,336.067 207.847,336.067 44.353,239.763 "
   id="polygon12"
   transform="translate(362.71464)" />
<rect
   x="570.56366"
   y="336.064"
   style="fill:#e8e8e8"
   width="163.493"
   height="165.737"
   id="rect14" />
<polygon
   style="fill:#f07057"
   points="371.341,336.067 207.847,239.763 207.847,336.067 "
   id="polygon16"
   transform="translate(362.71464)" />
<path
   d="m 729.99964,321.841 -154.262,-90.867 c -3.155,-1.858 -7.061,-1.884 -10.237,-0.067 -3.177,1.816 -5.138,5.195 -5.138,8.855 v 78.46 l -148.118,-87.248 c -3.155,-1.858 -7.06,-1.884 -10.237,-0.067 -3.177,1.816 -5.138,5.195 -5.138,8.855 v 262.039 c 0,5.633 4.567,10.199 10.199,10.199 h 423.292 c 2.765,0 5.413,-1.123 7.333,-3.112 1.923,-1.989 2.954,-4.672 2.86,-7.436 L 823.75564,9.85 C 823.56964,4.356 819.06064,0 813.56264,0 h -62.71 c -5.497,0 -10.006,4.357 -10.193,9.851 z m 29.525,-266.728 h 45.368 l 0.566,16.555 h -46.5 z m 1.185,-34.715 h 42.997 l 0.489,14.317 h -43.974 z m -179.949,237.209 115.884,68.261 h -115.884 z m -163.494,0 115.884,68.261 h -115.884 z m 0,88.659 h 143.096 v 145.336 h -143.096 z m 306.59,145.336 h -143.096 V 346.266 h 143.096 z m 20.754,0 13.652,-399.534 h 47.894 l 13.651,399.534 z"
   id="path18"
   inkscape:connector-curvature="0" />
<path
   d="m 525.76864,460.246 h -3.36 c -5.632,0 -10.199,4.566 -10.199,10.199 0,5.633 4.567,10.199 10.199,10.199 h 3.36 c 5.632,0 10.199,-4.566 10.199,-10.199 0,-5.633 -4.566,-10.199 -10.199,-10.199 z"
   id="path20"
   inkscape:connector-curvature="0" />
<path
   d="m 485.45564,460.246 h -47.033 c -5.632,0 -10.199,4.566 -10.199,10.199 0,5.633 4.567,10.199 10.199,10.199 h 47.032 c 5.632,0 10.199,-4.566 10.199,-10.199 0,-5.633 -4.566,-10.199 -10.198,-10.199 z"
   id="path22"
   inkscape:connector-curvature="0" />
<g
   id="g24"
   transform="translate(362.71464)">
</g>
<g
   id="g26"
   transform="translate(362.71464)">
</g>
<g
   id="g28"
   transform="translate(362.71464)">
</g>
<g
   id="g30"
   transform="translate(362.71464)">
</g>
<g
   id="g32"
   transform="translate(362.71464)">
</g>
<g
   id="g34"
   transform="translate(362.71464)">
</g>
<g
   id="g36"
   transform="translate(362.71464)">
</g>
<g
   id="g38"
   transform="translate(362.71464)">
</g>
<g
   id="g40"
   transform="translate(362.71464)">
</g>
<g
   id="g42"
   transform="translate(362.71464)">
</g>
<g
   id="g44"
   transform="translate(362.71464)">
</g>
<g
   id="g46"
   transform="translate(362.71464)">
</g>
<g
   id="g48"
   transform="translate(362.71464)">
</g>
<g
   id="g50"
   transform="translate(362.71464)">
</g>
<g
   id="g52"
   transform="translate(362.71464)">
</g>
<text
   xml:space="preserve"
   style="font-style:normal;font-variant:normal;font-weight:bold;font-stretch:normal;font-size:204.68711853px;line-height:1.25;font-family:sans-serif;-inkscape-font-specification:'sans-serif Bold';letter-spacing:0px;word-spacing:0px;fill:#000000;fill-opacity:1;stroke:none;stroke-width:5.11717749"
   x="-8.7951498"
   y="683.18048"
   id="text63"><tspan
     sodipodi:role="line"
     id="tspan61"
     x="-8.7951498"
     y="683.18048"
     style="stroke-width:5.11717749">Průmyslová</tspan><tspan
     sodipodi:role="line"
     x="-8.7951498"
     y="939.03937"
     style="stroke-width:5.11717749"
     id="tspan34">elektronika</tspan></text>

</svg>