<?xml version="1.0" encoding="UTF-8" standalone="no"?>
<!-- Generator: Adobe Illustrator 19.0.0, SVG Export Plug-In . SVG Version: 6.00 Build 0)  -->

<svg
   xmlns:dc="http://purl.org/dc/elements/1.1/"
   xmlns:cc="http://creativecommons.org/ns#"
   xmlns:rdf="http://www.w3.org/1999/02/22-rdf-syntax-ns#"
   xmlns:svg="http://www.w3.org/2000/svg"
   xmlns="http://www.w3.org/2000/svg"
   xmlns:sodipodi="http://sodipodi.sourceforge.net/DTD/sodipodi-0.dtd"
   xmlns:inkscape="http://www.inkscape.org/namespaces/inkscape"
   version="1.1"
   id="Layer_1"
   x="0px"
   y="0px"
   viewBox="0 0 1370.5202 973.38782"
   xml:space="preserve"
   sodipodi:docname="prumyslova-elektronika-2.svg"
   width="1370.5203"
   height="973.38782"
   inkscape:version="0.92.4 (5da689c313, 2019-01-14)"><metadata
   id="metadata59"><rdf:RDF><cc:Work
       rdf:about=""><dc:format>image/svg+xml</dc:format><dc:type
         rdf:resource="http://purl.org/dc/dcmitype/StillImage" /><dc:title></dc:title></cc:Work></rdf:RDF></metadata><defs
   id="defs57" /><sodipodi:namedview
   pagecolor="#ffffff"
   bordercolor="#666666"
   borderopacity="1"
   objecttolerance="10"
   gridtolerance="10"
   guidetolerance="10"
   inkscape:pageopacity="0"
   inkscape:pageshadow="2"
   inkscape:window-width="1920"
   inkscape:window-height="1027"
   id="namedview55"
   showgrid="false"
   fit-margin-top="0"
   fit-margin-left="0"
   fit-margin-right="0"
   fit-margin-bottom="0"
   inkscape:zoom="0.4609375"
   inkscape:cx="627.24596"
   inkscape:cy="255.99999"
   inkscape:window-x="1912"
   inkscape:window-y="-8"
   inkscape:window-maximized="1"
   inkscape:current-layer="Layer_1" />
<polygon
   style="fill:#f07057"
   points="453.297,81.868 452.034,44.913 386.952,44.913 385.69,81.868 "
   id="polygon2"
   transform="matrix(-1,0,0,1,883.24587,461.3878)" />
<g
   id="g10"
   transform="matrix(-1,0,0,1,883.24587,461.3878)">
	<polygon
   style="fill:#e8e8e8"
   points="452.034,44.913 450.848,10.199 388.138,10.199 386.952,44.913 "
   id="polygon4" />
	<polygon
   style="fill:#e8e8e8"
   points="453.297,81.868 385.69,81.868 371.341,501.801 467.646,501.801 "
   id="polygon6" />
	<rect
   x="44.353001"
   y="336.064"
   style="fill:#e8e8e8"
   width="163.493"
   height="165.737"
   id="rect8" />
</g>
<polygon
   style="fill:#f07057"
   points="44.353,336.067 207.847,336.067 44.353,239.763 "
   id="polygon12"
   transform="matrix(-1,0,0,1,883.24587,461.3878)" />
<rect
   x="-675.39691"
   y="797.45178"
   style="fill:#e8e8e8"
   width="163.493"
   height="165.737"
   id="rect14"
   transform="scale(-1,1)" />
<polygon
   style="fill:#f07057"
   points="371.341,336.067 207.847,239.763 207.847,336.067 "
   id="polygon16"
   transform="matrix(-1,0,0,1,883.24587,461.3878)" />
<path
   d="m 515.96087,783.2288 154.262,-90.867 c 3.155,-1.858 7.061,-1.884 10.237,-0.067 3.177,1.816 5.138,5.195 5.138,8.855 v 78.46 l 148.118,-87.248 c 3.155,-1.858 7.06,-1.884 10.237,-0.067 3.177,1.816 5.138,5.195 5.138,8.855 v 262.039 c 0,5.633 -4.567,10.199 -10.199,10.199 h -423.292 c -2.765,0 -5.413,-1.123 -7.333,-3.112 -1.923,-1.989 -2.954,-4.672 -2.86,-7.436 l 16.798,-491.602 c 0.186,-5.494 4.695,-9.85 10.193,-9.85 h 62.71 c 5.497,0 10.006,4.357 10.193,9.851 z m -29.525,-266.728 h -45.368 l -0.566,16.555 h 46.5 z m -1.185,-34.715 h -42.997 l -0.489,14.317 h 43.974 z m 179.949,237.209 -115.884,68.261 h 115.884 z m 163.494,0 -115.884,68.261 h 115.884 z m 0,88.659 h -143.096 v 145.336 h 143.096 z m -306.59,145.336 h 143.096 v -145.336 h -143.096 z m -20.754,0 -13.652,-399.534 h -47.894 l -13.651,399.534 z"
   id="path18"
   inkscape:connector-curvature="0" />
<path
   d="m 720.19187,921.6338 h 3.36 c 5.632,0 10.199,4.566 10.199,10.199 0,5.633 -4.567,10.199 -10.199,10.199 h -3.36 c -5.632,0 -10.199,-4.566 -10.199,-10.199 0,-5.633 4.566,-10.199 10.199,-10.199 z"
   id="path20"
   inkscape:connector-curvature="0" />
<path
   d="m 760.50487,921.6338 h 47.033 c 5.632,0 10.199,4.566 10.199,10.199 0,5.633 -4.567,10.199 -10.199,10.199 h -47.032 c -5.632,0 -10.199,-4.566 -10.199,-10.199 0,-5.633 4.566,-10.199 10.198,-10.199 z"
   id="path22"
   inkscape:connector-curvature="0" />
<g
   id="g24"
   transform="translate(371.24596,461.3878)">
</g>
<g
   id="g26"
   transform="translate(371.24596,461.3878)">
</g>
<g
   id="g28"
   transform="translate(371.24596,461.3878)">
</g>
<g
   id="g30"
   transform="translate(371.24596,461.3878)">
</g>
<g
   id="g32"
   transform="translate(371.24596,461.3878)">
</g>
<g
   id="g34"
   transform="translate(371.24596,461.3878)">
</g>
<g
   id="g36"
   transform="translate(371.24596,461.3878)">
</g>
<g
   id="g38"
   transform="translate(371.24596,461.3878)">
</g>
<g
   id="g40"
   transform="translate(371.24596,461.3878)">
</g>
<g
   id="g42"
   transform="translate(371.24596,461.3878)">
</g>
<g
   id="g44"
   transform="translate(371.24596,461.3878)">
</g>
<g
   id="g46"
   transform="translate(371.24596,461.3878)">
</g>
<g
   id="g48"
   transform="translate(371.24596,461.3878)">
</g>
<g
   id="g50"
   transform="translate(371.24596,461.3878)">
</g>
<g
   id="g52"
   transform="translate(371.24596,461.3878)">
</g>
<text
   xml:space="preserve"
   style="font-style:normal;font-variant:normal;font-weight:bold;font-stretch:normal;font-size:211.91584778px;line-height:1.25;font-family:sans-serif;-inkscape-font-specification:'sans-serif Bold';letter-spacing:0px;word-spacing:0px;fill:#ff5555;fill-opacity:1;stroke:none;stroke-width:5.29789639"
   x="-9.1057587"
   y="186.77153"
   id="text63"><tspan
     sodipodi:role="line"
     id="tspan61"
     x="-9.1057587"
     y="186.77153"
     style="fill:#ff5555;stroke-width:5.29789639">Průmyslová</tspan><tspan
     sodipodi:role="line"
     x="-9.1057587"
     y="451.66635"
     style="fill:#ff5555;stroke-width:5.29789639"
     id="tspan37">elektronika</tspan></text>


<path
   style="fill:#00ffff;stroke-width:2.16949153"
   d="m 553.66404,786.02059 c 1.70275,-1.48987 108.78925,-64.29381 109.62686,-64.29381 0.46003,0 0.83642,14.64407 0.83642,32.54237 v 32.54238 H 608.4437 c -30.62599,0 -55.27684,-0.35593 -54.77966,-0.79094 z"
   id="path34"
   inkscape:connector-curvature="0" /><path
   style="fill:#00ffff;stroke-width:2.16949153"
   d="m 719.55782,784.93059 c 1.50575,-1.37418 92.65945,-55.34546 105.65424,-62.55691 0.89492,-0.49664 1.62712,13.79871 1.62712,31.76744 v 32.67041 h -54.67119 c -30.99456,0 -53.77861,-0.81459 -52.61017,-1.88094 z"
   id="path36"
   inkscape:connector-curvature="0" /><path
   style="fill:#00ffff;stroke-width:2.16949153"
   d="m 440.69931,530.26915 c 0.0163,-1.49153 0.6183,-4.90848 1.33778,-7.59322 1.24472,-4.64464 2.34794,-4.88136 22.75004,-4.88136 h 21.44188 v 7.59322 7.59322 h -22.77966 c -16.7932,0 -22.77188,-0.71267 -22.75004,-2.71186 z"
   id="path40"
   inkscape:connector-curvature="0" /></svg>