<?xml version="1.0" encoding="UTF-8" standalone="no"?>
<!-- Generator: Adobe Illustrator 19.0.0, SVG Export Plug-In . SVG Version: 6.00 Build 0)  -->

<svg
   xmlns:dc="http://purl.org/dc/elements/1.1/"
   xmlns:cc="http://creativecommons.org/ns#"
   xmlns:rdf="http://www.w3.org/1999/02/22-rdf-syntax-ns#"
   xmlns:svg="http://www.w3.org/2000/svg"
   xmlns="http://www.w3.org/2000/svg"
   xmlns:sodipodi="http://sodipodi.sourceforge.net/DTD/sodipodi-0.dtd"
   xmlns:inkscape="http://www.inkscape.org/namespaces/inkscape"
   version="1.1"
   id="Layer_1"
   x="0px"
   y="0px"
   viewBox="0 0 1313.2206 976.28869"
   xml:space="preserve"
   sodipodi:docname="quality-assurance.svg"
   width="1313.2206"
   height="976.2887"
   inkscape:version="0.92.4 (5da689c313, 2019-01-14)"><metadata
   id="metadata59"><rdf:RDF><cc:Work
       rdf:about=""><dc:format>image/svg+xml</dc:format><dc:type
         rdf:resource="http://purl.org/dc/dcmitype/StillImage" /><dc:title></dc:title></cc:Work></rdf:RDF></metadata><defs
   id="defs57" /><sodipodi:namedview
   pagecolor="#ffffff"
   bordercolor="#666666"
   borderopacity="1"
   objecttolerance="10"
   gridtolerance="10"
   guidetolerance="10"
   inkscape:pageopacity="0"
   inkscape:pageshadow="2"
   inkscape:window-width="1920"
   inkscape:window-height="1027"
   id="namedview55"
   showgrid="false"
   fit-margin-top="0"
   fit-margin-left="0"
   fit-margin-right="0"
   fit-margin-bottom="0"
   inkscape:zoom="0.4609375"
   inkscape:cx="643.02882"
   inkscape:cy="255.99972"
   inkscape:window-x="1912"
   inkscape:window-y="-8"
   inkscape:window-maximized="1"
   inkscape:current-layer="Layer_1" />
<path
   style="fill:#ff6464"
   d="m 810.25982,935.89498 -77.852,-226.499 h -178.758 l -77.852,226.499 c -2.292,6.668 3.773,13.199 10.592,11.407 l 45.614,-11.985 28.606,37.495 c 4.277,5.606 13.075,4.183 15.367,-2.485 l 67.052,-195.079 67.052,195.08 c 2.292,6.667 11.09,8.091 15.367,2.485 l 28.606,-37.495 45.614,11.985 c 6.819,1.79 12.884,-4.74 10.592,-11.408 z"
   id="path2"
   inkscape:connector-curvature="0" />
<path
   style="fill:#d2555a"
   d="m 761.67382,794.54198 -29.266,-85.146 h -178.758 l -29.266,85.146 c 27.811,21.5 61.586,35.651 98.451,39.46 l 20.194,-58.754 20.194,58.753 c 36.865,-3.809 70.64,-17.96 98.451,-39.459 z"
   id="path4"
   inkscape:connector-curvature="0" />
<circle
   style="fill:#ffc36e"
   cx="643.02881"
   cy="640.841"
   r="176.552"
   id="circle6" />
<path
   style="fill:#ffd782"
   d="m 643.02882,464.28898 c -97.507,0 -176.552,79.044 -176.552,176.552 0,97.506 79.044,176.552 176.552,176.552 97.508,0 176.552,-79.046 176.552,-176.552 0,-97.508 -79.045,-176.552 -176.552,-176.552 z m 0,326.621 c -82.881,0 -150.069,-67.188 -150.069,-150.069 0,-82.881 67.188,-150.069 150.069,-150.069 82.881,0 150.069,67.188 150.069,150.069 0,82.881 -67.188,150.069 -150.069,150.069 z"
   id="path8"
   inkscape:connector-curvature="0" />

<path
   style="fill:#ffd782"
   d="m 643.63382,696.25098 -43.535,22.888 c -7.207,3.789 -15.629,-2.33 -14.253,-10.356 l 8.314,-48.477 -35.221,-34.332 c -5.831,-5.683 -2.613,-15.585 5.444,-16.756 l 48.673,-7.073 21.768,-44.106 c 3.604,-7.302 14.015,-7.302 17.618,0 l 21.768,44.106 48.673,7.073 c 8.057,1.171 11.275,11.073 5.444,16.756 l -35.221,34.332 8.314,48.477 c 1.376,8.025 -7.047,14.144 -14.253,10.356 z"
   id="path12"
   inkscape:connector-curvature="0" />
<path
   style="fill:#ebb45f"
   d="m 643.63382,552.56498 c 3.503,0 7.007,1.825 8.809,5.476 l 21.768,44.106 48.673,7.073 c 8.057,1.171 11.275,11.073 5.444,16.756 l -35.22,34.332 8.314,48.477 c 1.089,6.349 -3.957,11.506 -9.681,11.506 -1.511,0 -3.069,-0.359 -4.573,-1.15 l -43.534,-22.888 -43.534,22.888 c -1.504,0.791 -3.063,1.15 -4.573,1.15 -5.725,0 -10.77,-5.156 -9.681,-11.506 l 8.314,-48.477 -35.22,-34.332 c -5.831,-5.683 -2.613,-15.585 5.444,-16.756 l 48.673,-7.073 21.768,-44.106 c 1.801,-3.651 5.305,-5.476 8.809,-5.476 m 0,-17.655 c -10.536,0 -19.978,5.869 -24.641,15.318 l -17.66,35.783 -39.488,5.738 c -10.426,1.515 -18.926,8.681 -22.183,18.701 -3.256,10.02 -0.591,20.814 6.954,28.169 l 28.574,27.852 -6.745,39.329 c -1.374,8.008 0.828,16.143 6.037,22.324 5.262,6.242 12.934,9.822 21.045,9.822 4.412,0 8.834,-1.099 12.789,-3.178 l 35.319,-18.569 35.319,18.569 c 3.955,2.079 8.377,3.178 12.789,3.178 8.111,0 15.782,-3.581 21.045,-9.823 5.209,-6.179 7.411,-14.316 6.037,-22.323 l -6.745,-39.329 28.574,-27.852 c 7.545,-7.354 10.209,-18.148 6.954,-28.169 -3.256,-10.02 -11.756,-17.186 -22.183,-18.701 l -39.488,-5.738 -17.66,-35.783 c -4.665,-9.449 -14.108,-15.318 -24.643,-15.318 z"
   id="path14"
   inkscape:connector-curvature="0" />
<path
   style="fill:#ffe6a0"
   d="m 722.88282,609.21898 -48.673,-7.073 -21.768,-44.106 c -3.604,-7.302 -14.015,-7.302 -17.618,0 l -13.976,28.32 77.308,131.423 c 2.421,-2.108 3.896,-5.325 3.266,-9 l -8.314,-48.477 35.22,-34.332 c 5.829,-5.683 2.613,-15.584 -5.445,-16.755 z"
   id="path16"
   inkscape:connector-curvature="0" />
<g
   id="g22"
   transform="translate(387.02882,464.28898)">
	<path
   style="fill:#ffffff"
   d="m 361.07,84.531 c -15.236,-3.474 -27.231,-15.468 -30.705,-30.706 -0.262,-1.148 -1.781,-1.148 -2.042,0 -3.474,15.236 -15.468,27.231 -30.705,30.706 -1.148,0.262 -1.148,1.781 0,2.042 15.236,3.474 27.231,15.467 30.705,30.705 0.262,1.148 1.781,1.148 2.042,0 3.474,-15.238 15.468,-27.231 30.705,-30.705 1.148,-0.261 1.148,-1.781 0,-2.042 z"
   id="path18"
   inkscape:connector-curvature="0" />
	<path
   style="fill:#ffffff"
   d="m 308.267,134.438 c -9.274,-2.402 -16.577,-9.705 -18.979,-18.979 -0.242,-0.931 -1.447,-0.931 -1.688,0 -2.402,9.274 -9.705,16.577 -18.979,18.979 -0.931,0.242 -0.931,1.447 0,1.688 9.274,2.402 16.577,9.704 18.979,18.979 0.242,0.931 1.447,0.931 1.688,0 2.402,-9.276 9.705,-16.577 18.979,-18.979 0.931,-0.242 0.931,-1.448 0,-1.688 z"
   id="path20"
   inkscape:connector-curvature="0" />
</g>
<g
   id="g24"
   transform="translate(387.02882,464.28898)">
</g>
<g
   id="g26"
   transform="translate(387.02882,464.28898)">
</g>
<g
   id="g28"
   transform="translate(387.02882,464.28898)">
</g>
<g
   id="g30"
   transform="translate(387.02882,464.28898)">
</g>
<g
   id="g32"
   transform="translate(387.02882,464.28898)">
</g>
<g
   id="g34"
   transform="translate(387.02882,464.28898)">
</g>
<g
   id="g36"
   transform="translate(387.02882,464.28898)">
</g>
<g
   id="g38"
   transform="translate(387.02882,464.28898)">
</g>
<g
   id="g40"
   transform="translate(387.02882,464.28898)">
</g>
<g
   id="g42"
   transform="translate(387.02882,464.28898)">
</g>
<g
   id="g44"
   transform="translate(387.02882,464.28898)">
</g>
<g
   id="g46"
   transform="translate(387.02882,464.28898)">
</g>
<g
   id="g48"
   transform="translate(387.02882,464.28898)">
</g>
<g
   id="g50"
   transform="translate(387.02882,464.28898)">
</g>
<g
   id="g52"
   transform="translate(387.02882,464.28898)">
</g>
<text
   xml:space="preserve"
   style="font-style:normal;font-variant:normal;font-weight:bold;font-stretch:normal;font-size:227.22842407px;line-height:1.25;font-family:sans-serif;-inkscape-font-specification:'sans-serif Bold';text-align:center;letter-spacing:0px;word-spacing:0px;text-anchor:middle;fill:#000000;fill-opacity:1;stroke:none;stroke-width:5.68071032"
   x="661.49213"
   y="172.64035"
   id="text63"><tspan
     sodipodi:role="line"
     id="tspan61"
     x="661.49213"
     y="172.64035"
     style="stroke-width:5.68071032">Quality</tspan><tspan
     sodipodi:role="line"
     x="661.49213"
     y="456.6759"
     id="tspan65"
     style="stroke-width:5.68071032">Assurance</tspan></text>

</svg>