<?xml version="1.0" encoding="UTF-8" standalone="no"?>
<!-- Generator: Adobe Illustrator 19.0.0, SVG Export Plug-In . SVG Version: 6.00 Build 0)  -->

<svg
   xmlns:dc="http://purl.org/dc/elements/1.1/"
   xmlns:cc="http://creativecommons.org/ns#"
   xmlns:rdf="http://www.w3.org/1999/02/22-rdf-syntax-ns#"
   xmlns:svg="http://www.w3.org/2000/svg"
   xmlns="http://www.w3.org/2000/svg"
   xmlns:sodipodi="http://sodipodi.sourceforge.net/DTD/sodipodi-0.dtd"
   xmlns:inkscape="http://www.inkscape.org/namespaces/inkscape"
   version="1.1"
   id="Layer_1"
   x="0px"
   y="0px"
   viewBox="0 0 1644.9913 769.10053"
   xml:space="preserve"
   sodipodi:docname="simulace.svg"
   width="1644.9913"
   height="769.10052"
   inkscape:version="0.92.4 (5da689c313, 2019-01-14)"><metadata
   id="metadata41"><rdf:RDF><cc:Work
       rdf:about=""><dc:format>image/svg+xml</dc:format><dc:type
         rdf:resource="http://purl.org/dc/dcmitype/StillImage" /><dc:title></dc:title></cc:Work></rdf:RDF></metadata><defs
   id="defs39" /><sodipodi:namedview
   pagecolor="#ffffff"
   bordercolor="#666666"
   borderopacity="1"
   objecttolerance="10"
   gridtolerance="10"
   guidetolerance="10"
   inkscape:pageopacity="0"
   inkscape:pageshadow="2"
   inkscape:window-width="1920"
   inkscape:window-height="1027"
   id="namedview37"
   showgrid="false"
   fit-margin-top="0"
   fit-margin-left="0"
   fit-margin-right="0"
   fit-margin-bottom="0"
   inkscape:zoom="0.4609375"
   inkscape:cx="791.60488"
   inkscape:cy="252.8565"
   inkscape:window-x="1912"
   inkscape:window-y="-8"
   inkscape:window-maximized="1"
   inkscape:current-layer="Layer_1" />
<path
   style="fill:#06484a"
   d="m 995.34088,52.169 c -129.192,-58.309 -278.28,-58.309 -407.472,0 -58.309,129.192 -58.309,278.28 0,407.472 129.192,58.309 278.28,58.309 407.472,0 58.30902,-129.192 58.30902,-278.28 0,-407.472 z"
   id="path2"
   inkscape:connector-curvature="0" />
<path
   style="fill:#a0dddf"
   d="m 1003.0289,48.699 c -0.846,-1.874 -2.345,-3.373 -4.21902,-4.219 C 933.41888,14.966 863.70488,0 791.60488,0 c -72.101,0 -141.815,14.965 -207.206,44.479 -1.874,0.846 -3.373,2.345 -4.219,4.219 -59.433,131.682 -59.433,282.73 0,414.412 0.846,1.874 2.345,3.373 4.219,4.219 65.391,29.514 135.105,44.479 207.206,44.479 72.1,0 141.814,-14.965 207.205,-44.479 1.87402,-0.846 3.37302,-2.345 4.21902,-4.219 59.434,-131.682 59.434,-282.729 0,-414.411 z m 19.989,293.527 c -33.49802,8.968 -68.78802,15.841 -105.05002,20.616 3.528,-32.279 5.452,-65.294 5.733,-98.5 h 106.94802 c -0.451,26.076 -2.993,52.124 -7.631,77.884 z M 552.55988,264.341 h 106.947 c 0.281,33.206 2.206,66.222 5.733,98.501 -36.261,-4.775 -71.551,-11.648 -105.049,-20.616 -4.637,-25.76 -7.18,-51.808 -7.631,-77.885 z m 7.631,-94.757 c 33.498,-8.968 68.788,-15.841 105.049,-20.616 -3.528,32.279 -5.452,65.296 -5.735,98.501 h -106.945 c 0.451,-26.078 2.994,-52.125 7.631,-77.885 z m 239.85,-28.735 c 33.803,0.286 67.549,2.276 100.623,5.997 3.72,33.074 5.71,66.82 5.995,100.623 h -106.618 z m 0,-17.043 V 16.953 c 26.337,0.443 52.333,2.961 77.883,7.531 8.968,33.5 15.842,68.793 20.617,105.057 -32.278,-3.529 -65.294,-5.453 -98.5,-5.735 z m -16.872,0 c -33.206,0.281 -66.222,2.206 -98.501,5.735 4.776,-36.264 11.649,-71.556 20.619,-105.057 25.551,-4.57 51.545,-7.089 77.883,-7.531 z m 0,17.043 v 106.619 h -106.62 c 0.286,-33.803 2.276,-67.549 5.997,-100.623 33.074,-3.72 66.82,-5.71 100.623,-5.996 z m -106.62,123.492 h 106.619 v 106.618 c -33.803,-0.286 -67.549,-2.276 -100.623,-5.995 -3.719,-33.074 -5.71,-66.82 -5.996,-100.623 z m 106.62,123.662 v 106.853 c -26.337,-0.443 -52.333,-2.961 -77.883,-7.531 -8.97,-33.5 -15.842,-68.793 -20.619,-105.057 32.279,3.528 65.296,5.453 98.502,5.735 z m 16.872,0 c 33.206,-0.281 66.221,-2.206 98.5,-5.734 -4.775,36.264 -11.649,71.556 -20.617,105.057 -25.551,4.57 -51.545,7.089 -77.883,7.531 z m 0,-17.044 V 264.341 h 106.618 c -0.286,33.803 -2.276,67.549 -5.995,100.623 -33.074,3.72 -66.82,5.71 -100.623,5.995 z m 123.661,-123.491 c -0.281,-33.206 -2.206,-66.221 -5.733,-98.501 36.262,4.775 71.552,11.648 105.05002,20.616 4.638,25.76 7.18,51.807 7.631,77.885 z m 95.62902,-96.317 c -32.90402,-8.423 -67.63002,-14.98 -103.40902,-19.562 -4.584,-35.789 -11.143,-70.523 -19.568,-103.435 31.666,6.952 62.602,17.092 92.601,30.4 13.30702,30.007 23.42602,61.037 30.37602,92.597 z M 594.25488,58.555 c 30,-13.308 60.936,-23.45 92.603,-30.401 -8.426,32.912 -14.985,67.645 -19.569,103.435 -35.78,4.583 -70.505,11.139 -103.409,19.562 6.948,-31.56 17.068,-62.59 30.375,-92.596 z m -30.377,302.104 c 32.904,8.423 67.63,14.98 103.409,19.562 4.584,35.789 11.143,70.523 19.569,103.435 -31.667,-6.952 -62.603,-17.093 -92.603,-30.401 -13.305,-30.007 -23.425,-61.036 -30.375,-92.596 z m 425.076,92.596 c -30,13.308 -60.936,23.45 -92.601,30.4 8.426,-32.912 14.985,-67.645 19.568,-103.435 35.78,-4.583 70.505,-11.139 103.40902,-19.562 -6.949,31.561 -17.068,62.59 -30.37602,92.597 z"
   id="path4"
   inkscape:connector-curvature="0" />
<g
   id="g6"
   transform="translate(535.60488,-0.095)">
</g>
<g
   id="g8"
   transform="translate(535.60488,-0.095)">
</g>
<g
   id="g10"
   transform="translate(535.60488,-0.095)">
</g>
<g
   id="g12"
   transform="translate(535.60488,-0.095)">
</g>
<g
   id="g14"
   transform="translate(535.60488,-0.095)">
</g>
<g
   id="g16"
   transform="translate(535.60488,-0.095)">
</g>
<g
   id="g18"
   transform="translate(535.60488,-0.095)">
</g>
<g
   id="g20"
   transform="translate(535.60488,-0.095)">
</g>
<g
   id="g22"
   transform="translate(535.60488,-0.095)">
</g>
<g
   id="g24"
   transform="translate(535.60488,-0.095)">
</g>
<g
   id="g26"
   transform="translate(535.60488,-0.095)">
</g>
<g
   id="g28"
   transform="translate(535.60488,-0.095)">
</g>
<g
   id="g30"
   transform="translate(535.60488,-0.095)">
</g>
<g
   id="g32"
   transform="translate(535.60488,-0.095)">
</g>
<g
   id="g34"
   transform="translate(535.60488,-0.095)">
</g>
<text
   xml:space="preserve"
   style="font-style:normal;font-variant:normal;font-weight:bold;font-stretch:normal;font-size:329.54537964px;line-height:1.25;font-family:sans-serif;-inkscape-font-specification:'sans-serif Bold';letter-spacing:0px;word-spacing:0px;fill:#000000;fill-opacity:1;stroke:none;stroke-width:8.23863411"
   x="-23.653893"
   y="764.43408"
   id="text45"><tspan
     sodipodi:role="line"
     id="tspan43"
     x="-23.653893"
     y="764.43408"
     style="stroke-width:8.23863411">Simulace</tspan></text>

</svg>