<?xml version="1.0" encoding="UTF-8" standalone="no"?>
<!-- Generator: Adobe Illustrator 19.0.0, SVG Export Plug-In . SVG Version: 6.00 Build 0)  -->

<svg
   xmlns:dc="http://purl.org/dc/elements/1.1/"
   xmlns:cc="http://creativecommons.org/ns#"
   xmlns:rdf="http://www.w3.org/1999/02/22-rdf-syntax-ns#"
   xmlns:svg="http://www.w3.org/2000/svg"
   xmlns="http://www.w3.org/2000/svg"
   xmlns:sodipodi="http://sodipodi.sourceforge.net/DTD/sodipodi-0.dtd"
   xmlns:inkscape="http://www.inkscape.org/namespaces/inkscape"
   version="1.1"
   id="Layer_1"
   x="0px"
   y="0px"
   viewBox="0 0 1811.6002 802.60096"
   xml:space="preserve"
   sodipodi:docname="simulace-2.svg"
   width="1811.6002"
   height="802.60095"
   inkscape:version="0.92.4 (5da689c313, 2019-01-14)"><metadata
   id="metadata41"><rdf:RDF><cc:Work
       rdf:about=""><dc:format>image/svg+xml</dc:format><dc:type
         rdf:resource="http://purl.org/dc/dcmitype/StillImage" /><dc:title></dc:title></cc:Work></rdf:RDF></metadata><defs
   id="defs39" /><sodipodi:namedview
   pagecolor="#ffffff"
   bordercolor="#666666"
   borderopacity="1"
   objecttolerance="10"
   gridtolerance="10"
   guidetolerance="10"
   inkscape:pageopacity="0"
   inkscape:pageshadow="2"
   inkscape:window-width="1920"
   inkscape:window-height="1027"
   id="namedview37"
   showgrid="false"
   fit-margin-top="0"
   fit-margin-left="0"
   fit-margin-right="0"
   fit-margin-bottom="0"
   inkscape:zoom="0.4609375"
   inkscape:cx="901.3876"
   inkscape:cy="256.50043"
   inkscape:window-x="1912"
   inkscape:window-y="-8"
   inkscape:window-maximized="1"
   inkscape:current-layer="Layer_1" />
<path
   style="fill:#06484a"
   d="m 1081.6785,342.96194 c -129.19204,-58.309 -278.28004,-58.309 -407.47204,0 -58.309,129.192 -58.309,278.28 0,407.472 129.192,58.309 278.28,58.309 407.47204,0 58.309,-129.192 58.309,-278.28 0,-407.472 z"
   id="path2"
   inkscape:connector-curvature="0" />
<path
   style="fill:#a0dddf"
   d="m 1089.3665,339.49194 c -0.846,-1.874 -2.345,-3.373 -4.219,-4.219 -65.391,-29.514 -135.10504,-44.48 -207.20504,-44.48 -72.101,0 -141.815,14.965 -207.206,44.479 -1.874,0.846 -3.373,2.345 -4.219,4.219 -59.433,131.682 -59.433,282.73 0,414.412 0.846,1.874 2.345,3.373 4.219,4.219 65.391,29.514 135.105,44.479 207.206,44.479 72.1,0 141.81404,-14.965 207.20504,-44.479 1.874,-0.846 3.373,-2.345 4.219,-4.219 59.434,-131.682 59.434,-282.729 0,-414.411 z m 19.989,293.527 c -33.498,8.968 -68.788,15.841 -105.05,20.616 3.528,-32.279 5.452,-65.294 5.733,-98.5 h 106.948 c -0.451,26.076 -2.993,52.124 -7.631,77.884 z m -470.45804,-77.885 h 106.947 c 0.281,33.206 2.206,66.222 5.733,98.501 -36.261,-4.775 -71.551,-11.648 -105.049,-20.616 -4.637,-25.76 -7.18,-51.808 -7.631,-77.885 z m 7.631,-94.757 c 33.498,-8.968 68.788,-15.841 105.049,-20.616 -3.528,32.279 -5.452,65.296 -5.735,98.501 h -106.945 c 0.451,-26.078 2.994,-52.125 7.631,-77.885 z m 239.85,-28.735 c 33.803,0.286 67.549,2.276 100.623,5.997 3.72,33.074 5.71,66.82 5.995,100.623 h -106.618 z m 0,-17.043 v -106.853 c 26.337,0.443 52.333,2.961 77.883,7.531 8.968,33.5 15.842,68.793 20.617,105.057 -32.278,-3.529 -65.294,-5.453 -98.5,-5.735 z m -16.872,0 c -33.206,0.281 -66.222,2.206 -98.501,5.735 4.776,-36.264 11.649,-71.556 20.619,-105.057 25.551,-4.57 51.545,-7.089 77.883,-7.531 z m 0,17.043 v 106.619 h -106.62 c 0.286,-33.803 2.276,-67.549 5.997,-100.623 33.074,-3.72 66.82,-5.71 100.623,-5.996 z m -106.62,123.492 h 106.619 v 106.618 c -33.803,-0.286 -67.549,-2.276 -100.623,-5.995 -3.719,-33.074 -5.71,-66.82 -5.996,-100.623 z m 106.62,123.662 v 106.853 c -26.337,-0.443 -52.333,-2.961 -77.883,-7.531 -8.97,-33.5 -15.842,-68.793 -20.619,-105.057 32.279,3.528 65.296,5.453 98.502,5.735 z m 16.872,0 c 33.206,-0.281 66.221,-2.206 98.5,-5.734 -4.775,36.264 -11.649,71.556 -20.617,105.057 -25.551,4.57 -51.545,7.089 -77.883,7.531 z m 0,-17.044 v -106.618 h 106.618 c -0.286,33.803 -2.276,67.549 -5.995,100.623 -33.074,3.72 -66.82,5.71 -100.623,5.995 z m 123.66104,-123.491 c -0.281,-33.206 -2.206,-66.221 -5.733,-98.501 36.262,4.775 71.552,11.648 105.05,20.616 4.638,25.76 7.18,51.807 7.631,77.885 z m 95.629,-96.317 c -32.904,-8.423 -67.63,-14.98 -103.409,-19.562 -4.58404,-35.789 -11.14304,-70.523 -19.56804,-103.435 31.66604,6.952 62.60204,17.092 92.60104,30.4 13.307,30.007 23.426,61.037 30.376,92.597 z m -425.07604,-92.596 c 30,-13.308 60.936,-23.45 92.603,-30.401 -8.426,32.912 -14.985,67.645 -19.569,103.435 -35.78,4.583 -70.505,11.139 -103.409,19.562 6.948,-31.56 17.068,-62.59 30.375,-92.596 z m -30.377,302.104 c 32.904,8.423 67.63,14.98 103.409,19.562 4.584,35.789 11.143,70.523 19.569,103.435 -31.667,-6.952 -62.603,-17.093 -92.603,-30.401 -13.305,-30.007 -23.425,-61.036 -30.375,-92.596 z m 425.07604,92.596 c -30,13.308 -60.936,23.45 -92.60104,30.4 8.426,-32.912 14.985,-67.645 19.56804,-103.435 35.78,-4.583 70.505,-11.139 103.409,-19.562 -6.949,31.561 -17.068,62.59 -30.376,92.597 z"
   id="path4"
   inkscape:connector-curvature="0" />
<g
   id="g6"
   transform="translate(621.94246,290.69794)">
</g>
<g
   id="g8"
   transform="translate(621.94246,290.69794)">
</g>
<g
   id="g10"
   transform="translate(621.94246,290.69794)">
</g>
<g
   id="g12"
   transform="translate(621.94246,290.69794)">
</g>
<g
   id="g14"
   transform="translate(621.94246,290.69794)">
</g>
<g
   id="g16"
   transform="translate(621.94246,290.69794)">
</g>
<g
   id="g18"
   transform="translate(621.94246,290.69794)">
</g>
<g
   id="g20"
   transform="translate(621.94246,290.69794)">
</g>
<g
   id="g22"
   transform="translate(621.94246,290.69794)">
</g>
<g
   id="g24"
   transform="translate(621.94246,290.69794)">
</g>
<g
   id="g26"
   transform="translate(621.94246,290.69794)">
</g>
<g
   id="g28"
   transform="translate(621.94246,290.69794)">
</g>
<g
   id="g30"
   transform="translate(621.94246,290.69794)">
</g>
<g
   id="g32"
   transform="translate(621.94246,290.69794)">
</g>
<g
   id="g34"
   transform="translate(621.94246,290.69794)">
</g>
<text
   xml:space="preserve"
   style="font-style:normal;font-variant:normal;font-weight:bold;font-stretch:normal;font-size:362.92254639px;line-height:1.25;font-family:sans-serif;-inkscape-font-specification:'sans-serif Bold';letter-spacing:0px;word-spacing:0px;fill:#000000;fill-opacity:1;stroke:none;stroke-width:9.07306385"
   x="-26.049616"
   y="275.73608"
   id="text45"><tspan
     sodipodi:role="line"
     id="tspan43"
     x="-26.049616"
     y="275.73608"
     style="stroke-width:9.07306385">Simulace</tspan></text>


<path
   style="fill:#0000ff;stroke-width:2.16949153"
   d="m 831.29839,659.48235 c -17.8983,-0.83327 -39.00833,-2.2083 -46.91118,-3.05563 l -14.36881,-1.54059 -1.28526,-9.37699 c -0.70689,-5.15734 -1.83275,-21.44544 -2.50191,-36.19578 -0.66915,-14.75034 -1.70625,-32.92049 -2.30465,-40.37812 l -1.08801,-13.55932 h 53.21296 53.21296 v 53.15254 c 0,41.25801 -0.60686,53.07606 -2.71186,52.81074 -1.49153,-0.18801 -17.35593,-1.02358 -35.25424,-1.85685 z"
   id="path25"
   inkscape:connector-curvature="0" /><path
   style="fill:#000080;stroke-width:2.16949153"
   d="m 886.62043,485.22345 v -52.79653 l 23.32203,0.81305 c 24.69261,0.86083 74.69081,4.64597 75.78195,5.73711 0.97054,0.97054 4.70586,51.44881 5.6835,76.80562 l 0.85737,22.23729 h -52.82243 -52.82242 z"
   id="path27"
   inkscape:connector-curvature="0" /><path
   style="fill:#008080;stroke-width:2.16949153"
   d="m 764.37752,514.69796 c 1.03569,-25.40692 4.82338,-74.76127 5.81353,-75.75142 1.06604,-1.06604 51.39481,-4.85745 75.75141,-5.70657 l 23.32203,-0.81305 v 52.79653 52.79654 h -52.91884 -52.91884 z"
   id="path29"
   inkscape:connector-curvature="0" /><path
   style="fill:#008080;stroke-width:2.16949153"
   d="m 718.81183,647.56097 c -48.06329,-8.67174 -70.65281,-14.40417 -71.7753,-18.21406 -1.45401,-4.93509 -5.02687,-35.05068 -6.65237,-56.07268 l -1.38396,-17.89831 h 52.96301 52.96301 l 1.41432,36.33898 c 0.77788,19.98645 2.04312,41.95255 2.81164,48.81356 0.77584,6.92633 0.53864,12.38284 -0.53332,12.26832 -1.06185,-0.11344 -14.47501,-2.46956 -29.80703,-5.23581 z"
   id="path31"
   inkscape:connector-curvature="0" /><path
   style="fill:#00ff00;stroke-width:2.16949153"
   d="m 640.30729,521.20643 c 2.25128,-27.44691 5.86066,-56.19387 7.35711,-58.59581 2.23291,-3.58401 99.23729,-23.6794 101.90981,-21.11159 0.39408,0.37863 -0.33812,13.02934 -1.62711,28.11269 -1.28899,15.08335 -2.34362,36.64567 -2.34362,47.91627 v 20.492 h -53.33765 -53.33764 z"
   id="path35"
   inkscape:connector-curvature="0" /><path
   style="fill:#000080;stroke-width:2.16949153"
   d="m 653.34579,433.55799 c 2.5887,-12.79636 12.19391,-43.55273 19.92551,-63.80254 l 7.50426,-19.65436 19.93938,-7.81677 c 19.95636,-7.82342 50.42692,-17.41949 64.08755,-20.18303 6.40045,-1.29481 7.11653,-0.99123 6.00628,2.54635 -2.49025,7.93469 -11.96166,56.45594 -14.54735,74.52489 -1.45138,10.14237 -3.71097,19.51276 -5.02129,20.82309 -1.31033,1.31033 -10.68072,3.56991 -20.82309,5.0213 -18.06896,2.58569 -66.59021,12.0571 -74.5249,14.54735 -3.53758,1.11024 -3.84116,0.39417 -2.54635,-6.00628 z"
   id="path37"
   inkscape:connector-curvature="0" /><path
   style="fill:#0000ff;stroke-width:2.16949153"
   d="m 640.29881,527.7149 c 0.63242,-5.66779 2.15628,-19.57966 3.38636,-30.91525 4.11802,-37.94907 0.60869,-33.48187 32.16967,-40.95035 32.58985,-7.71196 69.33655,-14.42219 70.82546,-12.93328 0.58379,0.58379 0.42485,22.22101 -0.35319,48.0827 l -1.41462,47.02127 h -52.88178 -52.88176 z"
   id="path39"
   inkscape:connector-curvature="0" /><path
   style="fill:#008080;stroke-width:2.16949153"
   d="m 772.54404,414.13257 c 0.63137,-2.85853 2.67248,-14.4719 4.5358,-25.8075 5.17339,-31.47249 14.26226,-70.33954 16.82132,-71.93362 2.38859,-1.4879 32.64055,-5.12767 59.63452,-7.17495 l 15.72881,-1.19291 v 52.82906 52.82906 l -36.33898,1.41433 c -19.98644,0.77788 -42.00683,2.04872 -48.93419,2.82409 -12.44656,1.39312 -12.58167,1.34842 -11.44728,-3.78756 z"
   id="path41"
   inkscape:connector-curvature="0" /><path
   style="fill:#008080;stroke-width:2.16949153"
   d="m 951.70517,416.46123 c -8.94915,-0.84432 -27.25424,-1.66274 -40.67796,-1.8187 l -24.40678,-0.28356 v -53.16769 -53.16769 l 15.72881,1.19291 c 26.99397,2.04728 57.24593,5.68705 59.63452,7.17495 2.55906,1.59408 11.64793,40.46113 16.82132,71.93362 1.86332,11.3356 3.86875,22.80678 4.4565,25.49153 1.20479,5.50333 -0.0987,5.61258 -31.55641,2.64463 z"
   id="path43"
   inkscape:connector-curvature="0" /><path
   style="fill:#0000ff;stroke-width:2.16949153"
   d="m 773.80687,414.01089 c 0,-12.15278 16.99797,-93.30525 20.21789,-96.52518 1.34667,-1.34667 36.53099,-6.01332 60.59567,-8.03706 l 14.64406,-1.23151 v 51.94484 51.94483 l -4.88135,0.99423 c -2.68475,0.54682 -21.36573,1.59247 -41.5133,2.32365 -20.14757,0.73119 -39.42892,1.88883 -42.84746,2.57254 -5.46578,1.09315 -6.21551,0.61231 -6.21551,-3.98634 z"
   id="path45"
   inkscape:connector-curvature="0" /><path
   style="fill:#00ff00;stroke-width:2.16949153"
   d="m 800.92551,656.91863 c -15.51186,-1.08218 -28.87357,-2.64997 -29.69267,-3.48397 -0.8191,-0.834 -2.54493,-20.06552 -3.83518,-42.7367 -1.29024,-22.67119 -2.75529,-44.39322 -3.25567,-48.27119 l -0.90979,-7.05085 h 53.01615 53.01614 v 35.46928 c 0,19.50811 -0.63139,42.93862 -1.40308,52.0678 l -1.40309,16.59851 -18.66471,-0.31264 c -10.26559,-0.17195 -31.35623,-1.19806 -46.8681,-2.28024 z"
   id="path47"
   inkscape:connector-curvature="0" /><path
   style="fill:#00ff00;stroke-width:2.16949153"
   d="m 886.62043,485.62056 v -52.39942 l 36.33898,1.68149 c 19.98644,0.92482 42.19661,2.29439 49.35593,3.04349 l 13.01695,1.36201 1.44849,14.10169 c 0.79666,7.75593 2.16396,29.9661 3.03843,49.35593 l 1.58995,35.25424 h -52.39437 -52.39436 z"
   id="path49"
   inkscape:connector-curvature="0" /><path
   style="fill:#00ff00;stroke-width:2.16949153"
   d="m 886.62043,608.08636 v -52.71044 h 52.85023 52.85023 l -0.8473,21.15254 c -0.95191,23.76411 -4.9853,77.12649 -5.89863,78.03982 -0.94928,0.94928 -54.62865,4.76467 -77.80199,5.52996 l -21.15254,0.69856 z"
   id="path51"
   inkscape:connector-curvature="0" /><path
   style="fill:#00ff00;stroke-width:2.16949153"
   d="m 848.65432,783.88348 c -18.75454,-1.16955 -52.36675,-5.39248 -54.75316,-6.87902 -3.61916,-2.25444 -23.74907,-99.24113 -21.15763,-101.93826 0.37864,-0.39407 13.02935,0.33813 28.1127,1.62712 15.08334,1.28899 36.64566,2.34362 47.91626,2.34362 h 20.492 v 53.15254 53.15254 l -4.88135,-0.39104 c -2.68475,-0.21509 -9.76271,-0.69546 -15.72882,-1.0675 z"
   id="path53"
   inkscape:connector-curvature="0" /><path
   style="fill:#00ff00;stroke-width:2.16949153"
   d="m 1006.7203,640.6491 c 0.7754,-6.92737 2.0462,-28.94775 2.8241,-48.9342 l 1.4143,-36.33898 h 52.9453 52.9453 l -1.2949,15.72882 c -2.3783,28.89029 -5.865,57.32273 -7.3054,59.57379 -1.7111,2.67393 -40.7272,11.90191 -70.8489,16.75697 -11.9322,1.92325 -24.0337,4.01702 -26.8922,4.65282 -5.1367,1.14249 -5.1809,1.00886 -3.7876,-11.43922 z"
   id="path55"
   inkscape:connector-curvature="0" /><path
   style="fill:#ffff00;stroke-width:2.16949153"
   d="m 886.62043,732.20463 v -53.16769 h 20.492 c 11.2706,0 32.83292,-1.05463 47.91626,-2.34362 15.08335,-1.28899 27.73406,-2.02119 28.1127,-1.62712 2.59144,2.69713 -17.53847,99.68382 -21.15763,101.93826 -2.38859,1.4879 -32.64055,5.12767 -59.63452,7.17495 l -15.72881,1.19291 z"
   id="path57"
   inkscape:connector-curvature="0" /><path
   style="fill:#ff6600;stroke-width:2.16949153"
   d="m 985.14591,768.52846 c 2.43377,-7.75978 11.92787,-56.48754 14.47759,-74.30508 1.4514,-10.14237 3.711,-19.51276 5.0213,-20.82309 1.3103,-1.31033 10.6807,-3.56991 20.8231,-5.0213 18.0689,-2.58569 66.5902,-12.0571 74.5249,-14.54735 3.5498,-1.11408 3.8346,-0.41627 2.4518,6.00629 -3.2467,15.07946 -12.1447,43.77027 -19.6811,63.45972 l -7.8119,20.40942 -20.061,7.67854 c -21.467,8.21676 -62.67239,20.93946 -67.81715,20.93946 -1.9771,0 -2.68252,-1.38943 -1.92754,-3.79661 z"
   id="path59"
   inkscape:connector-curvature="0" /></svg>