<?xml version="1.0" encoding="UTF-8" standalone="no"?>
<!-- Generator: Adobe Illustrator 19.0.0, SVG Export Plug-In . SVG Version: 6.00 Build 0)  -->

<svg
   xmlns:dc="http://purl.org/dc/elements/1.1/"
   xmlns:cc="http://creativecommons.org/ns#"
   xmlns:rdf="http://www.w3.org/1999/02/22-rdf-syntax-ns#"
   xmlns:svg="http://www.w3.org/2000/svg"
   xmlns="http://www.w3.org/2000/svg"
   xmlns:sodipodi="http://sodipodi.sourceforge.net/DTD/sodipodi-0.dtd"
   xmlns:inkscape="http://www.inkscape.org/namespaces/inkscape"
   version="1.1"
   id="Layer_1"
   x="0px"
   y="0px"
   viewBox="0 0 1577.8207 748.83106"
   xml:space="preserve"
   sodipodi:docname="testovani-2.svg"
   width="1577.8207"
   height="748.83105"
   inkscape:version="0.92.4 (5da689c313, 2019-01-14)"><metadata
   id="metadata75"><rdf:RDF><cc:Work
       rdf:about=""><dc:format>image/svg+xml</dc:format><dc:type
         rdf:resource="http://purl.org/dc/dcmitype/StillImage" /><dc:title></dc:title></cc:Work></rdf:RDF></metadata><defs
   id="defs73" /><sodipodi:namedview
   pagecolor="#ffffff"
   bordercolor="#666666"
   borderopacity="1"
   objecttolerance="10"
   gridtolerance="10"
   guidetolerance="10"
   inkscape:pageopacity="0"
   inkscape:pageshadow="2"
   inkscape:window-width="1920"
   inkscape:window-height="1027"
   id="namedview71"
   showgrid="false"
   fit-margin-top="0"
   fit-margin-left="0"
   fit-margin-right="0"
   fit-margin-bottom="0"
   inkscape:zoom="0.47011952"
   inkscape:cx="746.4233"
   inkscape:cy="251.00001"
   inkscape:window-x="-8"
   inkscape:window-y="-8"
   inkscape:window-maximized="1"
   inkscape:current-layer="g38" />
<g
   id="g38"
   transform="translate(495.4233,246.83105)">
	<rect
   x="71"
   y="10"
   style="fill:none"
   width="360"
   height="482"
   id="rect2" />
	<rect
   x="126"
   y="68"
   style="fill:#80ff80"
   width="87"
   height="87"
   id="rect4" />
	<rect
   x="126"
   y="349"
   style="fill:#80ff80"
   width="87"
   height="87"
   id="rect6" />
	<g
   id="g36">
		<path
   d="M 431,0 H 71 C 65.478,0 61,4.477 61,10 v 482 c 0,5.523 4.478,10 10,10 h 360 c 5.522,0 10,-4.477 10,-10 V 10 C 441,4.477 436.522,0 431,0 Z M 421,482 H 81 V 20 h 340 z"
   id="path8"
   inkscape:connector-curvature="0" />
		<path
   d="m 126,165 h 87 c 5.522,0 10,-4.477 10,-10 V 68 c 0,-5.523 -4.478,-10 -10,-10 h -87 c -5.522,0 -10,4.477 -10,10 v 87 c 0,5.523 4.478,10 10,10 z m 10,-87 h 67 v 67 h -67 z"
   id="path10"
   inkscape:connector-curvature="0" />
		<path
   d="m 126,306 h 87 c 5.522,0 10,-4.477 10,-10 v -19 c 0,-5.523 -4.478,-10 -10,-10 -5.522,0 -10,4.477 -10,10 v 9 h -67 v -67 h 62 c 5.522,0 10,-4.477 10,-10 0,-5.523 -4.478,-10 -10,-10 h -72 c -5.522,0 -10,4.477 -10,10 v 87 c 0,5.523 4.478,10 10,10 z"
   id="path12"
   inkscape:connector-curvature="0" />
		<path
   d="m 126,446 h 87 c 5.522,0 10,-4.477 10,-10 v -87 c 0,-5.523 -4.478,-10 -10,-10 h -87 c -5.522,0 -10,4.477 -10,10 v 87 c 0,5.523 4.478,10 10,10 z m 10,-87 h 67 v 67 h -67 z"
   id="path14"
   inkscape:connector-curvature="0" />
		<path
   d="m 327,99 h 50 c 5.522,0 10,-4.477 10,-10 0,-5.523 -4.478,-10 -10,-10 h -50 c -5.522,0 -10,4.477 -10,10 0,5.523 4.478,10 10,10 z"
   id="path16"
   inkscape:connector-curvature="0" />
		<path
   d="m 268,99 h 17 c 5.522,0 10,-4.477 10,-10 0,-5.523 -4.478,-10 -10,-10 h -17 c -5.522,0 -10,4.477 -10,10 0,5.523 4.478,10 10,10 z"
   id="path18"
   inkscape:connector-curvature="0" />
		<path
   d="m 268,140 h 109 c 5.522,0 10,-4.477 10,-10 0,-5.523 -4.478,-10 -10,-10 H 268 c -5.522,0 -10,4.477 -10,10 0,5.523 4.478,10 10,10 z"
   id="path20"
   inkscape:connector-curvature="0" />
		<path
   d="m 377,221 h -50 c -5.522,0 -10,4.477 -10,10 0,5.523 4.478,10 10,10 h 50 c 5.522,0 10,-4.477 10,-10 0,-5.523 -4.478,-10 -10,-10 z"
   id="path22"
   inkscape:connector-curvature="0" />
		<path
   d="m 268,241 h 17 c 5.522,0 10,-4.477 10,-10 0,-5.523 -4.478,-10 -10,-10 h -17 c -5.522,0 -10,4.477 -10,10 0,5.523 4.478,10 10,10 z"
   id="path24"
   inkscape:connector-curvature="0" />
		<path
   d="m 268,282 h 109 c 5.522,0 10,-4.477 10,-10 0,-5.523 -4.478,-10 -10,-10 H 268 c -5.522,0 -10,4.477 -10,10 0,5.523 4.478,10 10,10 z"
   id="path26"
   inkscape:connector-curvature="0" />
		<path
   d="m 377,360 h -50 c -5.522,0 -10,4.477 -10,10 0,5.523 4.478,10 10,10 h 50 c 5.522,0 10,-4.477 10,-10 0,-5.523 -4.478,-10 -10,-10 z"
   id="path28"
   inkscape:connector-curvature="0" />
		<path
   d="m 268,380 h 17 c 5.522,0 10,-4.477 10,-10 0,-5.523 -4.478,-10 -10,-10 h -17 c -5.522,0 -10,4.477 -10,10 0,5.523 4.478,10 10,10 z"
   id="path30"
   inkscape:connector-curvature="0" />
		<path
   d="m 268,421 h 109 c 5.522,0 10,-4.477 10,-10 0,-5.523 -4.478,-10 -10,-10 H 268 c -5.522,0 -10,4.477 -10,10 0,5.523 4.478,10 10,10 z"
   id="path32"
   inkscape:connector-curvature="0" />
		<path
   d="m 173.429,275.071 c 1.953,1.953 4.512,2.929 7.071,2.929 2.559,0 5.118,-0.976 7.071,-2.929 l 59.5,-59.5 c 3.905,-3.905 3.905,-10.237 0,-14.143 -3.906,-3.905 -10.236,-3.905 -14.143,0 l -52.52,52.52 -18.501,-17.678 c -3.991,-3.815 -10.323,-3.672 -14.138,0.321 -3.816,3.993 -3.672,10.323 0.321,14.139 z"
   id="path34"
   inkscape:connector-curvature="0" />
	</g>
</g>
<g
   id="g40"
   transform="translate(495.4233,246.83105)">
</g>
<g
   id="g42"
   transform="translate(495.4233,246.83105)">
</g>
<g
   id="g44"
   transform="translate(495.4233,246.83105)">
</g>
<g
   id="g46"
   transform="translate(495.4233,246.83105)">
</g>
<g
   id="g48"
   transform="translate(495.4233,246.83105)">
</g>
<g
   id="g50"
   transform="translate(495.4233,246.83105)">
</g>
<g
   id="g52"
   transform="translate(495.4233,246.83105)">
</g>
<g
   id="g54"
   transform="translate(495.4233,246.83105)">
</g>
<g
   id="g56"
   transform="translate(495.4233,246.83105)">
</g>
<g
   id="g58"
   transform="translate(495.4233,246.83105)">
</g>
<g
   id="g60"
   transform="translate(495.4233,246.83105)">
</g>
<g
   id="g62"
   transform="translate(495.4233,246.83105)">
</g>
<g
   id="g64"
   transform="translate(495.4233,246.83105)">
</g>
<g
   id="g66"
   transform="translate(495.4233,246.83105)">
</g>
<g
   id="g68"
   transform="translate(495.4233,246.83105)">
</g>
<text
   xml:space="preserve"
   style="font-style:normal;font-variant:normal;font-weight:bold;font-stretch:normal;font-size:291.56155396px;line-height:1.25;font-family:sans-serif;-inkscape-font-specification:'sans-serif Bold';letter-spacing:0px;word-spacing:0px;fill:#ff5555;fill-opacity:1;stroke:none;stroke-width:7.28904009"
   x="-1.4236404"
   y="233.19229"
   id="text79"><tspan
     sodipodi:role="line"
     id="tspan77"
     x="-1.4236404"
     y="233.19229"
     style="fill:#ff5555;stroke-width:7.28904009">Testování</tspan></text>

</svg>