<?xml version="1.0" encoding="UTF-8" standalone="no"?>
<!-- Generator: Adobe Illustrator 19.0.0, SVG Export Plug-In . SVG Version: 6.00 Build 0)  -->

<svg
   xmlns:dc="http://purl.org/dc/elements/1.1/"
   xmlns:cc="http://creativecommons.org/ns#"
   xmlns:rdf="http://www.w3.org/1999/02/22-rdf-syntax-ns#"
   xmlns:svg="http://www.w3.org/2000/svg"
   xmlns="http://www.w3.org/2000/svg"
   xmlns:sodipodi="http://sodipodi.sourceforge.net/DTD/sodipodi-0.dtd"
   xmlns:inkscape="http://www.inkscape.org/namespaces/inkscape"
   version="1.1"
   id="Layer_1"
   x="0px"
   y="0px"
   viewBox="0 0 1554.2513 1090.9124"
   xml:space="preserve"
   sodipodi:docname="vyroba-elektroniky.svg"
   width="1554.2512"
   height="1090.9124"
   inkscape:version="0.92.4 (5da689c313, 2019-01-14)"><metadata
   id="metadata88"><rdf:RDF><cc:Work
       rdf:about=""><dc:format>image/svg+xml</dc:format><dc:type
         rdf:resource="http://purl.org/dc/dcmitype/StillImage" /><dc:title></dc:title></cc:Work></rdf:RDF></metadata><defs
   id="defs86" /><sodipodi:namedview
   pagecolor="#ffffff"
   bordercolor="#666666"
   borderopacity="1"
   objecttolerance="10"
   gridtolerance="10"
   guidetolerance="10"
   inkscape:pageopacity="0"
   inkscape:pageshadow="2"
   inkscape:window-width="1920"
   inkscape:window-height="1027"
   id="namedview84"
   showgrid="false"
   fit-margin-top="0"
   fit-margin-left="0"
   fit-margin-right="0"
   fit-margin-bottom="0"
   inkscape:zoom="0.48744017"
   inkscape:cx="739.98858"
   inkscape:cy="605.14234"
   inkscape:window-x="-8"
   inkscape:window-y="-8"
   inkscape:window-maximized="1"
   inkscape:current-layer="Layer_1" />
<g
   id="g51"
   transform="translate(497.90758,-2.495)">
	<g
   id="XMLID_29_">
		<g
   id="g26">
			<rect
   x="366.85901"
   y="220.41901"
   style="fill:#e7eced"
   width="49.910999"
   height="34.139"
   id="rect2" />
			<polygon
   style="fill:#8b9296"
   points="351.885,220.419 351.885,184.684 431.743,184.684 431.743,220.419 416.77,220.419 366.859,220.419 "
   id="polygon4" />
			<path
   style="fill:#8b9296"
   d="m 386.823,149.745 c -13.576,0 -25.954,-5.39 -34.938,-14.175 -3.194,-3.194 -5.989,-6.788 -8.285,-10.781 -4.292,-7.287 -6.688,-15.872 -6.688,-24.955 0,-9.083 2.396,-17.668 6.688,-24.955 8.685,-14.973 24.756,-24.956 43.223,-24.956 27.551,0 49.911,22.36 49.911,49.911 0,8.784 -2.296,17.069 -6.289,24.157 -8.485,15.372 -24.855,25.754 -43.622,25.754 z"
   id="path6"
   inkscape:connector-curvature="0" />
			<path
   style="fill:#8b9296"
   d="m 187.179,149.745 c -27.551,0 -49.911,-22.36 -49.911,-49.911 0,-11.28 3.693,-21.661 9.982,-29.947 9.084,-12.078 23.658,-19.964 39.929,-19.964 16.271,0 30.845,7.886 39.929,19.964 1.198,1.597 2.296,3.194 3.294,4.991 4.292,7.287 6.688,15.872 6.688,24.955 0,9.083 -2.396,17.668 -6.688,24.955 -8.684,14.976 -24.756,24.957 -43.223,24.957 z"
   id="path8"
   inkscape:connector-curvature="0" />
			<path
   style="fill:#e7eced"
   d="m 431.743,124.79 v 59.893 h -79.857 v -49.112 c 8.984,8.784 21.362,14.175 34.938,14.175 18.766,0 35.137,-10.382 43.622,-25.754 z"
   id="path10"
   inkscape:connector-curvature="0" />
			<path
   style="fill:#e7eced"
   d="M 230.402,74.879 H 343.6 c -4.292,7.287 -6.688,15.872 -6.688,24.955 0,9.083 2.396,17.668 6.688,24.955 H 230.402 c 4.292,-7.287 6.688,-15.872 6.688,-24.955 0,-9.083 -2.395,-17.668 -6.688,-24.955 z"
   id="path12"
   inkscape:connector-curvature="0" />
			<path
   style="fill:#e7eced"
   d="M 227.108,9.994 V 69.887 C 218.024,57.809 203.45,49.923 187.179,49.923 c -16.271,0 -30.845,7.886 -39.929,19.964 V 9.994 Z"
   id="path14"
   inkscape:connector-curvature="0" />
			<rect
   x="336.91199"
   y="319.44299"
   style="fill:#f4661e"
   width="79.857002"
   height="59.893002"
   id="rect16" />
			<rect
   x="197.162"
   y="319.44299"
   style="fill:#ffd248"
   width="79.857002"
   height="59.893002"
   id="rect18" />
			<rect
   x="57.410999"
   y="319.44299"
   style="fill:#31c0d8"
   width="79.857002"
   height="59.893002"
   id="rect20" />
			<path
   style="fill:#e7eced"
   d="m 476.663,414.273 v 39.929 c 0,10.98 -8.984,19.964 -19.964,19.964 H 27.465 c -10.98,0 -19.964,-8.984 -19.964,-19.964 v -39.929 z"
   id="path22"
   inkscape:connector-curvature="0" />
			<polygon
   style="fill:#afb6bb"
   points="57.411,379.336 137.268,379.336 197.162,379.336 277.019,379.336 336.912,379.336 416.77,379.336 476.663,379.336 476.663,414.273 7.5,414.273 7.5,379.336 "
   id="polygon24" />
		</g>
		<g
   id="g48">
			<polygon
   points="411.779,92.334 394.323,92.334 394.323,74.879 379.323,74.879 379.323,92.334 361.868,92.334 361.868,107.334 379.323,107.334 379.323,124.79 394.323,124.79 394.323,107.334 411.779,107.334 "
   id="polygon28" />
			<polygon
   points="162.224,107.334 179.679,107.334 179.679,124.79 194.679,124.79 194.679,107.334 212.135,107.334 212.135,92.334 194.679,92.334 194.679,74.879 179.679,74.879 179.679,92.334 162.224,92.334 "
   id="polygon30" />
			<path
   d="m 139.751,67.47 c -6.536,9.479 -9.982,20.611 -9.982,32.364 0,31.656 25.754,57.411 57.411,57.411 18.919,0 36.672,-9.462 47.338,-24.955 h 104.95 c 1.483,2.172 3.124,4.259 4.918,6.253 v 89.376 h 14.974 v 34.14 h 24.955 v 27.438 h 15 V 262.06 h 24.955 v -34.14 h 14.974 V 124.79 h -0.755 c 3.765,-7.705 5.746,-16.266 5.746,-24.956 0,-31.656 -25.755,-57.41 -57.411,-57.41 -18.933,0 -36.698,9.477 -47.341,24.955 H 234.608 V 17.495 h 82.34 v -15 H 57.411 v 15 H 139.75 V 67.47 Z m 84.164,53.557 c -7.706,13.286 -21.439,21.218 -36.735,21.218 -23.385,0 -42.411,-19.025 -42.411,-42.411 0,-9.336 2.924,-18.124 8.476,-25.439 7.993,-10.627 20.679,-16.972 33.935,-16.972 13.256,0 25.942,6.345 33.929,16.964 1.178,1.57 2.023,2.846 2.739,4.135 l 0.093,0.163 c 3.697,6.275 5.65,13.588 5.65,21.149 0,7.56 -1.954,14.874 -5.65,21.149 z m 200.328,56.155 h -64.857 v -26.856 c 8.316,4.509 17.691,6.919 27.438,6.919 13.956,0 27.174,-5.083 37.42,-13.912 v 33.849 z M 241.896,82.379 h 90.21 c -1.773,5.577 -2.695,11.465 -2.695,17.455 0,5.995 0.924,11.889 2.691,17.456 h -90.207 c 1.772,-5.576 2.694,-11.465 2.694,-17.456 0.001,-5.991 -0.921,-11.879 -2.693,-17.455 z m 117.489,130.54 v -20.736 h 64.857 v 20.736 z m 49.884,34.14 h -34.91 v -19.14 h 34.91 z M 386.823,57.424 c 23.386,0 42.411,19.025 42.411,42.41 0,7.215 -1.841,14.295 -5.323,20.476 l -0.032,0.058 c -7.448,13.495 -21.647,21.878 -37.056,21.878 -10.201,0 -19.845,-3.551 -27.438,-9.994 v -0.674 h -0.789 c -0.477,-0.426 -0.948,-0.861 -1.408,-1.311 -2.791,-2.79 -5.175,-5.891 -7.127,-9.283 -3.696,-6.276 -5.65,-13.59 -5.65,-21.149 0,-7.559 1.954,-14.872 5.676,-21.192 7.707,-13.288 21.439,-21.219 36.736,-21.219 z M 219.608,52.531 C 210.14,46.06 198.83,42.424 187.179,42.424 c -11.652,0 -22.965,3.637 -32.429,10.104 V 17.495 h 64.857 v 35.036 z"
   id="path32"
   inkscape:connector-curvature="0" />
			<path
   d="m 424.269,371.836 v -59.893 h -94.857 v 59.893 h -44.893 v -59.893 h -94.857 v 59.893 H 144.769 V 311.943 H 49.911 v 59.893 H 0 v 82.366 c 0,15.145 12.32,27.465 27.464,27.465 h 429.233 c 15.145,0 27.465,-12.32 27.465,-27.465 v -82.366 z m -79.857,-44.893 h 64.857 v 44.893 h -64.857 z m -139.75,0 h 64.857 v 44.893 h -64.857 z m -139.751,0 h 64.858 v 44.893 H 64.911 Z m 404.252,59.893 v 19.938 H 15 v -19.938 z m -12.465,79.831 H 27.464 C 20.591,466.667 15,461.075 15,454.202 v -32.429 h 59.867 v 32.429 h 15 v -32.429 h 64.857 v 32.429 h 15 v -32.429 h 64.857 v 32.429 h 15 v -32.429 h 64.858 v 32.429 h 15 v -32.429 h 64.857 v 32.429 h 15 v -32.429 h 59.866 v 32.429 c 0.001,6.873 -5.591,12.465 -12.464,12.465 z"
   id="path34"
   inkscape:connector-curvature="0" />
			<rect
   x="272.02802"
   y="436.72"
   width="19.965"
   height="15"
   id="rect36" />
			<rect
   x="351.88501"
   y="436.72"
   width="19.965"
   height="15"
   id="rect38" />
			<rect
   x="431.74301"
   y="436.72"
   width="19.965"
   height="15"
   id="rect40" />
			<rect
   x="192.17"
   y="436.72"
   width="19.964001"
   height="15"
   id="rect42" />
			<rect
   x="112.313"
   y="436.72"
   width="19.964001"
   height="15"
   id="rect44" />
			<rect
   x="32.456001"
   y="436.72"
   width="19.964001"
   height="15"
   id="rect46" />
		</g>
	</g>
</g>
<g
   id="g53"
   transform="translate(497.90758,-2.495)">
</g>
<g
   id="g55"
   transform="translate(497.90758,-2.495)">
</g>
<g
   id="g57"
   transform="translate(497.90758,-2.495)">
</g>
<g
   id="g59"
   transform="translate(497.90758,-2.495)">
</g>
<g
   id="g61"
   transform="translate(497.90758,-2.495)">
</g>
<g
   id="g63"
   transform="translate(497.90758,-2.495)">
</g>
<g
   id="g65"
   transform="translate(497.90758,-2.495)">
</g>
<g
   id="g67"
   transform="translate(497.90758,-2.495)">
</g>
<g
   id="g69"
   transform="translate(497.90758,-2.495)">
</g>
<g
   id="g71"
   transform="translate(497.90758,-2.495)">
</g>
<g
   id="g73"
   transform="translate(497.90758,-2.495)">
</g>
<g
   id="g75"
   transform="translate(497.90758,-2.495)">
</g>
<g
   id="g77"
   transform="translate(497.90758,-2.495)">
</g>
<g
   id="g79"
   transform="translate(497.90758,-2.495)">
</g>
<g
   id="g81"
   transform="translate(497.90758,-2.495)">
</g>
<text
   xml:space="preserve"
   style="font-style:normal;font-weight:normal;font-size:48.08637238px;line-height:1.25;font-family:sans-serif;letter-spacing:0px;word-spacing:0px;fill:#000000;fill-opacity:1;stroke:none;stroke-width:3.00539827"
   x="809.70453"
   y="667.06104"
   id="text4603"
   transform="scale(0.95606791,1.0459508)"><tspan
     sodipodi:role="line"
     id="tspan4601"
     x="809.70453"
     y="667.06104"
     style="font-style:normal;font-variant:normal;font-weight:bold;font-stretch:normal;font-size:256.46069336px;font-family:sans-serif;-inkscape-font-specification:'sans-serif Bold';text-align:center;text-anchor:middle;stroke-width:3.00539827">Výroba</tspan><tspan
     sodipodi:role="line"
     x="809.70453"
     y="987.6369"
     style="font-style:normal;font-variant:normal;font-weight:bold;font-stretch:normal;font-size:256.46069336px;font-family:sans-serif;-inkscape-font-specification:'sans-serif Bold';text-align:center;text-anchor:middle;stroke-width:3.00539827"
     id="tspan4605">elektroniky</tspan></text>

</svg>