<?xml version="1.0" encoding="UTF-8" standalone="no"?>
<!-- Generator: Adobe Illustrator 19.0.0, SVG Export Plug-In . SVG Version: 6.00 Build 0)  -->

<svg
   xmlns:dc="http://purl.org/dc/elements/1.1/"
   xmlns:cc="http://creativecommons.org/ns#"
   xmlns:rdf="http://www.w3.org/1999/02/22-rdf-syntax-ns#"
   xmlns:svg="http://www.w3.org/2000/svg"
   xmlns="http://www.w3.org/2000/svg"
   xmlns:sodipodi="http://sodipodi.sourceforge.net/DTD/sodipodi-0.dtd"
   xmlns:inkscape="http://www.inkscape.org/namespaces/inkscape"
   version="1.1"
   id="Layer_1"
   x="0px"
   y="0px"
   viewBox="0 0 2693.6735 782.8302"
   xml:space="preserve"
   sodipodi:docname="vyvoj-elektroniky-2.svg"
   width="2693.6733"
   height="782.8302"
   inkscape:version="0.92.4 (5da689c313, 2019-01-14)"><metadata
   id="metadata49"><rdf:RDF><cc:Work
       rdf:about=""><dc:format>image/svg+xml</dc:format><dc:type
         rdf:resource="http://purl.org/dc/dcmitype/StillImage" /><dc:title></dc:title></cc:Work></rdf:RDF></metadata><defs
   id="defs47" /><sodipodi:namedview
   pagecolor="#ffffff"
   bordercolor="#666666"
   borderopacity="1"
   objecttolerance="10"
   gridtolerance="10"
   guidetolerance="10"
   inkscape:pageopacity="0"
   inkscape:pageshadow="2"
   inkscape:window-width="1920"
   inkscape:window-height="1027"
   id="namedview45"
   showgrid="false"
   fit-margin-top="0"
   fit-margin-left="0"
   fit-margin-right="0"
   fit-margin-bottom="0"
   inkscape:zoom="0.46093841"
   inkscape:cx="1251.318"
   inkscape:cy="341.93745"
   inkscape:window-x="-8"
   inkscape:window-y="-8"
   inkscape:window-maximized="1"
   inkscape:current-layer="Layer_1" />
<g
   id="g6"
   transform="matrix(-1,0,0,1,1503.0927,250.37029)">
	<g
   id="g4">
		<path
   d="M 470.887,234.614 H 439.186 V 45.858 c 0,-5.035 -4.08,-9.116 -9.116,-9.116 H 273.988 c -5.036,0 -9.116,4.082 -9.116,9.116 0,5.035 4.08,9.116 9.116,9.116 h 146.965 v 179.639 h -30.284 c -5.036,0 -9.116,4.082 -9.116,9.116 0,5.035 4.08,9.116 9.116,9.116 h 80.218 c 5.036,0 9.116,-4.082 9.116,-9.116 0,-5.034 -4.08,-9.115 -9.116,-9.115 z"
   id="path2"
   inkscape:connector-curvature="0" />
	</g>
</g>
<g
   id="g12"
   transform="matrix(-1,0,0,1,1503.0927,250.37029)">
	<g
   id="g10">
		<path
   d="m 470.887,266.214 h -80.218 c -5.036,0 -9.116,4.082 -9.116,9.116 0,5.035 4.08,9.116 9.116,9.116 h 30.284 v 179.639 h -13.239 c -3.706,-9.861 -13.206,-16.91 -24.346,-16.91 -11.139,0 -20.639,7.049 -24.345,16.91 H 344.377 V 444.54 c 0,-5.035 -4.08,-9.116 -9.116,-9.116 h -150.72 c -5.035,0 -9.116,4.082 -9.116,9.116 v 19.545 H 160.78 c -3.706,-9.861 -13.205,-16.91 -24.345,-16.91 -11.14,0 -20.64,7.049 -24.345,16.91 H 98.85 v -58.696 c 0,-5.035 -4.082,-9.116 -9.116,-9.116 -21.782,0 -39.504,-17.722 -39.504,-39.504 0,-21.782 17.722,-39.504 39.504,-39.504 5.035,0 9.116,-4.082 9.116,-9.116 0,-5.035 -4.082,-9.116 -9.116,-9.116 -21.782,0 -39.504,-17.722 -39.504,-39.504 0,-21.782 17.722,-39.504 39.504,-39.504 5.035,0 9.116,-4.082 9.116,-9.116 0,-5.035 -4.082,-9.116 -9.116,-9.116 -21.782,0 -39.504,-17.722 -39.504,-39.504 0,-21.779 17.717,-39.499 39.496,-39.504 0.002,0 0.005,0 0.007,0 5.035,0 9.116,-4.082 9.116,-9.116 V 54.975 h 82.159 c 1.146,0 2.283,-0.216 3.35,-0.638 l 92.98,-36.74 c 4.683,-1.85 6.978,-7.146 5.129,-11.828 -1.85,-4.683 -7.148,-6.979 -11.828,-5.128 L 179.273,36.742 H 89.732 c -5.035,0 -9.116,4.082 -9.116,9.116 v 59.422 c -27.519,4.384 -48.62,28.276 -48.62,57.009 0,20.389 10.625,38.344 26.628,48.62 -16.003,10.276 -26.628,28.231 -26.628,48.62 0,20.389 10.625,38.344 26.628,48.62 -16.003,10.276 -26.628,28.231 -26.628,48.62 0,28.733 21.101,52.625 48.62,57.009 v 59.423 c 0,5.035 4.082,9.116 9.116,9.116 h 22.355 c 3.706,9.861 13.205,16.91 24.345,16.91 11.14,0 20.64,-7.049 24.345,-16.91 h 14.646 v 20.566 c 0,5.035 4.082,9.116 9.116,9.116 h 150.72 c 5.036,0 9.116,-4.082 9.116,-9.116 v -20.566 h 14.646 c 3.706,9.861 13.206,16.91 24.345,16.91 11.14,0 20.64,-7.049 24.346,-16.91 h 22.355 c 5.036,0 9.116,-4.082 9.116,-9.116 V 284.447 h 31.701 c 5.036,0 9.116,-4.082 9.116,-9.116 0.002,-5.035 -4.077,-9.117 -9.113,-9.117 z M 144.224,473.243 c -0.023,4.277 -3.508,7.752 -7.791,7.752 -4.297,0 -7.794,-3.496 -7.794,-7.794 0,-4.298 3.496,-7.794 7.794,-7.794 4.283,0 7.768,3.474 7.791,7.752 0,0.013 -0.002,0.027 -0.002,0.041 0,0.014 0.002,0.029 0.002,0.043 z m 181.921,20.525 H 193.657 v -40.111 h 132.488 z m 57.223,-12.773 c -4.285,0 -7.772,-3.477 -7.791,-7.758 0,-0.012 10e-4,-0.023 10e-4,-0.035 0,-0.012 -10e-4,-0.023 -10e-4,-0.035 0.019,-4.281 3.505,-7.758 7.791,-7.758 4.298,0 7.794,3.496 7.794,7.794 0,4.298 -3.497,7.792 -7.794,7.792 z"
   id="path8"
   inkscape:connector-curvature="0" />
	</g>
</g>
<g
   id="g14"
   transform="translate(797.23999,276.40414)">
</g>
<g
   id="g16"
   transform="translate(797.23999,276.40414)">
</g>
<g
   id="g18"
   transform="translate(797.23999,276.40414)">
</g>
<g
   id="g20"
   transform="translate(797.23999,276.40414)">
</g>
<g
   id="g22"
   transform="translate(797.23999,276.40414)">
</g>
<g
   id="g24"
   transform="translate(797.23999,276.40414)">
</g>
<g
   id="g26"
   transform="translate(797.23999,276.40414)">
</g>
<g
   id="g28"
   transform="translate(797.23999,276.40414)">
</g>
<g
   id="g30"
   transform="translate(797.23999,276.40414)">
</g>
<g
   id="g32"
   transform="translate(797.23999,276.40414)">
</g>
<g
   id="g34"
   transform="translate(797.23999,276.40414)">
</g>
<g
   id="g36"
   transform="translate(797.23999,276.40414)">
</g>
<g
   id="g38"
   transform="translate(797.23999,276.40414)">
</g>
<g
   id="g40"
   transform="translate(797.23999,276.40414)">
</g>
<g
   id="g42"
   transform="translate(797.23999,276.40414)">
</g>
<g
   id="g115"
   transform="matrix(-2.4179214,0,0,2.4179214,1079.9299,316.68883)"><g
     id="g57">
	<g
   id="g55">
		<path
   id="path51"
   d="M 138.056,23.817 V 10.479 C 138.056,4.706 133.361,0 127.574,0 H 64.694 C 58.918,0 54.219,4.706 54.219,10.479 V 23.821 H 43.632 v 95.273 h 15.35 v 33.67 h 5.816 l 1.26,31.132 h 9.985 l 1.256,-31.132 h 5.816 v -33.67 h 27.954 v 38.294 h 5.808 l 1.263,35.398 h 10.003 l 1.256,-35.398 h 5.805 v -38.294 h 13.95 V 23.817 Z m -14.917,148.841 -0.744,-20.99 h -5.608 V 119.09 h 12.708 v 32.578 h -5.608 z M 71.042,165.797 70.287,147.044 H 64.693 V 119.09 h 12.701 v 27.954 h -5.59 z M 64.693,5.715 h 62.88 c 2.634,0 4.774,2.137 4.774,4.763 v 19.057 h 11.087 v 83.838 H 49.347 v -83.84 h 10.59 V 10.479 C 59.933,7.852 62.073,5.715 64.693,5.715 Z"
   style="fill:#010002"
   inkscape:connector-curvature="0" />
		<path
   id="path53"
   d="m 96.387,44.524 c 7.748,0 14.043,-6.295 14.043,-14.033 0,-7.748 -6.295,-14.04 -14.043,-14.04 -7.737,0 -14.04,6.295 -14.04,14.04 0.001,7.738 6.303,14.033 14.04,14.033 z m 0,-22.357 c 4.585,0 8.324,3.733 8.324,8.324 0,4.591 -3.74,8.321 -8.324,8.321 -4.588,0 -8.321,-3.733 -8.321,-8.321 0,-4.588 3.733,-8.324 8.321,-8.324 z"
   style="fill:#010002"
   inkscape:connector-curvature="0" />
	</g>
</g><g
     id="g59">
</g><g
     id="g61">
</g><g
     id="g63">
</g><g
     id="g65">
</g><g
     id="g67">
</g><g
     id="g69">
</g><g
     id="g71">
</g><g
     id="g73">
</g><g
     id="g75">
</g><g
     id="g77">
</g><g
     id="g79">
</g><g
     id="g81">
</g><g
     id="g83">
</g><g
     id="g85">
</g><g
     id="g87">
</g></g><g
   id="g119"
   transform="matrix(0,-1,-1,0,1784.4315,659.70878)"><path
     id="path117"
     d="M 298,141 H 263.884 C 259.762,81.399 209.963,34.166 149.333,34.166 88.703,34.166 38.904,81.399 34.782,141 H 0 v 16 h 34.782 c 4.122,59.601 53.921,106.834 114.551,106.834 60.63,0 110.429,-47.233 114.551,-106.834 H 298 Z M 149.333,247.834 C 97.529,247.834 54.91,207.77 50.824,157 H 100 v 58.732 l 82,-51.929 V 215 h 16 v -58 h 49.842 c -4.086,50.77 -46.705,90.834 -98.509,90.834 z M 116,111.154 175.616,148.908 116,186.662 Z M 198,141 V 83 h -16 v 51.013 L 100,82.082 V 141 H 50.824 c 4.086,-50.77 46.705,-90.834 98.509,-90.834 51.804,0 94.423,40.064 98.509,90.834 z"
     inkscape:connector-curvature="0" /></g><text
   xml:space="preserve"
   style="font-style:normal;font-weight:normal;font-size:273.75164795px;line-height:1.25;font-family:sans-serif;letter-spacing:0px;word-spacing:0px;fill:#ff5555;fill-opacity:1;stroke:none;stroke-width:6.84379148"
   x="-1.336678"
   y="218.94785"
   id="text133"><tspan
     sodipodi:role="line"
     id="tspan131"
     x="-1.336678"
     y="218.94785"
     style="font-style:normal;font-variant:normal;font-weight:bold;font-stretch:normal;font-family:sans-serif;-inkscape-font-specification:'sans-serif Bold';fill:#ff5555;stroke-width:6.84379148">Vývoj Elektroniky</tspan></text>


<path
   style="fill:#008080;stroke-width:2.16948724"
   d="M 734.98,489.70622 V 388.82506 h 13.01692 13.01692 v -25.59995 c 0,-17.01842 0.8727,-26.47265 2.60339,-28.20333 1.93294,-1.93294 23.70276,-2.60339 84.53367,-2.60339 78.7817,0 82.01659,0.16127 84.1761,4.19635 1.2352,2.30799 2.24582,14.99949 2.24582,28.20334 v 24.00698 h 13.01693 13.01692 V 489.70622 590.58737 H 847.79333 734.98 Z m 127.23298,-68.49278 c 17.48078,-8.4623 24.28534,-28.34459 15.53363,-45.38779 -6.80642,-13.25489 -16.72934,-19.54511 -30.81648,-19.53479 -30.42441,0.0223 -45.48383,33.1512 -25.7372,56.61874 10.9095,12.9652 25.35165,15.88878 41.02005,8.30384 z"
   id="path52"
   inkscape:connector-curvature="0" /><path
   style="fill:#008080;stroke-width:2.16948724"
   d="m 1612.9682,605.56654 c -33.8982,-7.9774 -65.0706,-39.50235 -72.9785,-73.80407 -12.1603,-52.74667 24.6922,-108.03643 78.514,-117.79464 l 8.1355,-1.47502 v 23.96266 23.96267 h -29.288 -29.2881 v 8.67795 8.67795 h 24.9491 c 13.722,0 24.9491,0.43819 24.9491,0.97376 0,0.53557 -11.2716,18.84061 -25.0481,40.67788 l -25.048,39.70413 29.387,0.60359 29.387,0.6036 v 23.80313 c 0,25.89523 0.6944,24.80706 -13.671,21.42641 z"
   id="path54"
   inkscape:connector-curvature="0" /><path
   style="fill:#008080;stroke-width:2.16948724"
   d="m 1643.9951,584.17722 v -23.96267 h 29.2881 c 16.1085,0 29.2881,-0.50096 29.2881,-1.11324 0,-0.61228 -11.2589,-18.91733 -25.0197,-40.67788 l -25.0197,-39.56465 25.0197,-0.61122 25.0197,-0.61122 v -8.6091 -8.6091 h -29.2881 -29.2881 v -23.96267 -23.96266 l 8.1356,1.48005 c 36.8384,6.70174 68.1241,35.50766 77.4464,71.30782 14.3944,55.27825 -21.1543,110.98355 -77.4464,121.35961 l -8.1356,1.49959 z"
   id="path56"
   inkscape:connector-curvature="0" /><path
   style="fill:#d4aa00;stroke-width:2.16948724"
   d="M 1177.5554,724.01084 V 705.5702 h 65.0846 65.0846 v 18.44064 18.44064 h -65.0846 -65.0846 z"
   id="path58"
   inkscape:connector-curvature="0" /><path
   style="fill:#d4aa00;stroke-width:2.16948724"
   d="m 780.83467,686.58718 c -0.23676,-3.91174 -1.58825,-4.88134 -6.8039,-4.88134 h -6.50847 v -37.96603 -37.96603 h 14.10167 14.10167 v 37.96603 37.96603 h -6.35757 c -4.86814,0 -6.57784,1.14358 -7.29776,4.88134 l -0.94019,4.88135 z"
   id="path60"
   inkscape:connector-curvature="0" /><path
   style="fill:#d4aa00;stroke-width:2.16948724"
   d="m 906.54076,673.57026 c -0.0966,-1.52879 -3.01064,-2.71186 -6.67973,-2.71186 h -6.50846 v -32.54231 -32.54231 h 14.10166 14.10167 v 32.54231 32.54231 h -6.32767 c -3.48022,0 -6.82009,1.22034 -7.42193,2.71186 -0.87541,2.16949 -1.12852,2.16949 -1.26554,0 z"
   id="path62"
   inkscape:connector-curvature="0" /></svg>