<?xml version="1.0" encoding="UTF-8" standalone="no"?>
<!-- Generator: Adobe Illustrator 18.0.0, SVG Export Plug-In . SVG Version: 6.00 Build 0)  -->

<svg
   xmlns:dc="http://purl.org/dc/elements/1.1/"
   xmlns:cc="http://creativecommons.org/ns#"
   xmlns:rdf="http://www.w3.org/1999/02/22-rdf-syntax-ns#"
   xmlns:svg="http://www.w3.org/2000/svg"
   xmlns="http://www.w3.org/2000/svg"
   xmlns:sodipodi="http://sodipodi.sourceforge.net/DTD/sodipodi-0.dtd"
   xmlns:inkscape="http://www.inkscape.org/namespaces/inkscape"
   version="1.1"
   id="Capa_1"
   x="0px"
   y="0px"
   viewBox="0 0 1155.8507 858.92659"
   xml:space="preserve"
   sodipodi:docname="vyvoj-mechaniky.svg"
   width="1155.8507"
   height="858.92657"
   inkscape:version="0.92.4 (5da689c313, 2019-01-14)"><metadata
   id="metadata115"><rdf:RDF><cc:Work
       rdf:about=""><dc:format>image/svg+xml</dc:format><dc:type
         rdf:resource="http://purl.org/dc/dcmitype/StillImage" /><dc:title></dc:title></cc:Work></rdf:RDF></metadata><defs
   id="defs113" /><sodipodi:namedview
   pagecolor="#ffffff"
   bordercolor="#666666"
   borderopacity="1"
   objecttolerance="10"
   gridtolerance="10"
   guidetolerance="10"
   inkscape:pageopacity="0"
   inkscape:pageshadow="2"
   inkscape:window-width="1920"
   inkscape:window-height="1027"
   id="namedview111"
   showgrid="false"
   fit-margin-top="0"
   fit-margin-left="0"
   fit-margin-right="0"
   fit-margin-bottom="0"
   inkscape:zoom="0.59594908"
   inkscape:cx="563.48992"
   inkscape:cy="419.45577"
   inkscape:window-x="-8"
   inkscape:window-y="-8"
   inkscape:window-maximized="1"
   inkscape:current-layer="Capa_1" />
<g
   id="g78"
   transform="translate(365.48643,-27.012)">
	<rect
   x="258.45401"
   y="67.511002"
   style="fill:#638591"
   width="80.667"
   height="33.333"
   id="rect2" />
	<rect
   x="339.121"
   y="67.511002"
   style="fill:#99b5c4"
   width="22.125999"
   height="33.333"
   id="rect4" />
	<rect
   x="15.004"
   y="67.512001"
   style="fill:#4d4d4d"
   width="167.99001"
   height="221.99001"
   id="rect6" />
	<path
   style="fill:#ef7954"
   d="m 247.454,128.242 h -7 v -7.296 c 0,-8.659 -7.045,-15.704 -15.704,-15.704 h -35.592 c -12.52,0 -22.704,-10.185 -22.704,-22.704 V 67.511 h 7 v 15.027 c 0,8.659 7.045,15.704 15.704,15.704 h 35.592 c 12.52,0 22.704,10.185 22.704,22.704 z"
   id="path8"
   inkscape:connector-curvature="0" />
	<path
   style="fill:#f9ed82"
   d="m 264.454,128.242 h -7 v -21.296 c 0,-8.659 -7.045,-15.704 -15.704,-15.704 h -2.176 c -12.52,0 -22.704,-10.185 -22.704,-22.704 V 53.511 h 7 v 15.027 c 0,8.659 7.045,15.704 15.704,15.704 h 2.176 c 12.52,0 22.704,10.185 22.704,22.704 z"
   id="path10"
   inkscape:connector-curvature="0" />
	<rect
   x="321.91299"
   y="100.844"
   style="fill:#808080"
   width="13.333"
   height="59.333"
   id="rect12" />
	<rect
   x="275.66199"
   y="100.844"
   style="fill:#666666"
   width="46.250999"
   height="59.333"
   id="rect14" />
	<path
   style="fill:#cccccc"
   d="m 298.787,148.908 h -195 c -3.13,0 -5.667,-2.537 -5.667,-5.667 v 0 c 0,-3.13 2.537,-5.667 5.667,-5.667 h 195 c 3.13,0 5.667,2.537 5.667,5.667 v 0 c 0,3.13 -2.537,5.667 -5.667,5.667 z"
   id="path16"
   inkscape:connector-curvature="0" />
	<rect
   x="0"
   y="304.49799"
   style="fill:#808080"
   width="395.98001"
   height="23.143"
   id="rect18" />
	<rect
   x="197.99001"
   y="304.49799"
   style="fill:#999999"
   width="197.99001"
   height="23.143"
   id="rect20" />
	<polygon
   style="fill:#808080"
   points="11.587,368.995 43.91,368.995 55.497,327.642 0,327.642 "
   id="polygon22" />
	<polygon
   style="fill:#808080"
   points="179.95,368.995 212.272,368.995 223.86,327.642 168.362,327.642 "
   id="polygon24" />
	<polygon
   style="fill:#808080"
   points="352.097,368.995 384.42,368.995 396.007,327.642 340.51,327.642 "
   id="polygon26" />
	<rect
   x="52.657001"
   y="265.57501"
   style="fill:#e6e6e6"
   width="290.66699"
   height="23.923"
   id="rect28" />
	<rect
   x="52.657001"
   y="265.57501"
   style="fill:#b3b3b3"
   width="136.797"
   height="23.923"
   id="rect30" />
	<polygon
   style="fill:#999999"
   points="212.272,368.995 223.886,327.642 197.99,327.642 197.99,368.995 "
   id="polygon32" />
	<polygon
   style="fill:#666666"
   points="43.883,368.995 55.497,327.642 29.601,327.642 29.601,368.995 "
   id="polygon34" />
	<polygon
   style="fill:#999999"
   points="384.393,368.995 396.007,327.642 370.111,327.642 370.111,368.995 "
   id="polygon36" />
	<rect
   x="58.661999"
   y="67.511002"
   style="fill:#638591"
   width="80.667"
   height="33.333"
   id="rect38" />
	<rect
   x="122.121"
   y="100.844"
   style="fill:#808080"
   width="13.333"
   height="59.333"
   id="rect40" />
	<rect
   x="75.870003"
   y="100.844"
   style="fill:#666666"
   width="46.250999"
   height="59.333"
   id="rect42" />
	<rect
   x="139.328"
   y="67.511002"
   style="fill:#99b5c4"
   width="22.125999"
   height="33.333"
   id="rect44" />
	<rect
   x="245.45399"
   y="128.242"
   style="fill:#999999"
   width="40.667"
   height="36.667"
   id="rect46" />
	<rect
   x="228.787"
   y="128.242"
   style="fill:#808080"
   width="20.333"
   height="36.667"
   id="rect48" />
	<path
   style="fill:#cccccc"
   d="m 237.454,148.908 h -12.333 c -3.13,0 -5.667,-2.537 -5.667,-5.667 v 0 c 0,-3.13 2.537,-5.667 5.667,-5.667 h 12.333 c 3.13,0 5.667,2.537 5.667,5.667 v 0 c 0,3.13 -2.537,5.667 -5.667,5.667 z"
   id="path50"
   inkscape:connector-curvature="0" />
	<g
   id="g56">
		<rect
   x="239.95399"
   y="164.908"
   style="fill:#99b5c4"
   width="35.5"
   height="28.833"
   id="rect52" />
		<rect
   x="239.95399"
   y="164.908"
   style="fill:#638591"
   width="15"
   height="28.833"
   id="rect54" />
	</g>
	<rect
   x="251.70399"
   y="193.742"
   style="fill:#99b5c4"
   width="12"
   height="10"
   id="rect58" />
	<polygon
   style="fill:#ef7954"
   points="115.954,229.242 280.024,229.242 305.994,265.572 89.994,265.572 "
   id="polygon60" />
	<polygon
   style="fill:#d3674a"
   points="89.994,265.572 115.954,229.242 197.994,229.242 197.994,265.572 "
   id="polygon62" />
	<path
   style="fill:#ef7954"
   d="m 241.379,232.742 h -43.385 v -7 h 43.385 c 6.75,0 12.242,-5.492 12.242,-12.242 v -9.758 h 7 v 9.758 c 0,10.61 -8.632,19.242 -19.242,19.242 z"
   id="path64"
   inkscape:connector-curvature="0" />
	<path
   style="fill:#999999"
   d="M 197.99,27.012 V 304.498 H 395.98 V 27.012 Z M 380.98,289.498 H 212.99 V 67.511 h 167.99 z"
   id="path66"
   inkscape:connector-curvature="0" />
	<path
   style="fill:#808080"
   d="M 0,27.012 V 304.498 H 197.99 V 27.012 Z M 182.99,289.498 H 15 V 67.511 h 167.99 z"
   id="path68"
   inkscape:connector-curvature="0" />
	<g
   id="g76">
		<polygon
   style="opacity:0.49000005;fill:#f2f2f2"
   points="15.004,170.922 118.414,67.512 15.004,67.512 "
   id="polygon70" />
		<polygon
   style="opacity:0.49000005;fill:#f2f2f2"
   points="182.994,289.502 182.994,199.632 93.124,289.502 "
   id="polygon72" />
		<polygon
   style="opacity:0.49000005;fill:#f2f2f2"
   points="15.004,274.622 15.004,289.502 46.274,289.502 182.994,152.782 182.994,106.632 "
   id="polygon74" />
	</g>
</g>
<g
   id="g80"
   transform="translate(365.48643,-27.012)">
</g>
<g
   id="g82"
   transform="translate(365.48643,-27.012)">
</g>
<g
   id="g84"
   transform="translate(365.48643,-27.012)">
</g>
<g
   id="g86"
   transform="translate(365.48643,-27.012)">
</g>
<g
   id="g88"
   transform="translate(365.48643,-27.012)">
</g>
<g
   id="g90"
   transform="translate(365.48643,-27.012)">
</g>
<g
   id="g92"
   transform="translate(365.48643,-27.012)">
</g>
<g
   id="g94"
   transform="translate(365.48643,-27.012)">
</g>
<g
   id="g96"
   transform="translate(365.48643,-27.012)">
</g>
<g
   id="g98"
   transform="translate(365.48643,-27.012)">
</g>
<g
   id="g100"
   transform="translate(365.48643,-27.012)">
</g>
<g
   id="g102"
   transform="translate(365.48643,-27.012)">
</g>
<g
   id="g104"
   transform="translate(365.48643,-27.012)">
</g>
<g
   id="g106"
   transform="translate(365.48643,-27.012)">
</g>
<g
   id="g108"
   transform="translate(365.48643,-27.012)">
</g>
<text
   xml:space="preserve"
   style="font-style:normal;font-weight:normal;font-size:148.93559265px;line-height:1.25;font-family:sans-serif;letter-spacing:0px;word-spacing:0px;fill:#000000;fill-opacity:1;stroke:none;stroke-width:3.72338939"
   x="576.97998"
   y="454.44424"
   id="text119"><tspan
     sodipodi:role="line"
     id="tspan117"
     x="576.97998"
     y="454.44424"
     style="font-style:normal;font-variant:normal;font-weight:bold;font-stretch:normal;font-family:sans-serif;-inkscape-font-specification:'sans-serif Bold';text-align:center;text-anchor:middle;stroke-width:3.72338939">Vývoj</tspan><tspan
     sodipodi:role="line"
     x="576.97998"
     y="640.61371"
     style="font-style:normal;font-variant:normal;font-weight:bold;font-stretch:normal;font-family:sans-serif;-inkscape-font-specification:'sans-serif Bold';text-align:center;text-anchor:middle;stroke-width:3.72338939"
     id="tspan63">Mechanických</tspan><tspan
     sodipodi:role="line"
     x="576.97998"
     y="826.7832"
     id="tspan121"
     style="font-style:normal;font-variant:normal;font-weight:bold;font-stretch:normal;font-family:sans-serif;-inkscape-font-specification:'sans-serif Bold';text-align:center;text-anchor:middle;stroke-width:3.72338939">Systémů</tspan></text>


</svg>